<svg width="163" height="155" viewBox="0 0 163 155" fill="none" xmlns="http://www.w3.org/2000/svg">
<path d="M154.447 28.5196L142.081 40.8898C142.081 40.8898 133.833 45.0118 125.589 36.7634C117.341 28.5196 121.463 20.2713 121.463 20.2713L133.833 7.90107C137.959 3.77917 133.003 0 129.283 0C111.014 0 96.2081 14.8055 96.2081 33.07C96.2081 35.636 96.5328 38.1254 97.083 40.5246L69.1271 68.4805L93.8631 93.2164L121.819 65.265C124.223 65.8152 126.708 66.1399 129.278 66.1399C147.543 66.1399 162.348 51.3344 162.348 33.07C162.353 29.3269 158.569 24.3977 154.447 28.5196ZM68.6401 69.2877L13.6708 124.252C6.92874 130.999 6.92874 141.935 13.6708 148.682C20.4219 155.424 31.3535 155.424 38.1001 148.682L93.0603 93.717L68.6401 69.2877ZM25.9914 143.581C22.2979 143.581 19.308 140.587 19.308 136.898C19.308 133.209 22.3025 130.21 25.9914 130.21C29.6849 130.21 32.6749 133.204 32.6749 136.898C32.6749 140.587 29.6849 143.581 25.9914 143.581Z" fill="#8899A6"/>
<path d="M139.037 150.079C144.295 155.338 152.665 155.586 157.621 150.625C162.582 145.664 162.334 137.299 157.076 132.04L52.1566 27.1212C46.8937 21.8583 38.5326 21.6148 33.5719 26.5755C28.6112 31.5362 28.8592 39.9018 34.1176 45.1602L139.037 150.079Z" fill="#F4900C"/>
<path d="M96.7089 4.02718C96.7089 4.02718 69.6505 -9.50205 47.1018 13.0467L15.5336 44.6149C15.5336 44.6149 11.0238 40.1051 6.51407 44.6149L2.00433 49.1246C2.00433 49.1246 -2.50541 53.6344 2.00433 58.1441L20.0433 76.1831C20.0433 76.1831 24.553 80.6928 29.0628 76.1831L33.5725 71.6733C33.5725 71.6733 38.0823 67.1636 33.5725 62.6538L33.2208 62.3021C36.6933 58.9513 41.893 55.5375 47.1018 58.1441L65.1407 40.1051C65.1407 40.1051 60.631 26.5759 69.6505 17.5564C78.67 8.53692 83.1797 8.53692 92.1992 8.53692C101.219 8.53692 96.7089 4.02718 96.7089 4.02718Z" fill="#66757F"/>
</svg>
