<svg width="356" height="396" viewBox="0 0 356 396" fill="none" xmlns="http://www.w3.org/2000/svg">
<g filter="url(#filter0_d)">
<rect x="15" y="332" width="276" height="45" rx="22.5" fill="url(#paint0_linear)"/>
</g>
<path d="M83.5781 357.186C83.5326 358.175 83.2656 359.051 82.7773 359.812C82.2891 360.568 81.6022 361.154 80.7168 361.57C79.8379 361.987 78.832 362.195 77.6992 362.195C75.8307 362.195 74.3594 361.587 73.2852 360.369C72.2109 359.152 71.6738 357.433 71.6738 355.213V354.51C71.6738 353.117 71.9147 351.899 72.3965 350.857C72.8848 349.809 73.5846 349.002 74.4961 348.436C75.4076 347.863 76.4622 347.576 77.6602 347.576C79.3854 347.576 80.7721 348.032 81.8203 348.943C82.8685 349.848 83.4642 351.098 83.6074 352.693H80.1895C80.1634 351.827 79.9453 351.206 79.5352 350.828C79.125 350.451 78.5 350.262 77.6602 350.262C76.8073 350.262 76.1823 350.581 75.7852 351.219C75.388 351.857 75.1797 352.876 75.1602 354.275V355.281C75.1602 356.798 75.349 357.882 75.7266 358.533C76.1107 359.184 76.7682 359.51 77.6992 359.51C78.487 359.51 79.0892 359.324 79.5059 358.953C79.9225 358.582 80.1439 357.993 80.1699 357.186H83.5781ZM91.4395 354.412L90.3555 354.334C89.3203 354.334 88.6562 354.66 88.3633 355.311V362H85.0723V351.434H88.1582L88.2656 352.791C88.819 351.756 89.5905 351.238 90.5801 351.238C90.9316 351.238 91.2376 351.277 91.498 351.355L91.4395 354.412ZM97.543 362.195C95.9219 362.195 94.61 361.714 93.6074 360.75C92.6048 359.78 92.1035 358.52 92.1035 356.971V356.697C92.1035 355.617 92.3021 354.663 92.6992 353.836C93.1029 353.009 93.6888 352.371 94.457 351.922C95.2253 351.466 96.1367 351.238 97.1914 351.238C98.6758 351.238 99.8477 351.701 100.707 352.625C101.566 353.543 101.996 354.826 101.996 356.473V357.752H95.4531C95.5703 358.344 95.8275 358.81 96.2246 359.148C96.6217 359.487 97.1361 359.656 97.7676 359.656C98.8092 359.656 99.623 359.292 100.209 358.562L101.713 360.34C101.303 360.906 100.72 361.359 99.9648 361.697C99.2161 362.029 98.4089 362.195 97.543 362.195ZM97.1719 353.777C96.2083 353.777 95.6354 354.415 95.4531 355.691H98.7734V355.438C98.7865 354.91 98.653 354.503 98.373 354.217C98.0931 353.924 97.6927 353.777 97.1719 353.777ZM109.281 362C109.164 361.785 109.06 361.469 108.969 361.053C108.363 361.814 107.517 362.195 106.43 362.195C105.434 362.195 104.587 361.896 103.891 361.297C103.194 360.691 102.846 359.933 102.846 359.021C102.846 357.876 103.269 357.01 104.115 356.424C104.962 355.838 106.192 355.545 107.807 355.545H108.822V354.988C108.822 354.018 108.402 353.533 107.562 353.533C106.781 353.533 106.391 353.917 106.391 354.686H103.1C103.1 353.663 103.533 352.833 104.398 352.195C105.271 351.557 106.381 351.238 107.729 351.238C109.076 351.238 110.141 351.567 110.922 352.225C111.703 352.882 112.104 353.784 112.123 354.93V359.607C112.136 360.577 112.286 361.32 112.572 361.834V362H109.281ZM107.221 359.852C107.631 359.852 107.969 359.764 108.236 359.588C108.51 359.412 108.705 359.214 108.822 358.992V357.303H107.865C106.719 357.303 106.146 357.817 106.146 358.846C106.146 359.145 106.247 359.389 106.449 359.578C106.651 359.76 106.908 359.852 107.221 359.852ZM117.787 348.807V351.434H119.525V353.719H117.787V358.553C117.787 358.95 117.859 359.227 118.002 359.383C118.145 359.539 118.428 359.617 118.852 359.617C119.177 359.617 119.451 359.598 119.672 359.559V361.912C119.079 362.101 118.461 362.195 117.816 362.195C116.684 362.195 115.847 361.928 115.307 361.395C114.766 360.861 114.496 360.05 114.496 358.963V353.719H113.148V351.434H114.496V348.807H117.787ZM125.941 362.195C124.32 362.195 123.008 361.714 122.006 360.75C121.003 359.78 120.502 358.52 120.502 356.971V356.697C120.502 355.617 120.701 354.663 121.098 353.836C121.501 353.009 122.087 352.371 122.855 351.922C123.624 351.466 124.535 351.238 125.59 351.238C127.074 351.238 128.246 351.701 129.105 352.625C129.965 353.543 130.395 354.826 130.395 356.473V357.752H123.852C123.969 358.344 124.226 358.81 124.623 359.148C125.02 359.487 125.535 359.656 126.166 359.656C127.208 359.656 128.021 359.292 128.607 358.562L130.111 360.34C129.701 360.906 129.118 361.359 128.363 361.697C127.615 362.029 126.807 362.195 125.941 362.195ZM125.57 353.777C124.607 353.777 124.034 354.415 123.852 355.691H127.172V355.438C127.185 354.91 127.051 354.503 126.771 354.217C126.492 353.924 126.091 353.777 125.57 353.777ZM144.936 359.344H140.238L139.418 362H135.756L140.971 347.781H144.193L149.447 362H145.766L144.936 359.344ZM141.059 356.697H144.115L142.582 351.766L141.059 356.697ZM154.809 359.656C155.271 359.656 155.629 359.533 155.883 359.285C156.137 359.031 156.26 358.68 156.254 358.23H159.34C159.34 359.389 158.923 360.34 158.09 361.082C157.263 361.824 156.195 362.195 154.887 362.195C153.35 362.195 152.139 361.714 151.254 360.75C150.368 359.786 149.926 358.452 149.926 356.746V356.609C149.926 355.542 150.121 354.601 150.512 353.787C150.909 352.967 151.479 352.339 152.221 351.902C152.963 351.46 153.842 351.238 154.857 351.238C156.231 351.238 157.322 351.619 158.129 352.381C158.936 353.143 159.34 354.174 159.34 355.477H156.254C156.254 354.93 156.12 354.51 155.854 354.217C155.587 353.924 155.229 353.777 154.779 353.777C153.926 353.777 153.428 354.321 153.285 355.408C153.24 355.753 153.217 356.229 153.217 356.834C153.217 357.895 153.344 358.631 153.598 359.041C153.852 359.451 154.255 359.656 154.809 359.656ZM165.199 359.656C165.661 359.656 166.02 359.533 166.273 359.285C166.527 359.031 166.651 358.68 166.645 358.23H169.73C169.73 359.389 169.314 360.34 168.48 361.082C167.654 361.824 166.586 362.195 165.277 362.195C163.741 362.195 162.53 361.714 161.645 360.75C160.759 359.786 160.316 358.452 160.316 356.746V356.609C160.316 355.542 160.512 354.601 160.902 353.787C161.299 352.967 161.869 352.339 162.611 351.902C163.354 351.46 164.232 351.238 165.248 351.238C166.622 351.238 167.712 351.619 168.52 352.381C169.327 353.143 169.73 354.174 169.73 355.477H166.645C166.645 354.93 166.511 354.51 166.244 354.217C165.977 353.924 165.619 353.777 165.17 353.777C164.317 353.777 163.819 354.321 163.676 355.408C163.63 355.753 163.607 356.229 163.607 356.834C163.607 357.895 163.734 358.631 163.988 359.041C164.242 359.451 164.646 359.656 165.199 359.656ZM170.707 356.619C170.707 355.564 170.912 354.627 171.322 353.807C171.732 352.98 172.322 352.345 173.09 351.902C173.858 351.46 174.76 351.238 175.795 351.238C177.377 351.238 178.624 351.73 179.535 352.713C180.447 353.689 180.902 355.021 180.902 356.707V356.824C180.902 358.471 180.443 359.78 179.525 360.75C178.614 361.714 177.377 362.195 175.814 362.195C174.311 362.195 173.103 361.746 172.191 360.848C171.28 359.943 170.788 358.719 170.717 357.176L170.707 356.619ZM173.998 356.824C173.998 357.801 174.151 358.517 174.457 358.973C174.763 359.428 175.215 359.656 175.814 359.656C176.986 359.656 177.585 358.755 177.611 356.951V356.619C177.611 354.725 177.006 353.777 175.795 353.777C174.695 353.777 174.099 354.594 174.008 356.229L173.998 356.824ZM188.646 360.857C187.95 361.749 187.009 362.195 185.824 362.195C184.665 362.195 183.786 361.86 183.188 361.189C182.595 360.512 182.299 359.542 182.299 358.279V351.434H185.59V358.299C185.59 359.204 186.029 359.656 186.908 359.656C187.663 359.656 188.201 359.386 188.52 358.846V351.434H191.83V362H188.744L188.646 360.857ZM196.664 351.434L196.771 352.674C197.501 351.717 198.507 351.238 199.789 351.238C200.889 351.238 201.71 351.567 202.25 352.225C202.797 352.882 203.08 353.872 203.1 355.193V362H199.799V355.33C199.799 354.796 199.691 354.406 199.477 354.158C199.262 353.904 198.871 353.777 198.305 353.777C197.66 353.777 197.182 354.031 196.869 354.539V362H193.578V351.434H196.664ZM208.764 348.807V351.434H210.502V353.719H208.764V358.553C208.764 358.95 208.835 359.227 208.979 359.383C209.122 359.539 209.405 359.617 209.828 359.617C210.154 359.617 210.427 359.598 210.648 359.559V361.912C210.056 362.101 209.438 362.195 208.793 362.195C207.66 362.195 206.824 361.928 206.283 361.395C205.743 360.861 205.473 360.05 205.473 358.963V353.719H204.125V351.434H205.473V348.807H208.764Z" fill="white"/>
<path d="M234.53 355.53C234.823 355.237 234.823 354.763 234.53 354.47L229.757 349.697C229.464 349.404 228.99 349.404 228.697 349.697C228.404 349.99 228.404 350.464 228.697 350.757L232.939 355L228.697 359.243C228.404 359.536 228.404 360.01 228.697 360.303C228.99 360.596 229.464 360.596 229.757 360.303L234.53 355.53ZM218 355.75H234V354.25H218V355.75Z" fill="white"/>
<g filter="url(#filter1_d)">
<rect x="15" y="11" width="154" height="144" rx="8" fill="url(#paint1_linear)"/>
</g>
<g filter="url(#filter2_d)">
<rect x="186" y="11" width="154" height="144" rx="8" fill="url(#paint2_linear)"/>
</g>
<g filter="url(#filter3_d)">
<rect x="187" y="172" width="154" height="144" rx="8" fill="url(#paint3_linear)"/>
</g>
<g filter="url(#filter4_d)">
<rect x="16" y="172" width="154" height="144" rx="8" fill="url(#paint4_linear)"/>
</g>
<g filter="url(#filter5_d)">
<path d="M40.2891 92V74.9375H46.418C48.6133 74.9375 50.2812 75.3398 51.4219 76.1445C52.5703 76.9492 53.1445 78.1172 53.1445 79.6484C53.1445 80.5312 52.9414 81.2852 52.5352 81.9102C52.1289 82.5352 51.5312 82.9961 50.7422 83.293C51.6328 83.5273 52.3164 83.9648 52.793 84.6055C53.2695 85.2461 53.5078 86.0273 53.5078 86.9492C53.5078 88.6211 52.9766 89.8789 51.9141 90.7227C50.8594 91.5586 49.293 91.9844 47.2148 92H40.2891ZM44.4023 84.7461V88.8359H47.0977C47.8398 88.8359 48.4102 88.668 48.8086 88.332C49.207 87.9883 49.4062 87.5078 49.4062 86.8906C49.4062 85.4688 48.6992 84.7539 47.2852 84.7461H44.4023ZM44.4023 82.0508H46.5469C47.4453 82.043 48.0859 81.8789 48.4688 81.5586C48.8516 81.2383 49.043 80.7656 49.043 80.1406C49.043 79.4219 48.8359 78.9062 48.4219 78.5938C48.0078 78.2734 47.3398 78.1133 46.418 78.1133H44.4023V82.0508ZM63.2695 82.8945L61.9688 82.8008C60.7266 82.8008 59.9297 83.1914 59.5781 83.9727V92H55.6289V79.3203H59.332L59.4609 80.9492C60.125 79.707 61.0508 79.0859 62.2383 79.0859C62.6602 79.0859 63.0273 79.1328 63.3398 79.2266L63.2695 82.8945ZM63.7734 85.543C63.7734 84.2773 64.0195 83.1523 64.5117 82.168C65.0039 81.1758 65.7109 80.4141 66.6328 79.8828C67.5547 79.3516 68.6367 79.0859 69.8789 79.0859C71.7773 79.0859 73.2734 79.6758 74.3672 80.8555C75.4609 82.0273 76.0078 83.625 76.0078 85.6484V85.7891C76.0078 87.7656 75.457 89.3359 74.3555 90.5C73.2617 91.6562 71.7773 92.2344 69.9023 92.2344C68.0977 92.2344 66.6484 91.6953 65.5547 90.6172C64.4609 89.5312 63.8711 88.0625 63.7852 86.2109L63.7734 85.543ZM67.7227 85.7891C67.7227 86.9609 67.9062 87.8203 68.2734 88.3672C68.6406 88.9141 69.1836 89.1875 69.9023 89.1875C71.3086 89.1875 72.0273 88.1055 72.0586 85.9414V85.543C72.0586 83.2695 71.332 82.1328 69.8789 82.1328C68.5586 82.1328 67.8438 83.1133 67.7344 85.0742L67.7227 85.7891ZM88.6992 86.7969L89.9766 79.3203H93.7617L90.7734 92H87.4336L85.3359 84.4766L83.2266 92H79.8867L76.8984 79.3203H80.6836L81.9375 86.9727L83.9531 79.3203H86.707L88.6992 86.7969ZM101.824 88.4375C101.824 88.1016 101.648 87.832 101.297 87.6289C100.945 87.4258 100.277 87.2148 99.293 86.9961C98.3086 86.7773 97.4961 86.4922 96.8555 86.1406C96.2148 85.7812 95.7266 85.3477 95.3906 84.8398C95.0547 84.332 94.8867 83.75 94.8867 83.0938C94.8867 81.9297 95.3672 80.9727 96.3281 80.2227C97.2891 79.4648 98.5469 79.0859 100.102 79.0859C101.773 79.0859 103.117 79.4648 104.133 80.2227C105.148 80.9805 105.656 81.9766 105.656 83.2109H101.695C101.695 82.1953 101.16 81.6875 100.09 81.6875C99.6758 81.6875 99.3281 81.8047 99.0469 82.0391C98.7656 82.2656 98.625 82.5508 98.625 82.8945C98.625 83.2461 98.7969 83.5312 99.1406 83.75C99.4844 83.9688 100.031 84.1484 100.781 84.2891C101.539 84.4297 102.203 84.5977 102.773 84.793C104.68 85.4492 105.633 86.625 105.633 88.3203C105.633 89.4766 105.117 90.418 104.086 91.1445C103.062 91.8711 101.734 92.2344 100.102 92.2344C99.0156 92.2344 98.0469 92.0391 97.1953 91.6484C96.3438 91.2578 95.6797 90.7266 95.2031 90.0547C94.7266 89.3828 94.4883 88.6758 94.4883 87.9336H98.1797C98.1953 88.5195 98.3906 88.9492 98.7656 89.2227C99.1406 89.4883 99.6211 89.6211 100.207 89.6211C100.746 89.6211 101.148 89.5117 101.414 89.293C101.688 89.0742 101.824 88.7891 101.824 88.4375ZM113.625 92.2344C111.68 92.2344 110.105 91.6562 108.902 90.5C107.699 89.3359 107.098 87.8242 107.098 85.9648V85.6367C107.098 84.3398 107.336 83.1953 107.812 82.2031C108.297 81.2109 109 80.4453 109.922 79.9062C110.844 79.3594 111.938 79.0859 113.203 79.0859C114.984 79.0859 116.391 79.6406 117.422 80.75C118.453 81.8516 118.969 83.3906 118.969 85.3672V86.9023H111.117C111.258 87.6133 111.566 88.1719 112.043 88.5781C112.52 88.9844 113.137 89.1875 113.895 89.1875C115.145 89.1875 116.121 88.75 116.824 87.875L118.629 90.0078C118.137 90.6875 117.438 91.2305 116.531 91.6367C115.633 92.0352 114.664 92.2344 113.625 92.2344ZM113.18 82.1328C112.023 82.1328 111.336 82.8984 111.117 84.4297H115.102V84.125C115.117 83.4922 114.957 83.0039 114.621 82.6602C114.285 82.3086 113.805 82.1328 113.18 82.1328ZM54.2578 113.891C53.625 114.594 52.6992 115.16 51.4805 115.59C50.2617 116.02 48.9258 116.234 47.4727 116.234C45.2383 116.234 43.4531 115.551 42.1172 114.184C40.7812 112.816 40.0664 110.914 39.9727 108.477L39.9609 107C39.9609 105.32 40.2578 103.855 40.8516 102.605C41.4453 101.348 42.293 100.383 43.3945 99.7109C44.5039 99.0312 45.7852 98.6914 47.2383 98.6914C49.3633 98.6914 51.0117 99.1797 52.1836 100.156C53.3633 101.125 54.0508 102.574 54.2461 104.504H50.2852C50.1445 103.551 49.8398 102.871 49.3711 102.465C48.9023 102.059 48.2383 101.855 47.3789 101.855C46.3477 101.855 45.5508 102.293 44.9883 103.168C44.4258 104.043 44.1406 105.293 44.1328 106.918V107.949C44.1328 109.652 44.4219 110.934 45 111.793C45.5859 112.645 46.5039 113.07 47.7539 113.07C48.8242 113.07 49.6211 112.832 50.1445 112.355V109.707H47.2852V106.883H54.2578V113.891ZM64.0195 114.629C63.1836 115.699 62.0547 116.234 60.6328 116.234C59.2422 116.234 58.1875 115.832 57.4688 115.027C56.7578 114.215 56.4023 113.051 56.4023 111.535V103.32H60.3516V111.559C60.3516 112.645 60.8789 113.188 61.9336 113.188C62.8398 113.188 63.4844 112.863 63.8672 112.215V103.32H67.8398V116H64.1367L64.0195 114.629ZM74.1797 116H70.2188V103.32H74.1797V116ZM69.9844 100.051C69.9844 99.4883 70.1875 99.0273 70.5938 98.668C71 98.3086 71.5273 98.1289 72.1758 98.1289C72.8242 98.1289 73.3516 98.3086 73.7578 98.668C74.1641 99.0273 74.3672 99.4883 74.3672 100.051C74.3672 100.613 74.1641 101.074 73.7578 101.434C73.3516 101.793 72.8242 101.973 72.1758 101.973C71.5273 101.973 71 101.793 70.5938 101.434C70.1875 101.074 69.9844 100.613 69.9844 100.051ZM76.125 109.566C76.125 107.559 76.5586 105.977 77.4258 104.82C78.293 103.664 79.5039 103.086 81.0586 103.086C82.1914 103.086 83.1445 103.531 83.918 104.422V98H87.8789V116H84.3281L84.1289 114.641C83.3164 115.703 82.2852 116.234 81.0352 116.234C79.5273 116.234 78.332 115.656 77.4492 114.5C76.5664 113.344 76.125 111.699 76.125 109.566ZM80.0742 109.812C80.0742 112.062 80.7305 113.188 82.043 113.188C82.918 113.188 83.543 112.82 83.918 112.086V107.258C83.5586 106.508 82.9414 106.133 82.0664 106.133C80.8477 106.133 80.1875 107.117 80.0859 109.086L80.0742 109.812ZM96.2578 116.234C94.3125 116.234 92.7383 115.656 91.5352 114.5C90.332 113.336 89.7305 111.824 89.7305 109.965V109.637C89.7305 108.34 89.9688 107.195 90.4453 106.203C90.9297 105.211 91.6328 104.445 92.5547 103.906C93.4766 103.359 94.5703 103.086 95.8359 103.086C97.6172 103.086 99.0234 103.641 100.055 104.75C101.086 105.852 101.602 107.391 101.602 109.367V110.902H93.75C93.8906 111.613 94.1992 112.172 94.6758 112.578C95.1523 112.984 95.7695 113.188 96.5273 113.188C97.7773 113.188 98.7539 112.75 99.457 111.875L101.262 114.008C100.77 114.688 100.07 115.23 99.1641 115.637C98.2656 116.035 97.2969 116.234 96.2578 116.234ZM95.8125 106.133C94.6562 106.133 93.9688 106.898 93.75 108.43H97.7344V108.125C97.75 107.492 97.5898 107.004 97.2539 106.66C96.918 106.309 96.4375 106.133 95.8125 106.133ZM109.84 112.438C109.84 112.102 109.664 111.832 109.312 111.629C108.961 111.426 108.293 111.215 107.309 110.996C106.324 110.777 105.512 110.492 104.871 110.141C104.23 109.781 103.742 109.348 103.406 108.84C103.07 108.332 102.902 107.75 102.902 107.094C102.902 105.93 103.383 104.973 104.344 104.223C105.305 103.465 106.562 103.086 108.117 103.086C109.789 103.086 111.133 103.465 112.148 104.223C113.164 104.98 113.672 105.977 113.672 107.211H109.711C109.711 106.195 109.176 105.688 108.105 105.688C107.691 105.688 107.344 105.805 107.062 106.039C106.781 106.266 106.641 106.551 106.641 106.895C106.641 107.246 106.812 107.531 107.156 107.75C107.5 107.969 108.047 108.148 108.797 108.289C109.555 108.43 110.219 108.598 110.789 108.793C112.695 109.449 113.648 110.625 113.648 112.32C113.648 113.477 113.133 114.418 112.102 115.145C111.078 115.871 109.75 116.234 108.117 116.234C107.031 116.234 106.062 116.039 105.211 115.648C104.359 115.258 103.695 114.727 103.219 114.055C102.742 113.383 102.504 112.676 102.504 111.934H106.195C106.211 112.52 106.406 112.949 106.781 113.223C107.156 113.488 107.637 113.621 108.223 113.621C108.762 113.621 109.164 113.512 109.43 113.293C109.703 113.074 109.84 112.789 109.84 112.438Z" fill="white"/>
</g>
<g filter="url(#filter6_d)">
<path d="M49.9805 251.812H44.3438L43.3594 255H38.9648L45.2227 237.938H49.0898L55.3945 255H50.9766L49.9805 251.812ZM45.3281 248.637H48.9961L47.1562 242.719L45.3281 248.637ZM55.9688 248.566C55.9688 246.559 56.4023 244.977 57.2695 243.82C58.1367 242.664 59.3477 242.086 60.9023 242.086C62.0352 242.086 62.9883 242.531 63.7617 243.422V237H67.7227V255H64.1719L63.9727 253.641C63.1602 254.703 62.1289 255.234 60.8789 255.234C59.3711 255.234 58.1758 254.656 57.293 253.5C56.4102 252.344 55.9688 250.699 55.9688 248.566ZM59.918 248.812C59.918 251.062 60.5742 252.188 61.8867 252.188C62.7617 252.188 63.3867 251.82 63.7617 251.086V246.258C63.4023 245.508 62.7852 245.133 61.9102 245.133C60.6914 245.133 60.0312 246.117 59.9297 248.086L59.918 248.812ZM69.4688 248.566C69.4688 246.559 69.9023 244.977 70.7695 243.82C71.6367 242.664 72.8477 242.086 74.4023 242.086C75.5352 242.086 76.4883 242.531 77.2617 243.422V237H81.2227V255H77.6719L77.4727 253.641C76.6602 254.703 75.6289 255.234 74.3789 255.234C72.8711 255.234 71.6758 254.656 70.793 253.5C69.9102 252.344 69.4688 250.699 69.4688 248.566ZM73.418 248.812C73.418 251.062 74.0742 252.188 75.3867 252.188C76.2617 252.188 76.8867 251.82 77.2617 251.086V246.258C76.9023 245.508 76.2852 245.133 75.4102 245.133C74.1914 245.133 73.5312 246.117 73.4297 248.086L73.418 248.812ZM99.3164 251.812H93.6797L92.6953 255H88.3008L94.5586 237.938H98.4258L104.73 255H100.312L99.3164 251.812ZM94.6641 248.637H98.332L96.4922 242.719L94.6641 248.637ZM54.2578 276.891C53.625 277.594 52.6992 278.16 51.4805 278.59C50.2617 279.02 48.9258 279.234 47.4727 279.234C45.2383 279.234 43.4531 278.551 42.1172 277.184C40.7812 275.816 40.0664 273.914 39.9727 271.477L39.9609 270C39.9609 268.32 40.2578 266.855 40.8516 265.605C41.4453 264.348 42.293 263.383 43.3945 262.711C44.5039 262.031 45.7852 261.691 47.2383 261.691C49.3633 261.691 51.0117 262.18 52.1836 263.156C53.3633 264.125 54.0508 265.574 54.2461 267.504H50.2852C50.1445 266.551 49.8398 265.871 49.3711 265.465C48.9023 265.059 48.2383 264.855 47.3789 264.855C46.3477 264.855 45.5508 265.293 44.9883 266.168C44.4258 267.043 44.1406 268.293 44.1328 269.918V270.949C44.1328 272.652 44.4219 273.934 45 274.793C45.5859 275.645 46.5039 276.07 47.7539 276.07C48.8242 276.07 49.6211 275.832 50.1445 275.355V272.707H47.2852V269.883H54.2578V276.891ZM64.0195 277.629C63.1836 278.699 62.0547 279.234 60.6328 279.234C59.2422 279.234 58.1875 278.832 57.4688 278.027C56.7578 277.215 56.4023 276.051 56.4023 274.535V266.32H60.3516V274.559C60.3516 275.645 60.8789 276.188 61.9336 276.188C62.8398 276.188 63.4844 275.863 63.8672 275.215V266.32H67.8398V279H64.1367L64.0195 277.629ZM74.1797 279H70.2188V266.32H74.1797V279ZM69.9844 263.051C69.9844 262.488 70.1875 262.027 70.5938 261.668C71 261.309 71.5273 261.129 72.1758 261.129C72.8242 261.129 73.3516 261.309 73.7578 261.668C74.1641 262.027 74.3672 262.488 74.3672 263.051C74.3672 263.613 74.1641 264.074 73.7578 264.434C73.3516 264.793 72.8242 264.973 72.1758 264.973C71.5273 264.973 71 264.793 70.5938 264.434C70.1875 264.074 69.9844 263.613 69.9844 263.051ZM76.125 272.566C76.125 270.559 76.5586 268.977 77.4258 267.82C78.293 266.664 79.5039 266.086 81.0586 266.086C82.1914 266.086 83.1445 266.531 83.918 267.422V261H87.8789V279H84.3281L84.1289 277.641C83.3164 278.703 82.2852 279.234 81.0352 279.234C79.5273 279.234 78.332 278.656 77.4492 277.5C76.5664 276.344 76.125 274.699 76.125 272.566ZM80.0742 272.812C80.0742 275.062 80.7305 276.188 82.043 276.188C82.918 276.188 83.543 275.82 83.918 275.086V270.258C83.5586 269.508 82.9414 269.133 82.0664 269.133C80.8477 269.133 80.1875 270.117 80.0859 272.086L80.0742 272.812ZM96.2578 279.234C94.3125 279.234 92.7383 278.656 91.5352 277.5C90.332 276.336 89.7305 274.824 89.7305 272.965V272.637C89.7305 271.34 89.9688 270.195 90.4453 269.203C90.9297 268.211 91.6328 267.445 92.5547 266.906C93.4766 266.359 94.5703 266.086 95.8359 266.086C97.6172 266.086 99.0234 266.641 100.055 267.75C101.086 268.852 101.602 270.391 101.602 272.367V273.902H93.75C93.8906 274.613 94.1992 275.172 94.6758 275.578C95.1523 275.984 95.7695 276.188 96.5273 276.188C97.7773 276.188 98.7539 275.75 99.457 274.875L101.262 277.008C100.77 277.688 100.07 278.23 99.1641 278.637C98.2656 279.035 97.2969 279.234 96.2578 279.234ZM95.8125 269.133C94.6562 269.133 93.9688 269.898 93.75 271.43H97.7344V271.125C97.75 270.492 97.5898 270.004 97.2539 269.66C96.918 269.309 96.4375 269.133 95.8125 269.133Z" fill="white"/>
</g>
<g filter="url(#filter7_d)">
<path d="M223.402 262.836H230.562V266H219.289V248.938H223.402V262.836ZM231.617 259.543C231.617 258.277 231.863 257.152 232.355 256.168C232.848 255.176 233.555 254.414 234.477 253.883C235.398 253.352 236.48 253.086 237.723 253.086C239.621 253.086 241.117 253.676 242.211 254.855C243.305 256.027 243.852 257.625 243.852 259.648V259.789C243.852 261.766 243.301 263.336 242.199 264.5C241.105 265.656 239.621 266.234 237.746 266.234C235.941 266.234 234.492 265.695 233.398 264.617C232.305 263.531 231.715 262.062 231.629 260.211L231.617 259.543ZM235.566 259.789C235.566 260.961 235.75 261.82 236.117 262.367C236.484 262.914 237.027 263.188 237.746 263.188C239.152 263.188 239.871 262.105 239.902 259.941V259.543C239.902 257.27 239.176 256.133 237.723 256.133C236.402 256.133 235.688 257.113 235.578 259.074L235.566 259.789ZM245.129 259.566C245.129 258.285 245.34 257.152 245.762 256.168C246.184 255.184 246.789 254.426 247.578 253.895C248.367 253.355 249.285 253.086 250.332 253.086C251.652 253.086 252.684 253.531 253.426 254.422L253.566 253.32H257.152V265.52C257.152 266.637 256.891 267.605 256.367 268.426C255.852 269.254 255.102 269.887 254.117 270.324C253.133 270.77 251.992 270.992 250.695 270.992C249.766 270.992 248.863 270.816 247.988 270.465C247.121 270.113 246.457 269.656 245.996 269.094L247.648 266.773C248.383 267.641 249.352 268.074 250.555 268.074C252.305 268.074 253.18 267.176 253.18 265.379V264.98C252.422 265.816 251.465 266.234 250.309 266.234C248.762 266.234 247.512 265.645 246.559 264.465C245.605 263.277 245.129 261.691 245.129 259.707V259.566ZM249.09 259.812C249.09 260.852 249.285 261.676 249.676 262.285C250.066 262.887 250.613 263.188 251.316 263.188C252.168 263.188 252.789 262.902 253.18 262.332V257C252.797 256.422 252.184 256.133 251.34 256.133C250.637 256.133 250.086 256.449 249.688 257.082C249.289 257.707 249.09 258.617 249.09 259.812ZM280.004 257.82C280.004 259.484 279.695 260.957 279.078 262.238C278.461 263.52 277.582 264.508 276.441 265.203C275.309 265.891 274.016 266.234 272.562 266.234C271.109 266.234 269.82 265.902 268.695 265.238C267.57 264.566 266.691 263.609 266.059 262.367C265.434 261.125 265.105 259.699 265.074 258.09V257.129C265.074 255.457 265.379 253.984 265.988 252.711C266.605 251.43 267.484 250.441 268.625 249.746C269.773 249.051 271.078 248.703 272.539 248.703C273.984 248.703 275.273 249.047 276.406 249.734C277.539 250.422 278.418 251.402 279.043 252.676C279.676 253.941 279.996 255.395 280.004 257.035V257.82ZM275.82 257.105C275.82 255.41 275.535 254.125 274.965 253.25C274.402 252.367 273.594 251.926 272.539 251.926C270.477 251.926 269.387 253.473 269.27 256.566L269.258 257.82C269.258 259.492 269.535 260.777 270.09 261.676C270.645 262.574 271.469 263.023 272.562 263.023C273.602 263.023 274.402 262.582 274.965 261.699C275.527 260.816 275.812 259.547 275.82 257.891V257.105ZM289.496 264.629C288.66 265.699 287.531 266.234 286.109 266.234C284.719 266.234 283.664 265.832 282.945 265.027C282.234 264.215 281.879 263.051 281.879 261.535V253.32H285.828V261.559C285.828 262.645 286.355 263.188 287.41 263.188C288.316 263.188 288.961 262.863 289.344 262.215V253.32H293.316V266H289.613L289.496 264.629ZM300.09 250.168V253.32H302.176V256.062H300.09V261.863C300.09 262.34 300.176 262.672 300.348 262.859C300.52 263.047 300.859 263.141 301.367 263.141C301.758 263.141 302.086 263.117 302.352 263.07V265.895C301.641 266.121 300.898 266.234 300.125 266.234C298.766 266.234 297.762 265.914 297.113 265.273C296.465 264.633 296.141 263.66 296.141 262.355V256.062H294.523V253.32H296.141V250.168H300.09Z" fill="white"/>
</g>
<g filter="url(#filter8_d)">
<path d="M216.691 74.9375L220.5 86.8086L224.297 74.9375H229.711V92H225.586V88.0156L225.984 79.8594L221.859 92H219.141L215.004 79.8477L215.402 88.0156V92H211.289V74.9375H216.691ZM237.223 86.4688L239.332 79.3203H243.562L238.395 94.1211L238.172 94.6602C237.438 96.3008 236.141 97.1211 234.281 97.1211C233.766 97.1211 233.223 97.043 232.652 96.8867V94.0625H233.168C233.723 94.0625 234.145 93.9805 234.434 93.8164C234.73 93.6602 234.949 93.375 235.09 92.9609L235.406 92.1172L231 79.3203H235.219L237.223 86.4688ZM225.258 113.891C224.625 114.594 223.699 115.16 222.48 115.59C221.262 116.02 219.926 116.234 218.473 116.234C216.238 116.234 214.453 115.551 213.117 114.184C211.781 112.816 211.066 110.914 210.973 108.477L210.961 107C210.961 105.32 211.258 103.855 211.852 102.605C212.445 101.348 213.293 100.383 214.395 99.7109C215.504 99.0312 216.785 98.6914 218.238 98.6914C220.363 98.6914 222.012 99.1797 223.184 100.156C224.363 101.125 225.051 102.574 225.246 104.504H221.285C221.145 103.551 220.84 102.871 220.371 102.465C219.902 102.059 219.238 101.855 218.379 101.855C217.348 101.855 216.551 102.293 215.988 103.168C215.426 104.043 215.141 105.293 215.133 106.918V107.949C215.133 109.652 215.422 110.934 216 111.793C216.586 112.645 217.504 113.07 218.754 113.07C219.824 113.07 220.621 112.832 221.145 112.355V109.707H218.285V106.883H225.258V113.891ZM235.02 114.629C234.184 115.699 233.055 116.234 231.633 116.234C230.242 116.234 229.188 115.832 228.469 115.027C227.758 114.215 227.402 113.051 227.402 111.535V103.32H231.352V111.559C231.352 112.645 231.879 113.188 232.934 113.188C233.84 113.188 234.484 112.863 234.867 112.215V103.32H238.84V116H235.137L235.02 114.629ZM245.18 116H241.219V103.32H245.18V116ZM240.984 100.051C240.984 99.4883 241.188 99.0273 241.594 98.668C242 98.3086 242.527 98.1289 243.176 98.1289C243.824 98.1289 244.352 98.3086 244.758 98.668C245.164 99.0273 245.367 99.4883 245.367 100.051C245.367 100.613 245.164 101.074 244.758 101.434C244.352 101.793 243.824 101.973 243.176 101.973C242.527 101.973 242 101.793 241.594 101.434C241.188 101.074 240.984 100.613 240.984 100.051ZM247.125 109.566C247.125 107.559 247.559 105.977 248.426 104.82C249.293 103.664 250.504 103.086 252.059 103.086C253.191 103.086 254.145 103.531 254.918 104.422V98H258.879V116H255.328L255.129 114.641C254.316 115.703 253.285 116.234 252.035 116.234C250.527 116.234 249.332 115.656 248.449 114.5C247.566 113.344 247.125 111.699 247.125 109.566ZM251.074 109.812C251.074 112.062 251.73 113.188 253.043 113.188C253.918 113.188 254.543 112.82 254.918 112.086V107.258C254.559 106.508 253.941 106.133 253.066 106.133C251.848 106.133 251.188 107.117 251.086 109.086L251.074 109.812ZM267.258 116.234C265.312 116.234 263.738 115.656 262.535 114.5C261.332 113.336 260.73 111.824 260.73 109.965V109.637C260.73 108.34 260.969 107.195 261.445 106.203C261.93 105.211 262.633 104.445 263.555 103.906C264.477 103.359 265.57 103.086 266.836 103.086C268.617 103.086 270.023 103.641 271.055 104.75C272.086 105.852 272.602 107.391 272.602 109.367V110.902H264.75C264.891 111.613 265.199 112.172 265.676 112.578C266.152 112.984 266.77 113.188 267.527 113.188C268.777 113.188 269.754 112.75 270.457 111.875L272.262 114.008C271.77 114.688 271.07 115.23 270.164 115.637C269.266 116.035 268.297 116.234 267.258 116.234ZM266.812 106.133C265.656 106.133 264.969 106.898 264.75 108.43H268.734V108.125C268.75 107.492 268.59 107.004 268.254 106.66C267.918 106.309 267.438 106.133 266.812 106.133ZM280.84 112.438C280.84 112.102 280.664 111.832 280.312 111.629C279.961 111.426 279.293 111.215 278.309 110.996C277.324 110.777 276.512 110.492 275.871 110.141C275.23 109.781 274.742 109.348 274.406 108.84C274.07 108.332 273.902 107.75 273.902 107.094C273.902 105.93 274.383 104.973 275.344 104.223C276.305 103.465 277.562 103.086 279.117 103.086C280.789 103.086 282.133 103.465 283.148 104.223C284.164 104.98 284.672 105.977 284.672 107.211H280.711C280.711 106.195 280.176 105.688 279.105 105.688C278.691 105.688 278.344 105.805 278.062 106.039C277.781 106.266 277.641 106.551 277.641 106.895C277.641 107.246 277.812 107.531 278.156 107.75C278.5 107.969 279.047 108.148 279.797 108.289C280.555 108.43 281.219 108.598 281.789 108.793C283.695 109.449 284.648 110.625 284.648 112.32C284.648 113.477 284.133 114.418 283.102 115.145C282.078 115.871 280.75 116.234 279.117 116.234C278.031 116.234 277.062 116.039 276.211 115.648C275.359 115.258 274.695 114.727 274.219 114.055C273.742 113.383 273.504 112.676 273.504 111.934H277.195C277.211 112.52 277.406 112.949 277.781 113.223C278.156 113.488 278.637 113.621 279.223 113.621C279.762 113.621 280.164 113.512 280.43 113.293C280.703 113.074 280.84 112.789 280.84 112.438Z" fill="white"/>
</g>
<path d="M60.5 224.805H51.5V233.484H48.5V224.805H39.5V221.912H48.5V213.233H51.5V221.912H60.5V224.805Z" fill="white"/>
<path d="M226.351 231.539L227.938 233.125L233.562 227.5L227.938 221.875L226.351 223.461L229.254 226.375H218.375V228.625H229.254L226.351 231.539ZM236.375 217.375H220.625C219.376 217.375 218.375 218.387 218.375 219.625V224.125H220.625V219.625H236.375V235.375H220.625V230.875H218.375V235.375C218.375 236.613 219.376 237.625 220.625 237.625H236.375C237.613 237.625 238.625 236.613 238.625 235.375V219.625C238.625 218.387 237.613 217.375 236.375 217.375Z" fill="white"/>
<path d="M222 46C216.48 46 212 50.48 212 56C212 61.52 216.48 66 222 66C227.52 66 232 61.52 232 56C232 50.48 227.52 46 222 46ZM222 49C223.66 49 225 50.34 225 52C225 53.66 223.66 55 222 55C220.34 55 219 53.66 219 52C219 50.34 220.34 49 222 49ZM222 63.2C219.5 63.2 217.29 61.92 216 59.98C216.03 57.99 220 56.9 222 56.9C223.99 56.9 227.97 57.99 228 59.98C226.71 61.92 224.5 63.2 222 63.2Z" fill="white"/>
<path d="M66.8594 55.2969C66.9531 55.5156 67 55.75 67 56C67 56.25 66.9531 56.4844 66.8594 56.7031C65.5469 59.2031 63.7031 61.2188 61.3281 62.75C58.9531 64.25 56.3438 65 53.5 65C51.625 65 49.8125 64.6562 48.0625 63.9688C46.3438 63.25 44.8125 62.2812 43.4688 61.0625C42.125 59.8125 41.0156 58.3594 40.1406 56.7031C40.0469 56.4844 40 56.25 40 56C40 55.75 40.0469 55.5156 40.1406 55.2969C41.4531 52.7969 43.2969 50.7969 45.6719 49.2969C48.0469 47.7656 50.6562 47 53.5 47C56.3438 47 58.9531 47.7656 61.3281 49.2969C63.7031 50.7969 65.5469 52.7969 66.8594 55.2969ZM53.5 62.75C55.375 62.75 56.9688 62.0938 58.2812 60.7812C59.5938 59.4688 60.25 57.875 60.25 56C60.25 54.125 59.5938 52.5312 58.2812 51.2188C56.9688 49.9062 55.375 49.25 53.5 49.25C51.625 49.25 50.0312 49.9062 48.7188 51.2188C47.4062 52.5312 46.75 54.125 46.75 56C46.75 57.875 47.4062 59.4688 48.7188 60.7812C50.0312 62.0938 51.625 62.75 53.5 62.75ZM53.5 51.5C54.75 51.5 55.8125 51.9375 56.6875 52.8125C57.5625 53.6875 58 54.75 58 56C58 57.2188 57.5625 58.2812 56.6875 59.1875C55.8125 60.0625 54.75 60.5 53.5 60.5C52.2812 60.5 51.2188 60.0625 50.3125 59.1875C49.4375 58.2812 49 57.2188 49 56C49 55.5938 49.0625 55.2031 49.1875 54.8281C49.5625 55.1094 50 55.25 50.5 55.25C51.125 55.25 51.6562 55.0312 52.0938 54.5938C52.5312 54.1562 52.75 53.625 52.75 53C52.75 52.5 52.6094 52.0625 52.3281 51.6875C52.7031 51.5625 53.0938 51.5 53.5 51.5Z" fill="white"/>
<defs>
<filter id="filter0_d" x="0" y="321" width="306" height="75" filterUnits="userSpaceOnUse" color-interpolation-filters="sRGB">
<feFlood flood-opacity="0" result="BackgroundImageFix"/>
<feColorMatrix in="SourceAlpha" type="matrix" values="0 0 0 0 0 0 0 0 0 0 0 0 0 0 0 0 0 0 127 0"/>
<feOffset dy="4"/>
<feGaussianBlur stdDeviation="7.5"/>
<feColorMatrix type="matrix" values="0 0 0 0 0 0 0 0 0 0 0 0 0 0 0 0 0 0 0.18 0"/>
<feBlend mode="normal" in2="BackgroundImageFix" result="effect1_dropShadow"/>
<feBlend mode="normal" in="SourceGraphic" in2="effect1_dropShadow" result="shape"/>
</filter>
<filter id="filter1_d" x="0" y="0" width="184" height="174" filterUnits="userSpaceOnUse" color-interpolation-filters="sRGB">
<feFlood flood-opacity="0" result="BackgroundImageFix"/>
<feColorMatrix in="SourceAlpha" type="matrix" values="0 0 0 0 0 0 0 0 0 0 0 0 0 0 0 0 0 0 127 0"/>
<feOffset dy="4"/>
<feGaussianBlur stdDeviation="7.5"/>
<feColorMatrix type="matrix" values="0 0 0 0 0 0 0 0 0 0 0 0 0 0 0 0 0 0 0.18 0"/>
<feBlend mode="normal" in2="BackgroundImageFix" result="effect1_dropShadow"/>
<feBlend mode="normal" in="SourceGraphic" in2="effect1_dropShadow" result="shape"/>
</filter>
<filter id="filter2_d" x="171" y="0" width="184" height="174" filterUnits="userSpaceOnUse" color-interpolation-filters="sRGB">
<feFlood flood-opacity="0" result="BackgroundImageFix"/>
<feColorMatrix in="SourceAlpha" type="matrix" values="0 0 0 0 0 0 0 0 0 0 0 0 0 0 0 0 0 0 127 0"/>
<feOffset dy="4"/>
<feGaussianBlur stdDeviation="7.5"/>
<feColorMatrix type="matrix" values="0 0 0 0 0 0 0 0 0 0 0 0 0 0 0 0 0 0 0.18 0"/>
<feBlend mode="normal" in2="BackgroundImageFix" result="effect1_dropShadow"/>
<feBlend mode="normal" in="SourceGraphic" in2="effect1_dropShadow" result="shape"/>
</filter>
<filter id="filter3_d" x="172" y="161" width="184" height="174" filterUnits="userSpaceOnUse" color-interpolation-filters="sRGB">
<feFlood flood-opacity="0" result="BackgroundImageFix"/>
<feColorMatrix in="SourceAlpha" type="matrix" values="0 0 0 0 0 0 0 0 0 0 0 0 0 0 0 0 0 0 127 0"/>
<feOffset dy="4"/>
<feGaussianBlur stdDeviation="7.5"/>
<feColorMatrix type="matrix" values="0 0 0 0 0 0 0 0 0 0 0 0 0 0 0 0 0 0 0.18 0"/>
<feBlend mode="normal" in2="BackgroundImageFix" result="effect1_dropShadow"/>
<feBlend mode="normal" in="SourceGraphic" in2="effect1_dropShadow" result="shape"/>
</filter>
<filter id="filter4_d" x="1" y="161" width="184" height="174" filterUnits="userSpaceOnUse" color-interpolation-filters="sRGB">
<feFlood flood-opacity="0" result="BackgroundImageFix"/>
<feColorMatrix in="SourceAlpha" type="matrix" values="0 0 0 0 0 0 0 0 0 0 0 0 0 0 0 0 0 0 127 0"/>
<feOffset dy="4"/>
<feGaussianBlur stdDeviation="7.5"/>
<feColorMatrix type="matrix" values="0 0 0 0 0 0 0 0 0 0 0 0 0 0 0 0 0 0 0.18 0"/>
<feBlend mode="normal" in2="BackgroundImageFix" result="effect1_dropShadow"/>
<feBlend mode="normal" in="SourceGraphic" in2="effect1_dropShadow" result="shape"/>
</filter>
<filter id="filter5_d" x="24.9609" y="59.9375" width="109.008" height="71.2969" filterUnits="userSpaceOnUse" color-interpolation-filters="sRGB">
<feFlood flood-opacity="0" result="BackgroundImageFix"/>
<feColorMatrix in="SourceAlpha" type="matrix" values="0 0 0 0 0 0 0 0 0 0 0 0 0 0 0 0 0 0 127 0"/>
<feOffset/>
<feGaussianBlur stdDeviation="7.5"/>
<feColorMatrix type="matrix" values="0 0 0 0 0 0 0 0 0 0 0 0 0 0 0 0 0 0 0.2 0"/>
<feBlend mode="normal" in2="BackgroundImageFix" result="effect1_dropShadow"/>
<feBlend mode="normal" in="SourceGraphic" in2="effect1_dropShadow" result="shape"/>
</filter>
<filter id="filter6_d" x="23.9648" y="222" width="95.7656" height="72.2344" filterUnits="userSpaceOnUse" color-interpolation-filters="sRGB">
<feFlood flood-opacity="0" result="BackgroundImageFix"/>
<feColorMatrix in="SourceAlpha" type="matrix" values="0 0 0 0 0 0 0 0 0 0 0 0 0 0 0 0 0 0 127 0"/>
<feOffset/>
<feGaussianBlur stdDeviation="7.5"/>
<feColorMatrix type="matrix" values="0 0 0 0 0 0 0 0 0 0 0 0 0 0 0 0 0 0 0.2 0"/>
<feBlend mode="normal" in2="BackgroundImageFix" result="effect1_dropShadow"/>
<feBlend mode="normal" in="SourceGraphic" in2="effect1_dropShadow" result="shape"/>
</filter>
<filter id="filter7_d" x="204.289" y="233.703" width="113.062" height="52.2891" filterUnits="userSpaceOnUse" color-interpolation-filters="sRGB">
<feFlood flood-opacity="0" result="BackgroundImageFix"/>
<feColorMatrix in="SourceAlpha" type="matrix" values="0 0 0 0 0 0 0 0 0 0 0 0 0 0 0 0 0 0 127 0"/>
<feOffset/>
<feGaussianBlur stdDeviation="7.5"/>
<feColorMatrix type="matrix" values="0 0 0 0 0 0 0 0 0 0 0 0 0 0 0 0 0 0 0.2 0"/>
<feBlend mode="normal" in2="BackgroundImageFix" result="effect1_dropShadow"/>
<feBlend mode="normal" in="SourceGraphic" in2="effect1_dropShadow" result="shape"/>
</filter>
<filter id="filter8_d" x="195.961" y="59.9375" width="103.711" height="71.2969" filterUnits="userSpaceOnUse" color-interpolation-filters="sRGB">
<feFlood flood-opacity="0" result="BackgroundImageFix"/>
<feColorMatrix in="SourceAlpha" type="matrix" values="0 0 0 0 0 0 0 0 0 0 0 0 0 0 0 0 0 0 127 0"/>
<feOffset/>
<feGaussianBlur stdDeviation="7.5"/>
<feColorMatrix type="matrix" values="0 0 0 0 0 0 0 0 0 0 0 0 0 0 0 0 0 0 0.2 0"/>
<feBlend mode="normal" in2="BackgroundImageFix" result="effect1_dropShadow"/>
<feBlend mode="normal" in="SourceGraphic" in2="effect1_dropShadow" result="shape"/>
</filter>
<linearGradient id="paint0_linear" x1="139" y1="332" x2="153" y2="377" gradientUnits="userSpaceOnUse">
<stop stop-color="#FF8832"/>
<stop offset="1" stop-color="#E36F1B"/>
</linearGradient>
<linearGradient id="paint1_linear" x1="81.7006" y1="11" x2="110.074" y2="155.014" gradientUnits="userSpaceOnUse">
<stop stop-color="#56D85C"/>
<stop offset="1" stop-color="#35A93A"/>
</linearGradient>
<linearGradient id="paint2_linear" x1="250.248" y1="11" x2="286.451" y2="155.023" gradientUnits="userSpaceOnUse">
<stop stop-color="#3AB6EC"/>
<stop offset="1" stop-color="#2D9BCA"/>
</linearGradient>
<linearGradient id="paint3_linear" x1="250.268" y1="172" x2="280.598" y2="316.016" gradientUnits="userSpaceOnUse">
<stop stop-color="#EE4B4B"/>
<stop offset="1" stop-color="#C03939"/>
</linearGradient>
<linearGradient id="paint4_linear" x1="83.375" y1="172" x2="110.271" y2="315.991" gradientUnits="userSpaceOnUse">
<stop stop-color="#F7C71F"/>
<stop offset="1" stop-color="#DFB417"/>
</linearGradient>
</defs>
</svg>
