<svg width="502" height="437" viewBox="0 0 502 437" fill="none" xmlns="http://www.w3.org/2000/svg">
<g filter="url(#filter0_d)">
<path d="M18.4932 369.233H15.459V376H11.6504V357.516H18.5186C20.7021 357.516 22.3864 358.002 23.5713 358.976C24.7562 359.949 25.3486 361.324 25.3486 363.102C25.3486 364.363 25.0736 365.416 24.5234 366.263C23.9818 367.101 23.1566 367.769 22.0479 368.269L26.0469 375.822V376H21.959L18.4932 369.233ZM15.459 366.148H18.5312C19.4876 366.148 20.2282 365.907 20.7529 365.425C21.2777 364.934 21.54 364.261 21.54 363.406C21.54 362.535 21.2904 361.849 20.791 361.35C20.3001 360.85 19.5426 360.601 18.5186 360.601H15.459V366.148ZM27.8434 369.005C27.8434 367.642 28.1057 366.428 28.6305 365.361C29.1552 364.295 29.9085 363.47 30.8902 362.886C31.8805 362.302 33.0273 362.01 34.3307 362.01C36.1842 362.01 37.6949 362.577 38.8629 363.711C40.0393 364.845 40.6952 366.385 40.8307 368.332L40.8561 369.271C40.8561 371.379 40.2678 373.072 39.0914 374.35C37.915 375.619 36.3365 376.254 34.3561 376.254C32.3756 376.254 30.7929 375.619 29.608 374.35C28.4316 373.08 27.8434 371.354 27.8434 369.17V369.005ZM31.5123 369.271C31.5123 370.575 31.7577 371.574 32.2486 372.268C32.7395 372.953 33.442 373.296 34.3561 373.296C35.2447 373.296 35.9387 372.957 36.4381 372.28C36.9374 371.595 37.1871 370.503 37.1871 369.005C37.1871 367.727 36.9374 366.737 36.4381 366.034C35.9387 365.332 35.2363 364.98 34.3307 364.98C33.4335 364.98 32.7395 365.332 32.2486 366.034C31.7577 366.728 31.5123 367.807 31.5123 369.271ZM55.8937 369.259C55.8937 371.459 55.424 373.177 54.4846 374.413C53.5451 375.64 52.2333 376.254 50.549 376.254C49.0594 376.254 47.8703 375.683 46.9816 374.54L46.8166 376H43.5158V356.5H47.1848V363.495C48.0311 362.505 49.1441 362.01 50.5236 362.01C52.1994 362.01 53.5113 362.628 54.4592 363.863C55.4156 365.09 55.8937 366.821 55.8937 369.056V369.259ZM52.2248 368.992C52.2248 367.604 52.0048 366.593 51.5646 365.958C51.1245 365.315 50.4686 364.993 49.5969 364.993C48.4289 364.993 47.6249 365.471 47.1848 366.428V371.849C47.6333 372.813 48.4458 373.296 49.6223 373.296C50.8072 373.296 51.5858 372.712 51.9582 371.544C52.1359 370.985 52.2248 370.135 52.2248 368.992ZM57.9949 369.005C57.9949 367.642 58.2573 366.428 58.782 365.361C59.3068 364.295 60.06 363.47 61.0418 362.886C62.032 362.302 63.1788 362.01 64.4822 362.01C66.3357 362.01 67.8465 362.577 69.0145 363.711C70.1909 364.845 70.8468 366.385 70.9822 368.332L71.0076 369.271C71.0076 371.379 70.4194 373.072 69.243 374.35C68.0665 375.619 66.4881 376.254 64.5076 376.254C62.5271 376.254 60.9445 375.619 59.7596 374.35C58.5831 373.08 57.9949 371.354 57.9949 369.17V369.005ZM61.6639 369.271C61.6639 370.575 61.9093 371.574 62.4002 372.268C62.8911 372.953 63.5936 373.296 64.5076 373.296C65.3963 373.296 66.0903 372.957 66.5896 372.28C67.089 371.595 67.3387 370.503 67.3387 369.005C67.3387 367.727 67.089 366.737 66.5896 366.034C66.0903 365.332 65.3878 364.98 64.4822 364.98C63.5851 364.98 62.8911 365.332 62.4002 366.034C61.9093 366.728 61.6639 367.807 61.6639 369.271ZM78.06 358.887V362.264H80.4086V364.955H78.06V371.811C78.06 372.318 78.1573 372.682 78.352 372.902C78.5466 373.122 78.919 373.232 79.4691 373.232C79.8754 373.232 80.2351 373.203 80.5482 373.144V375.924C79.8288 376.144 79.0883 376.254 78.3266 376.254C75.7536 376.254 74.4418 374.955 74.391 372.356V364.955H72.3852V362.264H74.391V358.887H78.06ZM81.9004 369.005C81.9004 367.642 82.1628 366.428 82.6875 365.361C83.2122 364.295 83.9655 363.47 84.9473 362.886C85.9375 362.302 87.0843 362.01 88.3877 362.01C90.2412 362.01 91.752 362.577 92.9199 363.711C94.0964 364.845 94.7523 366.385 94.8877 368.332L94.9131 369.271C94.9131 371.379 94.3249 373.072 93.1484 374.35C91.972 375.619 90.3936 376.254 88.4131 376.254C86.4326 376.254 84.8499 375.619 83.665 374.35C82.4886 373.08 81.9004 371.354 81.9004 369.17V369.005ZM85.5693 369.271C85.5693 370.575 85.8148 371.574 86.3057 372.268C86.7965 372.953 87.499 373.296 88.4131 373.296C89.3018 373.296 89.9958 372.957 90.4951 372.28C90.9945 371.595 91.2441 370.503 91.2441 369.005C91.2441 367.727 90.9945 366.737 90.4951 366.034C89.9958 365.332 89.2933 364.98 88.3877 364.98C87.4906 364.98 86.7965 365.332 86.3057 366.034C85.8148 366.728 85.5693 367.807 85.5693 369.271ZM104.689 376V357.516H111.163C113.406 357.516 115.107 357.947 116.267 358.811C117.426 359.665 118.006 360.922 118.006 362.581C118.006 363.487 117.773 364.286 117.308 364.98C116.842 365.666 116.195 366.17 115.365 366.491C116.313 366.728 117.058 367.206 117.6 367.926C118.15 368.645 118.425 369.525 118.425 370.566C118.425 372.344 117.858 373.689 116.724 374.604C115.59 375.518 113.973 375.983 111.874 376H104.689ZM108.497 367.951V372.94H111.76C112.657 372.94 113.355 372.729 113.855 372.306C114.363 371.874 114.616 371.282 114.616 370.528C114.616 368.836 113.74 367.977 111.988 367.951H108.497ZM108.497 365.26H111.316C113.237 365.226 114.197 364.46 114.197 362.962C114.197 362.124 113.952 361.523 113.461 361.159C112.979 360.787 112.213 360.601 111.163 360.601H108.497V365.26ZM120.882 369.005C120.882 367.642 121.144 366.428 121.669 365.361C122.193 364.295 122.947 363.47 123.929 362.886C124.919 362.302 126.066 362.01 127.369 362.01C129.222 362.01 130.733 362.577 131.901 363.711C133.078 364.845 133.734 366.385 133.869 368.332L133.894 369.271C133.894 371.379 133.306 373.072 132.13 374.35C130.953 375.619 129.375 376.254 127.394 376.254C125.414 376.254 123.831 375.619 122.646 374.35C121.47 373.08 120.882 371.354 120.882 369.17V369.005ZM124.551 369.271C124.551 370.575 124.796 371.574 125.287 372.268C125.778 372.953 126.48 373.296 127.394 373.296C128.283 373.296 128.977 372.957 129.476 372.28C129.976 371.595 130.225 370.503 130.225 369.005C130.225 367.727 129.976 366.737 129.476 366.034C128.977 365.332 128.275 364.98 127.369 364.98C126.472 364.98 125.778 365.332 125.287 366.034C124.796 366.728 124.551 367.807 124.551 369.271ZM140.426 376H136.745V356.5H140.426V376ZM143.289 369.03C143.289 366.889 143.767 365.184 144.724 363.914C145.688 362.645 147.005 362.01 148.672 362.01C150.009 362.01 151.114 362.509 151.985 363.508V356.5H155.667V376H152.354L152.176 374.54C151.262 375.683 150.085 376.254 148.646 376.254C147.03 376.254 145.731 375.619 144.749 374.35C143.776 373.072 143.289 371.299 143.289 369.03ZM146.958 369.297C146.958 370.583 147.182 371.569 147.631 372.255C148.079 372.94 148.731 373.283 149.586 373.283C150.72 373.283 151.52 372.805 151.985 371.849V366.428C151.528 365.471 150.737 364.993 149.611 364.993C147.842 364.993 146.958 366.428 146.958 369.297Z" fill="#272D2D"/>
</g>
<g filter="url(#filter1_d)">
<path d="M23.1699 403.97H18.3789V417H15.1562V403.97H10.4297V401.359H23.1699V403.97ZM28.2428 406.645C29.0663 405.656 30.1012 405.162 31.3473 405.162C33.8681 405.162 35.1464 406.627 35.1822 409.556V417H32.0777V409.642C32.0777 408.976 31.9345 408.485 31.648 408.17C31.3616 407.848 30.8854 407.687 30.2193 407.687C29.3098 407.687 28.651 408.037 28.2428 408.739V417H25.1383V400.5H28.2428V406.645ZM43.2736 417.215C41.5692 417.215 40.1799 416.692 39.1057 415.646C38.0386 414.601 37.5051 413.208 37.5051 411.468V411.167C37.5051 410 37.7307 408.958 38.1818 408.041C38.633 407.117 39.2704 406.408 40.0939 405.914C40.9247 405.413 41.87 405.162 42.9299 405.162C44.5197 405.162 45.7694 405.663 46.6789 406.666C47.5956 407.669 48.0539 409.09 48.0539 410.931V412.198H40.6525C40.7528 412.957 41.0536 413.566 41.5549 414.024C42.0633 414.483 42.7043 414.712 43.4777 414.712C44.6737 414.712 45.6083 414.279 46.2814 413.412L47.8068 415.12C47.3413 415.779 46.7111 416.295 45.9162 416.667C45.1213 417.032 44.2404 417.215 43.2736 417.215ZM42.9191 407.676C42.3033 407.676 41.802 407.883 41.4152 408.299C41.0357 408.714 40.7922 409.309 40.6848 410.082H45.0031V409.835C44.9888 409.147 44.8026 408.618 44.4445 408.245C44.0865 407.866 43.578 407.676 42.9191 407.676ZM55.6215 411.081C55.6215 409.255 56.0261 407.812 56.8354 406.752C57.6518 405.692 58.7689 405.162 60.1869 405.162C61.433 405.162 62.4249 405.638 63.1625 406.591L63.3666 405.377H66.0951V421.469H62.9799V416.001C62.2637 416.81 61.3256 417.215 60.1654 417.215C58.7833 417.215 57.6804 416.678 56.8568 415.604C56.0333 414.529 55.6215 413.022 55.6215 411.081ZM58.726 411.307C58.726 412.417 58.9193 413.262 59.3061 413.842C59.6999 414.422 60.2514 414.712 60.9604 414.712C61.9128 414.712 62.586 414.332 62.9799 413.573V408.771C62.5932 408.041 61.9271 407.676 60.9818 407.676C60.2657 407.676 59.7107 407.966 59.3168 408.546C58.9229 409.126 58.726 410.046 58.726 411.307ZM75.9053 415.818C75.139 416.749 74.0791 417.215 72.7256 417.215C71.4795 417.215 70.527 416.857 69.8682 416.141C69.2165 415.424 68.8835 414.375 68.8691 412.993V405.377H71.9736V412.886C71.9736 414.096 72.5251 414.701 73.6279 414.701C74.6807 414.701 75.404 414.336 75.7979 413.605V405.377H78.9131V417H75.9912L75.9053 415.818ZM84.9313 417H81.816V405.377H84.9313V417ZM81.6334 402.369C81.6334 401.904 81.7874 401.521 82.0953 401.22C82.4104 400.919 82.8365 400.769 83.3736 400.769C83.9036 400.769 84.3261 400.919 84.6412 401.22C84.9563 401.521 85.1139 401.904 85.1139 402.369C85.1139 402.842 84.9527 403.229 84.6305 403.529C84.3154 403.83 83.8964 403.98 83.3736 403.98C82.8508 403.98 82.4283 403.83 82.1061 403.529C81.791 403.229 81.6334 402.842 81.6334 402.369ZM92.7326 414.712C93.3055 414.712 93.771 414.554 94.1291 414.239C94.4872 413.924 94.6734 413.505 94.6877 412.982H97.5988C97.5917 413.77 97.3768 414.493 96.9543 415.152C96.5318 415.804 95.9517 416.312 95.2141 416.678C94.4836 417.036 93.6744 417.215 92.7863 417.215C91.1249 417.215 89.8143 416.688 88.8547 415.636C87.8951 414.576 87.4152 413.115 87.4152 411.253V411.049C87.4152 409.258 87.8915 407.83 88.8439 406.763C89.7964 405.696 91.1034 405.162 92.7648 405.162C94.2186 405.162 95.3824 405.577 96.2561 406.408C97.1369 407.232 97.5845 408.331 97.5988 409.706H94.6877C94.6734 409.104 94.4872 408.618 94.1291 408.245C93.771 407.866 93.2984 407.676 92.7111 407.676C91.9878 407.676 91.44 407.941 91.0676 408.471C90.7023 408.993 90.5197 409.846 90.5197 411.027V411.35C90.5197 412.546 90.7023 413.405 91.0676 413.928C91.4328 414.451 91.9878 414.712 92.7326 414.712ZM103.993 412.338L102.876 413.455V417H99.7713V400.5H102.876V409.642L103.477 408.868L106.453 405.377H110.18L105.98 410.222L110.546 417H106.979L103.993 412.338ZM128.275 411.296C128.275 413.158 127.878 414.612 127.083 415.657C126.288 416.696 125.178 417.215 123.753 417.215C122.493 417.215 121.486 416.731 120.734 415.765L120.595 417H117.802V400.5H120.906V406.419C121.622 405.581 122.564 405.162 123.731 405.162C125.149 405.162 126.259 405.685 127.062 406.73C127.871 407.769 128.275 409.233 128.275 411.124V411.296ZM125.171 411.07C125.171 409.896 124.985 409.04 124.612 408.503C124.24 407.959 123.685 407.687 122.947 407.687C121.959 407.687 121.279 408.091 120.906 408.9V413.487C121.286 414.304 121.973 414.712 122.969 414.712C123.971 414.712 124.63 414.218 124.945 413.229C125.096 412.757 125.171 412.037 125.171 411.07ZM137.129 408.288C136.707 408.231 136.335 408.202 136.012 408.202C134.838 408.202 134.068 408.6 133.703 409.395V417H130.598V405.377H133.531L133.617 406.763C134.24 405.696 135.103 405.162 136.206 405.162C136.549 405.162 136.872 405.209 137.172 405.302L137.129 408.288ZM138.163 411.081C138.163 409.928 138.385 408.9 138.829 407.998C139.273 407.096 139.911 406.397 140.741 405.903C141.579 405.409 142.55 405.162 143.653 405.162C145.221 405.162 146.499 405.642 147.488 406.602C148.483 407.561 149.038 408.865 149.153 410.512L149.174 411.307C149.174 413.09 148.676 414.522 147.681 415.604C146.685 416.678 145.35 417.215 143.674 417.215C141.998 417.215 140.659 416.678 139.656 415.604C138.661 414.529 138.163 413.068 138.163 411.221V411.081ZM141.268 411.307C141.268 412.41 141.475 413.255 141.891 413.842C142.306 414.422 142.901 414.712 143.674 414.712C144.426 414.712 145.013 414.425 145.436 413.853C145.858 413.272 146.07 412.349 146.07 411.081C146.07 410 145.858 409.162 145.436 408.567C145.013 407.973 144.419 407.676 143.653 407.676C142.893 407.676 142.306 407.973 141.891 408.567C141.475 409.155 141.268 410.068 141.268 411.307ZM161.595 412.778L163.12 405.377H166.117L163.152 417H160.553L158.35 409.685L156.148 417H153.559L150.595 405.377H153.592L155.106 412.768L157.233 405.377H159.478L161.595 412.778ZM170.921 405.377L171.018 406.72C171.849 405.681 172.962 405.162 174.359 405.162C175.591 405.162 176.507 405.524 177.109 406.247C177.71 406.97 178.018 408.052 178.033 409.491V417H174.928V409.566C174.928 408.908 174.785 408.431 174.498 408.138C174.212 407.837 173.736 407.687 173.07 407.687C172.196 407.687 171.541 408.059 171.104 408.804V417H167.999V405.377H170.921ZM187.523 417V407.654H185.794V405.377H187.523V404.389C187.523 403.085 187.895 402.076 188.64 401.359C189.392 400.636 190.441 400.274 191.788 400.274C192.217 400.274 192.744 400.346 193.367 400.489L193.335 402.896C193.077 402.831 192.762 402.799 192.389 402.799C191.222 402.799 190.638 403.347 190.638 404.442V405.377H192.948V407.654H190.638V417H187.523ZM194.476 411.081C194.476 409.928 194.698 408.9 195.142 407.998C195.586 407.096 196.223 406.397 197.054 405.903C197.892 405.409 198.862 405.162 199.965 405.162C201.533 405.162 202.812 405.642 203.8 406.602C204.795 407.561 205.35 408.865 205.465 410.512L205.487 411.307C205.487 413.09 204.989 414.522 203.993 415.604C202.998 416.678 201.662 417.215 199.987 417.215C198.311 417.215 196.972 416.678 195.969 415.604C194.974 414.529 194.476 413.068 194.476 411.221V411.081ZM197.58 411.307C197.58 412.41 197.788 413.255 198.203 413.842C198.619 414.422 199.213 414.712 199.987 414.712C200.738 414.712 201.326 414.425 201.748 413.853C202.171 413.272 202.382 412.349 202.382 411.081C202.382 410 202.171 409.162 201.748 408.567C201.326 407.973 200.731 407.676 199.965 407.676C199.206 407.676 198.619 407.973 198.203 408.567C197.788 409.155 197.58 410.068 197.58 411.307ZM211.988 408.847L213.943 405.377H217.262L213.954 411.07L217.402 417H214.072L211.999 413.348L209.936 417H206.596L210.044 411.07L206.746 405.377H210.076L211.988 408.847ZM228.321 405.377V417.634C228.321 418.916 227.981 419.911 227.301 420.62C226.62 421.336 225.639 421.694 224.357 421.694C223.82 421.694 223.308 421.633 222.821 421.512V419.052C223.194 419.116 223.52 419.148 223.799 419.148C224.737 419.148 225.206 418.651 225.206 417.655V405.377H228.321ZM224.959 402.369C224.959 401.904 225.113 401.521 225.421 401.22C225.736 400.919 226.162 400.769 226.699 400.769C227.236 400.769 227.659 400.919 227.967 401.22C228.282 401.521 228.439 401.904 228.439 402.369C228.439 402.842 228.278 403.229 227.956 403.529C227.641 403.83 227.222 403.98 226.699 403.98C226.176 403.98 225.754 403.83 225.432 403.529C225.117 403.229 224.959 402.842 224.959 402.369ZM238.11 415.818C237.344 416.749 236.284 417.215 234.93 417.215C233.684 417.215 232.732 416.857 232.073 416.141C231.421 415.424 231.088 414.375 231.074 412.993V405.377H234.178V412.886C234.178 414.096 234.73 414.701 235.833 414.701C236.885 414.701 237.609 414.336 238.003 413.605V405.377H241.118V417H238.196L238.11 415.818ZM246.771 405.377L246.867 406.677C247.691 405.667 248.805 405.162 250.208 405.162C251.705 405.162 252.733 405.753 253.291 406.935C254.108 405.753 255.271 405.162 256.782 405.162C258.043 405.162 258.981 405.531 259.597 406.269C260.213 406.999 260.521 408.102 260.521 409.577V417H257.405V409.588C257.405 408.929 257.277 408.449 257.019 408.148C256.761 407.84 256.306 407.687 255.654 407.687C254.724 407.687 254.079 408.131 253.721 409.019L253.732 417H250.627V409.599C250.627 408.925 250.495 408.438 250.23 408.138C249.965 407.837 249.514 407.687 248.876 407.687C247.995 407.687 247.358 408.052 246.964 408.782V417H243.86V405.377H246.771ZM273.779 411.296C273.779 413.086 273.371 414.522 272.554 415.604C271.745 416.678 270.65 417.215 269.267 417.215C268.093 417.215 267.144 416.807 266.421 415.99V421.469H263.316V405.377H266.195L266.303 406.516C267.054 405.613 268.036 405.162 269.246 405.162C270.678 405.162 271.792 405.692 272.587 406.752C273.382 407.812 273.779 409.273 273.779 411.135V411.296ZM270.675 411.07C270.675 409.989 270.481 409.155 270.095 408.567C269.715 407.98 269.16 407.687 268.429 407.687C267.456 407.687 266.786 408.059 266.421 408.804V413.562C266.8 414.329 267.477 414.712 268.451 414.712C269.933 414.712 270.675 413.498 270.675 411.07ZM281.462 417.215C279.758 417.215 278.369 416.692 277.294 415.646C276.227 414.601 275.694 413.208 275.694 411.468V411.167C275.694 410 275.919 408.958 276.371 408.041C276.822 407.117 277.459 406.408 278.283 405.914C279.113 405.413 280.059 405.162 281.119 405.162C282.708 405.162 283.958 405.663 284.868 406.666C285.784 407.669 286.243 409.09 286.243 410.931V412.198H278.841C278.941 412.957 279.242 413.566 279.744 414.024C280.252 414.483 280.893 414.712 281.666 414.712C282.862 414.712 283.797 414.279 284.47 413.412L285.996 415.12C285.53 415.779 284.9 416.295 284.105 416.667C283.31 417.032 282.429 417.215 281.462 417.215ZM281.108 407.676C280.492 407.676 279.991 407.883 279.604 408.299C279.224 408.714 278.981 409.309 278.873 410.082H283.192V409.835C283.177 409.147 282.991 408.618 282.633 408.245C282.275 407.866 281.767 407.676 281.108 407.676ZM287.932 411.103C287.932 409.291 288.336 407.848 289.146 406.773C289.962 405.699 291.076 405.162 292.486 405.162C293.618 405.162 294.552 405.585 295.29 406.43V400.5H298.405V417H295.602L295.451 415.765C294.678 416.731 293.682 417.215 292.465 417.215C291.097 417.215 289.998 416.678 289.167 415.604C288.343 414.522 287.932 413.022 287.932 411.103ZM291.036 411.328C291.036 412.417 291.226 413.251 291.605 413.831C291.985 414.411 292.536 414.701 293.26 414.701C294.219 414.701 294.896 414.297 295.29 413.487V408.9C294.903 408.091 294.234 407.687 293.281 407.687C291.785 407.687 291.036 408.9 291.036 411.328ZM306.607 411.081C306.607 409.928 306.829 408.9 307.273 407.998C307.717 407.096 308.354 406.397 309.185 405.903C310.023 405.409 310.993 405.162 312.096 405.162C313.664 405.162 314.943 405.642 315.931 406.602C316.926 407.561 317.481 408.865 317.596 410.512L317.617 411.307C317.617 413.09 317.12 414.522 316.124 415.604C315.129 416.678 313.793 417.215 312.117 417.215C310.442 417.215 309.102 416.678 308.1 415.604C307.104 414.529 306.607 413.068 306.607 411.221V411.081ZM309.711 411.307C309.711 412.41 309.919 413.255 310.334 413.842C310.75 414.422 311.344 414.712 312.117 414.712C312.869 414.712 313.457 414.425 313.879 413.853C314.302 413.272 314.513 412.349 314.513 411.081C314.513 410 314.302 409.162 313.879 408.567C313.457 407.973 312.862 407.676 312.096 407.676C311.337 407.676 310.75 407.973 310.334 408.567C309.919 409.155 309.711 410.068 309.711 411.307ZM324.108 413.208L326.267 405.377H329.512L325.591 417H322.626L318.705 405.377H321.949L324.108 413.208ZM336.486 417.215C334.781 417.215 333.392 416.692 332.318 415.646C331.251 414.601 330.717 413.208 330.717 411.468V411.167C330.717 410 330.943 408.958 331.394 408.041C331.845 407.117 332.482 406.408 333.306 405.914C334.137 405.413 335.082 405.162 336.142 405.162C337.732 405.162 338.982 405.663 339.891 406.666C340.808 407.669 341.266 409.09 341.266 410.931V412.198H333.865C333.965 412.957 334.266 413.566 334.767 414.024C335.275 414.483 335.916 414.712 336.69 414.712C337.886 414.712 338.82 414.279 339.494 413.412L341.019 415.12C340.553 415.779 339.923 416.295 339.128 416.667C338.333 417.032 337.453 417.215 336.486 417.215ZM336.131 407.676C335.515 407.676 335.014 407.883 334.627 408.299C334.248 408.714 334.004 409.309 333.897 410.082H338.215V409.835C338.201 409.147 338.015 408.618 337.657 408.245C337.299 407.866 336.79 407.676 336.131 407.676ZM349.97 408.288C349.547 408.231 349.175 408.202 348.853 408.202C347.678 408.202 346.908 408.6 346.543 409.395V417H343.438V405.377H346.371L346.457 406.763C347.08 405.696 347.943 405.162 349.046 405.162C349.39 405.162 349.712 405.209 350.013 405.302L349.97 408.288ZM361.469 402.52V405.377H363.456V407.654H361.469V413.455C361.469 413.885 361.551 414.193 361.716 414.379C361.881 414.565 362.196 414.658 362.661 414.658C363.005 414.658 363.309 414.633 363.574 414.583V416.936C362.966 417.122 362.339 417.215 361.695 417.215C359.517 417.215 358.407 416.116 358.364 413.917V407.654H356.667V405.377H358.364V402.52H361.469ZM368.615 406.645C369.439 405.656 370.473 405.162 371.72 405.162C374.24 405.162 375.519 406.627 375.555 409.556V417H372.45V409.642C372.45 408.976 372.307 408.485 372.02 408.17C371.734 407.848 371.258 407.687 370.592 407.687C369.682 407.687 369.023 408.037 368.615 408.739V417H365.511V400.5H368.615V406.645ZM383.646 417.215C381.941 417.215 380.552 416.692 379.478 415.646C378.411 414.601 377.877 413.208 377.877 411.468V411.167C377.877 410 378.103 408.958 378.554 408.041C379.005 407.117 379.643 406.408 380.466 405.914C381.297 405.413 382.242 405.162 383.302 405.162C384.892 405.162 386.142 405.663 387.051 406.666C387.968 407.669 388.426 409.09 388.426 410.931V412.198H381.025C381.125 412.957 381.426 413.566 381.927 414.024C382.436 414.483 383.077 414.712 383.85 414.712C385.046 414.712 385.981 414.279 386.654 413.412L388.179 415.12C387.714 415.779 387.083 416.295 386.288 416.667C385.494 417.032 384.613 417.215 383.646 417.215ZM383.291 407.676C382.676 407.676 382.174 407.883 381.788 408.299C381.408 408.714 381.164 409.309 381.057 410.082H385.375V409.835C385.361 409.147 385.175 408.618 384.817 408.245C384.459 407.866 383.95 407.676 383.291 407.676ZM399.754 417H396.638V400.5H399.754V417ZM409.456 417C409.313 416.721 409.209 416.373 409.145 415.958C408.393 416.796 407.415 417.215 406.212 417.215C405.073 417.215 404.128 416.885 403.376 416.227C402.631 415.568 402.259 414.737 402.259 413.734C402.259 412.503 402.714 411.557 403.623 410.898C404.54 410.24 405.861 409.907 407.587 409.899H409.016V409.233C409.016 408.696 408.876 408.267 408.597 407.944C408.325 407.622 407.891 407.461 407.297 407.461C406.774 407.461 406.362 407.586 406.062 407.837C405.768 408.088 405.621 408.431 405.621 408.868H402.517C402.517 408.195 402.724 407.572 403.14 406.999C403.555 406.426 404.142 405.979 404.902 405.656C405.661 405.327 406.513 405.162 407.458 405.162C408.89 405.162 410.026 405.524 410.863 406.247C411.709 406.963 412.131 407.973 412.131 409.276V414.314C412.138 415.417 412.292 416.252 412.593 416.817V417H409.456ZM406.889 414.841C407.347 414.841 407.77 414.741 408.156 414.54C408.543 414.332 408.83 414.057 409.016 413.713V411.715H407.856C406.302 411.715 405.474 412.252 405.374 413.326L405.363 413.509C405.363 413.896 405.5 414.214 405.772 414.465C406.044 414.715 406.416 414.841 406.889 414.841ZM418.482 414.497H424.165V417H414.518V415.109L419.986 407.891H414.68V405.377H423.993V407.214L418.482 414.497ZM430.849 412.606L432.997 405.377H436.328L431.655 418.805L431.397 419.417C430.702 420.935 429.556 421.694 427.959 421.694C427.508 421.694 427.05 421.626 426.584 421.49V419.138L427.057 419.148C427.644 419.148 428.081 419.059 428.368 418.88C428.661 418.701 428.89 418.404 429.055 417.988L429.42 417.032L425.349 405.377H428.69L430.849 412.606ZM443.347 411.103C443.347 409.291 443.752 407.848 444.561 406.773C445.378 405.699 446.491 405.162 447.902 405.162C449.033 405.162 449.968 405.585 450.706 406.43V400.5H453.821V417H451.017L450.867 415.765C450.093 416.731 449.098 417.215 447.88 417.215C446.513 417.215 445.413 416.678 444.583 415.604C443.759 414.522 443.347 413.022 443.347 411.103ZM446.452 411.328C446.452 412.417 446.642 413.251 447.021 413.831C447.401 414.411 447.952 414.701 448.675 414.701C449.635 414.701 450.312 414.297 450.706 413.487V408.9C450.319 408.091 449.649 407.687 448.697 407.687C447.2 407.687 446.452 408.9 446.452 411.328ZM456.144 411.081C456.144 409.928 456.366 408.9 456.81 407.998C457.254 407.096 457.891 406.397 458.722 405.903C459.56 405.409 460.53 405.162 461.633 405.162C463.201 405.162 464.48 405.642 465.468 406.602C466.463 407.561 467.018 408.865 467.133 410.512L467.154 411.307C467.154 413.09 466.657 414.522 465.661 415.604C464.666 416.678 463.33 417.215 461.654 417.215C459.979 417.215 458.64 416.678 457.637 415.604C456.641 414.529 456.144 413.068 456.144 411.221V411.081ZM459.248 411.307C459.248 412.41 459.456 413.255 459.871 413.842C460.287 414.422 460.881 414.712 461.654 414.712C462.406 414.712 462.994 414.425 463.416 413.853C463.839 413.272 464.05 412.349 464.05 411.081C464.05 410 463.839 409.162 463.416 408.567C462.994 407.973 462.399 407.676 461.633 407.676C460.874 407.676 460.287 407.973 459.871 408.567C459.456 409.155 459.248 410.068 459.248 411.307ZM469.015 411.103C469.015 409.319 469.438 407.883 470.283 406.795C471.135 405.706 472.281 405.162 473.721 405.162C474.995 405.162 475.987 405.599 476.696 406.473L476.825 405.377H479.639V416.613C479.639 417.63 479.407 418.515 478.941 419.267C478.483 420.019 477.835 420.591 476.997 420.985C476.159 421.379 475.178 421.576 474.054 421.576C473.201 421.576 472.371 421.404 471.561 421.061C470.752 420.724 470.14 420.287 469.724 419.75L471.099 417.859C471.873 418.726 472.811 419.159 473.914 419.159C474.737 419.159 475.378 418.937 475.837 418.493C476.295 418.056 476.524 417.433 476.524 416.624V416.001C475.808 416.81 474.866 417.215 473.699 417.215C472.303 417.215 471.171 416.671 470.305 415.582C469.445 414.486 469.015 413.036 469.015 411.231V411.103ZM472.12 411.328C472.12 412.381 472.331 413.208 472.754 413.81C473.176 414.404 473.756 414.701 474.494 414.701C475.439 414.701 476.116 414.347 476.524 413.638V408.75C476.109 408.041 475.439 407.687 474.515 407.687C473.771 407.687 473.183 407.991 472.754 408.6C472.331 409.208 472.12 410.118 472.12 411.328Z" fill="#272D2D"/>
</g>
<path d="M25.66 39.14C25.66 42.58 25 45.54 23.68 48.02C22.36 50.54 20.52 52.46 18.16 53.78C15.84 55.14 13.18 55.86 10.18 55.94V50.3C13.14 50.14 15.48 49.1 17.2 47.18C18.96 45.3 19.84 42.56 19.84 38.96V3.62H25.66V39.14ZM34.6141 34.34C34.6141 31.9 35.1941 29.68 36.3541 27.68C37.5541 25.64 39.1941 24.04 41.2741 22.88C43.3941 21.72 45.7741 21.14 48.4141 21.14C51.0541 21.14 53.3941 21.72 55.4341 22.88C57.5141 24.04 59.1141 25.62 60.2341 27.62C61.3941 29.62 61.9741 31.86 61.9741 34.34C61.9741 36.82 61.3941 39.08 60.2341 41.12C59.1141 43.12 57.5141 44.7 55.4341 45.86C53.3541 47.02 50.9741 47.6 48.2941 47.6C45.6941 47.6 43.3541 47.06 41.2741 45.98C39.1941 44.86 37.5541 43.3 36.3541 41.3C35.1941 39.3 34.6141 36.98 34.6141 34.34ZM40.2541 34.4C40.2541 35.96 40.5941 37.4 41.2741 38.72C41.9941 40.04 42.9541 41.08 44.1541 41.84C45.3941 42.6 46.7541 42.98 48.2341 42.98C50.5541 42.98 52.4741 42.16 53.9941 40.52C55.5141 38.88 56.2741 36.84 56.2741 34.4C56.2741 31.96 55.5141 29.92 53.9941 28.28C52.4741 26.6 50.5541 25.76 48.2341 25.76C46.7141 25.76 45.3541 26.16 44.1541 26.96C42.9541 27.72 41.9941 28.76 41.2741 30.08C40.5941 31.4 40.2541 32.84 40.2541 34.4ZM76.4894 47.54C74.6494 47.54 72.8894 47.22 71.2094 46.58C69.5694 45.94 68.2294 45 67.1894 43.76L69.5894 40.52C70.5894 41.48 71.6294 42.22 72.7094 42.74C73.8294 43.26 74.9294 43.52 76.0094 43.52C77.3294 43.52 78.4094 43.26 79.2494 42.74C80.0894 42.22 80.5094 41.42 80.5094 40.34C80.5094 39.5 80.2494 38.82 79.7294 38.3C79.2094 37.78 78.6094 37.4 77.9294 37.16C77.2894 36.92 76.1894 36.56 74.6294 36.08C70.3894 34.72 68.2694 32.3 68.2694 28.82C68.2694 26.74 69.0294 24.96 70.5494 23.48C72.1094 22 74.2694 21.26 77.0294 21.26C78.7894 21.26 80.3494 21.48 81.7094 21.92C83.0694 22.36 84.3294 23.06 85.4894 24.02L83.2694 27.44C82.6294 26.76 81.8094 26.22 80.8094 25.82C79.8494 25.42 78.9294 25.2 78.0494 25.16C76.9294 25.16 75.9694 25.44 75.1694 26C74.3694 26.52 73.9694 27.24 73.9694 28.16C73.9694 28.92 74.2294 29.56 74.7494 30.08C75.2694 30.56 75.8094 30.92 76.3694 31.16C76.9294 31.36 78.0294 31.72 79.6694 32.24C81.7094 32.92 83.2894 33.8 84.4094 34.88C85.5694 35.96 86.1494 37.42 86.1494 39.26C86.1494 41.66 85.3094 43.64 83.6294 45.2C81.9494 46.76 79.5694 47.54 76.4894 47.54ZM105.602 42.8C107.682 42.8 109.702 42.08 111.662 40.64L114.242 44.78C112.922 45.66 111.482 46.36 109.922 46.88C108.402 47.36 106.922 47.6 105.482 47.6C102.722 47.6 100.302 47.04 98.2216 45.92C96.1816 44.76 94.6016 43.18 93.4816 41.18C92.3616 39.18 91.8016 36.92 91.8016 34.4C91.8016 31.96 92.4016 29.74 93.6016 27.74C94.8416 25.7 96.5216 24.1 98.6416 22.94C100.762 21.74 103.082 21.14 105.602 21.14C108.842 21.14 111.542 22.1 113.702 24.02C115.902 25.9 117.402 28.54 118.202 31.94L98.5216 38.84C99.2416 40.08 100.202 41.06 101.402 41.78C102.642 42.46 104.042 42.8 105.602 42.8ZM105.182 25.58C102.902 25.58 101.022 26.38 99.5416 27.98C98.0616 29.58 97.3216 31.62 97.3216 34.1C97.3216 34.7 97.3416 35.16 97.3816 35.48L111.842 30.14C111.242 28.78 110.382 27.68 109.262 26.84C108.182 26 106.822 25.58 105.182 25.58ZM127.173 27.14H122.913V22.1H127.173V11.66C127.173 8.06 127.993 5.3 129.633 3.38C131.273 1.46 133.673 0.499998 136.833 0.499998C137.713 0.499998 138.653 0.639998 139.653 0.92C140.653 1.16 141.533 1.52 142.293 2L139.893 6.08C139.293 5.44 138.453 5.12 137.373 5.12C135.853 5.12 134.693 5.64 133.893 6.68C133.133 7.72 132.753 9.4 132.753 11.72V22.1H139.893V27.14H132.753V47H127.173V27.14ZM144.273 13.22C144.273 12.34 144.613 11.6 145.293 11C145.973 10.4 146.753 10.1 147.633 10.1C148.513 10.1 149.273 10.4 149.913 11C150.593 11.6 150.933 12.34 150.933 13.22C150.933 14.1 150.593 14.84 149.913 15.44C149.273 16.04 148.513 16.34 147.633 16.34C146.753 16.34 145.973 16.04 145.293 15.44C144.613 14.84 144.273 14.1 144.273 13.22ZM150.273 22.16V47H144.693V22.16H150.273ZM175.358 21.2C177.678 21.2 179.598 21.9 181.118 23.3C182.638 24.66 183.418 26.44 183.458 28.64V47H177.818V30.56C177.738 29.16 177.318 28.06 176.558 27.26C175.798 26.46 174.658 26.04 173.138 26C170.938 26 169.118 26.88 167.678 28.64C166.238 30.4 165.518 32.64 165.518 35.36V47H159.938V22.16H164.978L165.338 26.96C166.218 25.16 167.538 23.76 169.298 22.76C171.058 21.72 173.078 21.2 175.358 21.2ZM235.907 11.36C234.347 10.52 232.687 9.84 230.927 9.32C229.167 8.8 227.507 8.54 225.947 8.54C223.587 8.54 221.707 9.08 220.307 10.16C218.947 11.2 218.267 12.64 218.267 14.48C218.267 16.28 219.067 17.76 220.667 18.92C222.307 20.04 224.627 21.16 227.627 22.28C229.867 23.08 231.747 23.96 233.267 24.92C234.827 25.84 236.107 27.14 237.107 28.82C238.147 30.46 238.667 32.56 238.667 35.12C238.667 37.44 238.087 39.54 236.927 41.42C235.767 43.3 234.107 44.78 231.947 45.86C229.827 46.94 227.327 47.48 224.447 47.48C221.767 47.48 219.187 47.06 216.707 46.22C214.227 45.34 212.047 44.24 210.167 42.92L212.747 38.3C214.227 39.42 216.007 40.38 218.087 41.18C220.167 41.94 222.107 42.32 223.907 42.32C226.227 42.32 228.247 41.72 229.967 40.52C231.727 39.32 232.607 37.54 232.607 35.18C232.607 33.18 231.867 31.6 230.387 30.44C228.947 29.24 226.907 28.12 224.267 27.08C221.827 26.16 219.787 25.26 218.147 24.38C216.547 23.5 215.167 22.3 214.007 20.78C212.847 19.22 212.267 17.28 212.267 14.96C212.267 11.56 213.447 8.82 215.807 6.74C218.207 4.62 221.307 3.5 225.107 3.38C229.787 3.38 234.127 4.54 238.127 6.86L235.907 11.36ZM272.508 22.16V47H266.928V42.92C266.048 44.08 264.768 45.16 263.088 46.16C261.408 47.12 259.508 47.6 257.388 47.6C255.028 47.6 252.888 47.1 250.968 46.1C249.088 45.06 247.588 43.56 246.468 41.6C245.388 39.64 244.848 37.3 244.848 34.58C244.848 31.86 245.408 29.5 246.528 27.5C247.688 25.46 249.228 23.9 251.148 22.82C253.108 21.7 255.268 21.14 257.628 21.14C259.748 21.14 261.588 21.6 263.148 22.52C264.708 23.44 265.968 24.64 266.928 26.12L267.348 22.16H272.508ZM258.888 42.98C260.928 42.98 262.668 42.42 264.108 41.3C265.588 40.14 266.528 38.58 266.928 36.62V31.7C266.448 29.94 265.448 28.52 263.928 27.44C262.408 26.32 260.668 25.76 258.708 25.76C257.228 25.76 255.848 26.12 254.568 26.84C253.328 27.56 252.328 28.58 251.568 29.9C250.848 31.18 250.488 32.64 250.488 34.28C250.488 35.88 250.868 37.34 251.628 38.66C252.388 39.98 253.408 41.04 254.688 41.84C255.968 42.6 257.368 42.98 258.888 42.98ZM297.643 21.2C299.963 21.2 301.883 21.9 303.403 23.3C304.923 24.66 305.703 26.44 305.743 28.64V47H300.103V30.56C300.023 29.16 299.603 28.06 298.843 27.26C298.083 26.46 296.943 26.04 295.423 26C293.223 26 291.403 26.88 289.963 28.64C288.523 30.4 287.803 32.64 287.803 35.36V47H282.223V22.16H287.263L287.623 26.96C288.503 25.16 289.823 23.76 291.583 22.76C293.343 21.72 295.363 21.2 297.643 21.2ZM322.407 47.54C320.567 47.54 318.807 47.22 317.127 46.58C315.487 45.94 314.147 45 313.107 43.76L315.507 40.52C316.507 41.48 317.547 42.22 318.627 42.74C319.747 43.26 320.847 43.52 321.927 43.52C323.247 43.52 324.327 43.26 325.167 42.74C326.007 42.22 326.427 41.42 326.427 40.34C326.427 39.5 326.167 38.82 325.647 38.3C325.127 37.78 324.527 37.4 323.847 37.16C323.207 36.92 322.107 36.56 320.547 36.08C316.307 34.72 314.187 32.3 314.187 28.82C314.187 26.74 314.947 24.96 316.467 23.48C318.027 22 320.187 21.26 322.947 21.26C324.707 21.26 326.267 21.48 327.627 21.92C328.987 22.36 330.247 23.06 331.407 24.02L329.187 27.44C328.547 26.76 327.727 26.22 326.727 25.82C325.767 25.42 324.847 25.2 323.967 25.16C322.847 25.16 321.887 25.44 321.087 26C320.287 26.52 319.887 27.24 319.887 28.16C319.887 28.92 320.147 29.56 320.667 30.08C321.187 30.56 321.727 30.92 322.287 31.16C322.847 31.36 323.947 31.72 325.587 32.24C327.627 32.92 329.207 33.8 330.327 34.88C331.487 35.96 332.067 37.42 332.067 39.26C332.067 41.66 331.227 43.64 329.547 45.2C327.867 46.76 325.487 47.54 322.407 47.54Z" fill="#272D2D"/>
<path d="M30.24 78.08V81.8H22.48V107H18.6V81.8H11.04V78.08H30.24ZM45.8013 89.8C47.3479 89.8 48.6279 90.2667 49.6413 91.2C50.6546 92.1067 51.1746 93.2933 51.2013 94.76V107H47.4413V96.04C47.3879 95.1067 47.1079 94.3733 46.6013 93.84C46.0946 93.3067 45.3346 93.0267 44.3213 93C43.3613 93 42.4946 93.2667 41.7213 93.8C40.9479 94.3333 40.3346 95.08 39.8813 96.04C39.4546 97 39.2413 98.0667 39.2413 99.24V107H35.5213V76H39.1613V93.44C39.7746 92.3467 40.6546 91.4667 41.8013 90.8C42.9746 90.1333 44.3079 89.8 45.8013 89.8ZM65.3906 104.2C66.7773 104.2 68.124 103.72 69.4306 102.76L71.1506 105.52C70.2706 106.107 69.3106 106.573 68.2706 106.92C67.2573 107.24 66.2706 107.4 65.3106 107.4C63.4706 107.4 61.8573 107.027 60.4706 106.28C59.1106 105.507 58.0573 104.453 57.3106 103.12C56.564 101.787 56.1906 100.28 56.1906 98.6C56.1906 96.9733 56.5906 95.4933 57.3906 94.16C58.2173 92.8 59.3373 91.7333 60.7506 90.96C62.164 90.16 63.7106 89.76 65.3906 89.76C67.5506 89.76 69.3506 90.4 70.7906 91.68C72.2573 92.9333 73.2573 94.6933 73.7906 96.96L60.6706 101.56C61.1506 102.387 61.7906 103.04 62.5906 103.52C63.4173 103.973 64.3506 104.2 65.3906 104.2ZM65.1106 92.72C63.5906 92.72 62.3373 93.2533 61.3506 94.32C60.364 95.3867 59.8706 96.7467 59.8706 98.4C59.8706 98.8 59.884 99.1067 59.9106 99.32L69.5506 95.76C69.1506 94.8533 68.5773 94.12 67.8306 93.56C67.1106 93 66.204 92.72 65.1106 92.72ZM108.348 90.16V114.96H104.628V104.52C103.935 105.373 102.975 106.067 101.748 106.6C100.521 107.133 99.1748 107.4 97.7081 107.4C96.2148 107.4 94.8548 107.04 93.6281 106.32C92.4015 105.6 91.4281 104.587 90.7081 103.28C89.9881 101.947 89.6281 100.413 89.6281 98.68C89.6281 96.9467 90.0148 95.4 90.7881 94.04C91.5881 92.68 92.6415 91.6267 93.9481 90.88C95.2815 90.1333 96.7481 89.76 98.3481 89.76C99.6548 89.76 100.841 90.0267 101.908 90.56C102.975 91.0667 103.868 91.7733 104.588 92.68V90.16H108.348ZM104.588 97.28C104.295 95.9733 103.641 94.92 102.628 94.12C101.615 93.32 100.401 92.92 98.9881 92.92C97.9748 92.92 97.0415 93.1733 96.1881 93.68C95.3348 94.1867 94.6548 94.8933 94.1481 95.8C93.6415 96.68 93.3881 97.6533 93.3881 98.72C93.3881 99.7867 93.6415 100.76 94.1481 101.64C94.6548 102.493 95.3348 103.173 96.1881 103.68C97.0415 104.16 97.9748 104.4 98.9881 104.4C100.401 104.4 101.628 104 102.668 103.2C103.708 102.373 104.348 101.333 104.588 100.08V97.28ZM130.179 90.44V107H126.819L126.579 103.84C126.019 104.96 125.152 105.88 123.979 106.6C122.806 107.293 121.499 107.64 120.059 107.64C118.539 107.64 117.286 107.187 116.299 106.28C115.339 105.347 114.832 104.147 114.779 102.68V90.44H118.499V101.36C118.552 102.293 118.819 103.04 119.299 103.6C119.806 104.133 120.552 104.413 121.539 104.44C122.446 104.44 123.272 104.173 124.019 103.64C124.766 103.08 125.352 102.32 125.779 101.36C126.232 100.4 126.459 99.3333 126.459 98.16V90.44H130.179ZM140.374 90.44V107H136.654V90.44H140.374ZM136.374 84.48C136.374 83.8933 136.601 83.4 137.054 83C137.507 82.6 138.027 82.4 138.614 82.4C139.201 82.4 139.707 82.6 140.134 83C140.587 83.4 140.814 83.8933 140.814 84.48C140.814 85.0667 140.587 85.56 140.134 85.96C139.707 86.36 139.201 86.56 138.614 86.56C138.027 86.56 137.507 86.36 137.054 85.96C136.601 85.56 136.374 85.0667 136.374 84.48ZM160.289 105.44C159.543 106.053 158.649 106.533 157.609 106.88C156.596 107.227 155.556 107.4 154.489 107.4C152.703 107.4 151.116 107.04 149.729 106.32C148.369 105.6 147.303 104.587 146.529 103.28C145.783 101.947 145.409 100.413 145.409 98.68C145.409 96.9733 145.809 95.4667 146.609 94.16C147.409 92.8267 148.476 91.8 149.809 91.08C151.143 90.36 152.583 90 154.129 90C156.663 90 158.756 90.6933 160.409 92.08L158.529 94.52C157.996 94.12 157.383 93.7867 156.689 93.52C155.996 93.2267 155.249 93.08 154.449 93.08C153.463 93.08 152.556 93.3333 151.729 93.84C150.929 94.32 150.289 94.9867 149.809 95.84C149.356 96.6933 149.129 97.64 149.129 98.68C149.129 99.72 149.369 100.667 149.849 101.52C150.356 102.373 151.036 103.053 151.889 103.56C152.743 104.067 153.716 104.32 154.809 104.32C156.169 104.32 157.356 103.92 158.369 103.12L160.289 105.44ZM170.972 99.04L168.812 100.8V107H165.092V76H168.812V96.92L177.372 90.04L179.652 92.04L173.532 96.96L180.452 107H176.092L170.972 99.04ZM208.309 89.76C209.802 89.76 211.162 90.12 212.389 90.84C213.642 91.56 214.629 92.5733 215.349 93.88C216.069 95.1867 216.429 96.7067 216.429 98.44C216.429 100.253 216.042 101.84 215.269 103.2C214.495 104.56 213.442 105.6 212.109 106.32C210.802 107.04 209.375 107.4 207.829 107.4C206.469 107.4 205.229 107.133 204.109 106.6C203.015 106.067 202.122 105.347 201.429 104.44V107H197.709V76H201.429V92.64C202.122 91.76 203.069 91.0667 204.269 90.56C205.495 90.0267 206.842 89.76 208.309 89.76ZM207.029 104.2C208.655 104.2 209.989 103.653 211.029 102.56C212.095 101.467 212.629 100.093 212.629 98.44C212.629 97.3733 212.375 96.4133 211.869 95.56C211.389 94.68 210.722 93.9867 209.869 93.48C209.015 92.9733 208.069 92.72 207.029 92.72C205.669 92.72 204.469 93.0933 203.429 93.84C202.415 94.56 201.749 95.52 201.429 96.72V100.08C201.749 101.28 202.415 102.267 203.429 103.04C204.442 103.813 205.642 104.2 207.029 104.2ZM225.02 94.36C225.446 93.4533 226.046 92.6533 226.82 91.96C227.62 91.2667 228.46 90.7333 229.34 90.36C230.22 89.9867 230.993 89.7867 231.66 89.76L231.5 93.48C230.3 93.4267 229.206 93.6667 228.22 94.2C227.26 94.7333 226.5 95.48 225.94 96.44C225.406 97.3733 225.14 98.3733 225.14 99.44V107H221.42V90.44H224.74L225.02 94.36ZM234.316 98.56C234.316 96.9333 234.702 95.4533 235.476 94.12C236.276 92.76 237.369 91.6933 238.756 90.92C240.169 90.1467 241.756 89.76 243.516 89.76C245.276 89.76 246.836 90.1467 248.196 90.92C249.582 91.6933 250.649 92.7467 251.396 94.08C252.169 95.4133 252.556 96.9067 252.556 98.56C252.556 100.213 252.169 101.72 251.396 103.08C250.649 104.413 249.582 105.467 248.196 106.24C246.809 107.013 245.222 107.4 243.436 107.4C241.702 107.4 240.142 107.04 238.756 106.32C237.369 105.573 236.276 104.533 235.476 103.2C234.702 101.867 234.316 100.32 234.316 98.56ZM238.076 98.6C238.076 99.64 238.302 100.6 238.756 101.48C239.236 102.36 239.876 103.053 240.676 103.56C241.502 104.067 242.409 104.32 243.396 104.32C244.942 104.32 246.222 103.773 247.236 102.68C248.249 101.587 248.756 100.227 248.756 98.6C248.756 96.9733 248.249 95.6133 247.236 94.52C246.222 93.4 244.942 92.84 243.396 92.84C242.382 92.84 241.476 93.1067 240.676 93.64C239.876 94.1467 239.236 94.84 238.756 95.72C238.302 96.6 238.076 97.56 238.076 98.6ZM280.045 90.44L272.405 108L267.085 96.64L262.245 108L254.565 90.44H258.245L262.685 100.48L265.765 93.28L264.445 90.44H267.685L272.165 100.72L276.365 90.44H280.045ZM294.317 89.8C295.864 89.8 297.144 90.2667 298.157 91.2C299.17 92.1067 299.69 93.2933 299.717 94.76V107H295.957V96.04C295.904 95.1067 295.624 94.3733 295.117 93.84C294.61 93.3067 293.85 93.0267 292.837 93C291.37 93 290.157 93.5867 289.197 94.76C288.237 95.9333 287.757 97.4267 287.757 99.24V107H284.037V90.44H287.397L287.637 93.64C288.224 92.44 289.104 91.5067 290.277 90.84C291.45 90.1467 292.797 89.8 294.317 89.8ZM320.163 93.76H317.323V90.4H320.163V83.44C320.163 81.04 320.709 79.2 321.803 77.92C322.896 76.64 324.496 76 326.603 76C327.189 76 327.816 76.0933 328.483 76.28C329.149 76.44 329.736 76.68 330.243 77L328.643 79.72C328.243 79.2933 327.683 79.08 326.963 79.08C325.949 79.08 325.176 79.4267 324.643 80.12C324.136 80.8133 323.883 81.9333 323.883 83.48V90.4H329.163V93.76H323.883V107H320.163V93.76ZM331.62 98.56C331.62 96.9333 332.007 95.4533 332.78 94.12C333.58 92.76 334.674 91.6933 336.06 90.92C337.474 90.1467 339.06 89.76 340.82 89.76C342.58 89.76 344.14 90.1467 345.5 90.92C346.887 91.6933 347.954 92.7467 348.7 94.08C349.474 95.4133 349.86 96.9067 349.86 98.56C349.86 100.213 349.474 101.72 348.7 103.08C347.954 104.413 346.887 105.467 345.5 106.24C344.114 107.013 342.527 107.4 340.74 107.4C339.007 107.4 337.447 107.04 336.06 106.32C334.674 105.573 333.58 104.533 332.78 103.2C332.007 101.867 331.62 100.32 331.62 98.56ZM335.38 98.6C335.38 99.64 335.607 100.6 336.06 101.48C336.54 102.36 337.18 103.053 337.98 103.56C338.807 104.067 339.714 104.32 340.7 104.32C342.247 104.32 343.527 103.773 344.54 102.68C345.554 101.587 346.06 100.227 346.06 98.6C346.06 96.9733 345.554 95.6133 344.54 94.52C343.527 93.4 342.247 92.84 340.7 92.84C339.687 92.84 338.78 93.1067 337.98 93.64C337.18 94.1467 336.54 94.84 336.06 95.72C335.607 96.6 335.38 97.56 335.38 98.6ZM364.587 107L360.147 101.16L355.987 107H352.187L358.267 98.68L351.987 90.44H356.627L360.987 96.2L364.707 90.44H368.467L362.707 98.48L369.107 107H364.587ZM383.756 112.68C385.356 111.32 386.156 109.413 386.156 106.96V90.44H389.916V107.12C389.916 109.013 389.596 110.6 388.956 111.88C388.342 113.16 387.356 114.2 385.996 115L383.756 112.68ZM385.876 84.48C385.876 83.8933 386.102 83.4 386.556 83C387.009 82.6 387.529 82.4 388.116 82.4C388.702 82.4 389.209 82.6 389.636 83C390.089 83.4 390.316 83.8933 390.316 84.48C390.316 85.0667 390.089 85.56 389.636 85.96C389.209 86.36 388.702 86.56 388.116 86.56C387.529 86.56 387.009 86.36 386.556 85.96C386.102 85.56 385.876 85.0667 385.876 84.48ZM411.546 90.44V107H408.186L407.946 103.84C407.386 104.96 406.52 105.88 405.346 106.6C404.173 107.293 402.866 107.64 401.426 107.64C399.906 107.64 398.653 107.187 397.666 106.28C396.706 105.347 396.2 104.147 396.146 102.68V90.44H399.866V101.36C399.92 102.293 400.186 103.04 400.666 103.6C401.173 104.133 401.92 104.413 402.906 104.44C403.813 104.44 404.64 104.173 405.386 103.64C406.133 103.08 406.72 102.32 407.146 101.36C407.6 100.4 407.826 99.3333 407.826 98.16V90.44H411.546ZM439.261 89.76C440.861 89.76 442.128 90.2133 443.061 91.12C444.021 92.0267 444.528 93.2267 444.581 94.72V107H440.861V96.08C440.781 94.1333 439.901 93.1067 438.221 93C437.261 93 436.395 93.2933 435.621 93.88C434.875 94.44 434.288 95.1867 433.861 96.12C433.435 97.0533 433.208 98.0533 433.181 99.12V107H429.421V96.08C429.341 94.1333 428.435 93.1067 426.701 93C425.768 93 424.915 93.2933 424.141 93.88C423.395 94.44 422.808 95.2 422.381 96.16C421.955 97.0933 421.741 98.0933 421.741 99.16V107H418.021V90.44H421.381L421.661 93.56C422.301 92.36 423.168 91.4267 424.261 90.76C425.381 90.0933 426.648 89.76 428.061 89.76C429.395 89.76 430.515 90.08 431.421 90.72C432.328 91.3333 432.915 92.1867 433.181 93.28C433.875 92.1867 434.755 91.3333 435.821 90.72C436.888 90.08 438.035 89.76 439.261 89.76ZM461.509 89.76C463.056 89.76 464.456 90.1333 465.709 90.88C466.962 91.6267 467.949 92.68 468.669 94.04C469.389 95.3733 469.749 96.92 469.749 98.68C469.749 100.413 469.362 101.947 468.589 103.28C467.816 104.587 466.749 105.6 465.389 106.32C464.029 107.04 462.509 107.4 460.829 107.4C459.629 107.4 458.482 107.147 457.389 106.64C456.296 106.107 455.416 105.4 454.749 104.52V114.96H451.029V90.16H454.269L454.589 92.96C455.442 92 456.456 91.2267 457.629 90.64C458.829 90.0533 460.122 89.76 461.509 89.76ZM460.109 104.4C461.149 104.4 462.109 104.16 462.989 103.68C463.896 103.173 464.616 102.493 465.149 101.64C465.682 100.76 465.949 99.7867 465.949 98.72C465.949 97.6267 465.696 96.64 465.189 95.76C464.709 94.88 464.042 94.1867 463.189 93.68C462.336 93.1733 461.389 92.92 460.349 92.92C458.936 92.92 457.722 93.32 456.709 94.12C455.722 94.8933 455.069 95.9467 454.749 97.28V100.04C454.962 101.32 455.562 102.373 456.549 103.2C457.562 104 458.749 104.4 460.109 104.4ZM479.42 107.36C478.193 107.36 477.02 107.147 475.9 106.72C474.807 106.293 473.913 105.667 473.22 104.84L474.82 102.68C475.487 103.32 476.18 103.813 476.9 104.16C477.647 104.507 478.38 104.68 479.1 104.68C479.98 104.68 480.7 104.507 481.26 104.16C481.82 103.813 482.1 103.28 482.1 102.56C482.1 102 481.927 101.547 481.58 101.2C481.233 100.853 480.833 100.6 480.38 100.44C479.953 100.28 479.22 100.04 478.18 99.72C475.353 98.8133 473.94 97.2 473.94 94.88C473.94 93.4933 474.447 92.3067 475.46 91.32C476.5 90.3333 477.94 89.84 479.78 89.84C480.953 89.84 481.993 89.9867 482.9 90.28C483.807 90.5733 484.647 91.04 485.42 91.68L483.94 93.96C483.513 93.5067 482.967 93.1467 482.3 92.88C481.66 92.6133 481.047 92.4667 480.46 92.44C479.713 92.44 479.073 92.6267 478.54 93C478.007 93.3467 477.74 93.8267 477.74 94.44C477.74 94.9467 477.913 95.3733 478.26 95.72C478.607 96.04 478.967 96.28 479.34 96.44C479.713 96.5733 480.447 96.8133 481.54 97.16C482.9 97.6133 483.953 98.2 484.7 98.92C485.473 99.64 485.86 100.613 485.86 101.84C485.86 103.44 485.3 104.76 484.18 105.8C483.06 106.84 481.473 107.36 479.42 107.36ZM10.8 138.56C10.8 136.933 11.1867 135.453 11.96 134.12C12.76 132.76 13.8533 131.693 15.24 130.92C16.6533 130.147 18.24 129.76 20 129.76C21.76 129.76 23.32 130.147 24.68 130.92C26.0667 131.693 27.1333 132.747 27.88 134.08C28.6533 135.413 29.04 136.907 29.04 138.56C29.04 140.213 28.6533 141.72 27.88 143.08C27.1333 144.413 26.0667 145.467 24.68 146.24C23.2933 147.013 21.7067 147.4 19.92 147.4C18.1867 147.4 16.6267 147.04 15.24 146.32C13.8533 145.573 12.76 144.533 11.96 143.2C11.1867 141.867 10.8 140.32 10.8 138.56ZM14.56 138.6C14.56 139.64 14.7867 140.6 15.24 141.48C15.72 142.36 16.36 143.053 17.16 143.56C17.9867 144.067 18.8933 144.32 19.88 144.32C21.4267 144.32 22.7067 143.773 23.72 142.68C24.7333 141.587 25.24 140.227 25.24 138.6C25.24 136.973 24.7333 135.613 23.72 134.52C22.7067 133.4 21.4267 132.84 19.88 132.84C18.8667 132.84 17.96 133.107 17.16 133.64C16.36 134.147 15.72 134.84 15.24 135.72C14.7867 136.6 14.56 137.56 14.56 138.6ZM49.2891 130.44L40.4491 147.48H40.2491L31.0491 130.44H35.4891L40.4891 141L45.1291 130.44H49.2891ZM60.6641 144.2C62.0507 144.2 63.3974 143.72 64.7041 142.76L66.4241 145.52C65.5441 146.107 64.5841 146.573 63.5441 146.92C62.5307 147.24 61.5441 147.4 60.5841 147.4C58.7441 147.4 57.1307 147.027 55.7441 146.28C54.3841 145.507 53.3307 144.453 52.5841 143.12C51.8374 141.787 51.4641 140.28 51.4641 138.6C51.4641 136.973 51.8641 135.493 52.6641 134.16C53.4907 132.8 54.6107 131.733 56.0241 130.96C57.4374 130.16 58.9841 129.76 60.6641 129.76C62.8241 129.76 64.6241 130.4 66.0641 131.68C67.5307 132.933 68.5307 134.693 69.0641 136.96L55.9441 141.56C56.4241 142.387 57.0641 143.04 57.8641 143.52C58.6907 143.973 59.6241 144.2 60.6641 144.2ZM60.3841 132.72C58.8641 132.72 57.6107 133.253 56.6241 134.32C55.6374 135.387 55.1441 136.747 55.1441 138.4C55.1441 138.8 55.1574 139.107 55.1841 139.32L64.8241 135.76C64.4241 134.853 63.8507 134.12 63.1041 133.56C62.3841 133 61.4774 132.72 60.3841 132.72ZM77.2853 134.36C77.712 133.453 78.312 132.653 79.0853 131.96C79.8853 131.267 80.7253 130.733 81.6053 130.36C82.4853 129.987 83.2586 129.787 83.9253 129.76L83.7653 133.48C82.5653 133.427 81.472 133.667 80.4853 134.2C79.5253 134.733 78.7653 135.48 78.2053 136.44C77.672 137.373 77.4053 138.373 77.4053 139.44V147H73.6853V130.44H77.0053L77.2853 134.36ZM106.741 123.16V130.48H111.261V133.44H106.741V147H102.981V133.44H99.9406V130.48H102.981V123.16H106.741ZM126.075 129.8C127.621 129.8 128.901 130.267 129.915 131.2C130.928 132.107 131.448 133.293 131.475 134.76V147H127.715V136.04C127.661 135.107 127.381 134.373 126.875 133.84C126.368 133.307 125.608 133.027 124.595 133C123.635 133 122.768 133.267 121.995 133.8C121.221 134.333 120.608 135.08 120.155 136.04C119.728 137 119.515 138.067 119.515 139.24V147H115.795V116H119.435V133.44C120.048 132.347 120.928 131.467 122.075 130.8C123.248 130.133 124.581 129.8 126.075 129.8ZM145.664 144.2C147.051 144.2 148.397 143.72 149.704 142.76L151.424 145.52C150.544 146.107 149.584 146.573 148.544 146.92C147.531 147.24 146.544 147.4 145.584 147.4C143.744 147.4 142.131 147.027 140.744 146.28C139.384 145.507 138.331 144.453 137.584 143.12C136.837 141.787 136.464 140.28 136.464 138.6C136.464 136.973 136.864 135.493 137.664 134.16C138.491 132.8 139.611 131.733 141.024 130.96C142.437 130.16 143.984 129.76 145.664 129.76C147.824 129.76 149.624 130.4 151.064 131.68C152.531 132.933 153.531 134.693 154.064 136.96L140.944 141.56C141.424 142.387 142.064 143.04 142.864 143.52C143.691 143.973 144.624 144.2 145.664 144.2ZM145.384 132.72C143.864 132.72 142.611 133.253 141.624 134.32C140.637 135.387 140.144 136.747 140.144 138.4C140.144 138.8 140.157 139.107 140.184 139.32L149.824 135.76C149.424 134.853 148.851 134.12 148.104 133.56C147.384 133 146.477 132.72 145.384 132.72ZM175.062 116V147H171.342V116H175.062ZM198.537 130.44V147H194.817V144.28C194.23 145.053 193.377 145.773 192.257 146.44C191.137 147.08 189.87 147.4 188.457 147.4C186.884 147.4 185.457 147.067 184.177 146.4C182.924 145.707 181.924 144.707 181.177 143.4C180.457 142.093 180.097 140.533 180.097 138.72C180.097 136.907 180.47 135.333 181.217 134C181.99 132.64 183.017 131.6 184.297 130.88C185.604 130.133 187.044 129.76 188.617 129.76C190.03 129.76 191.257 130.067 192.297 130.68C193.337 131.293 194.177 132.093 194.817 133.08L195.097 130.44H198.537ZM189.457 144.32C190.817 144.32 191.977 143.947 192.937 143.2C193.924 142.427 194.55 141.387 194.817 140.08V136.8C194.497 135.627 193.83 134.68 192.817 133.96C191.804 133.213 190.644 132.84 189.337 132.84C188.35 132.84 187.43 133.08 186.577 133.56C185.75 134.04 185.084 134.72 184.577 135.6C184.097 136.453 183.857 137.427 183.857 138.52C183.857 139.587 184.11 140.56 184.617 141.44C185.124 142.32 185.804 143.027 186.657 143.56C187.51 144.067 188.444 144.32 189.457 144.32ZM208.973 143.92H218.213V147H202.893L212.293 133.48H206.573C205.693 133.48 204.973 133.227 204.413 132.72C203.853 132.187 203.573 131.427 203.573 130.44V128.84H206.413V129.36C206.413 129.787 206.507 130.08 206.693 130.24C206.907 130.373 207.267 130.44 207.773 130.44H218.373L208.973 143.92ZM239.289 130.44L228.609 154.96H224.929L228.729 146.44L221.049 130.44H225.249L230.609 142.24L235.849 130.44H239.289ZM273.231 116V147H269.471V144.4C268.671 145.333 267.684 146.067 266.511 146.6C265.364 147.133 264.098 147.4 262.711 147.4C261.164 147.4 259.764 147.027 258.511 146.28C257.258 145.533 256.271 144.493 255.551 143.16C254.858 141.8 254.511 140.24 254.511 138.48C254.511 136.693 254.884 135.147 255.631 133.84C256.378 132.507 257.404 131.493 258.711 130.8C260.018 130.107 261.498 129.76 263.151 129.76C264.404 129.76 265.604 130.027 266.751 130.56C267.924 131.067 268.844 131.773 269.511 132.68V116H273.231ZM263.871 144.2C265.311 144.2 266.524 143.813 267.511 143.04C268.524 142.267 269.178 141.227 269.471 139.92V136.8C269.151 135.6 268.471 134.627 267.431 133.88C266.391 133.107 265.204 132.72 263.871 132.72C262.858 132.72 261.924 132.973 261.071 133.48C260.218 133.96 259.538 134.64 259.031 135.52C258.524 136.373 258.271 137.347 258.271 138.44C258.271 139.507 258.524 140.48 259.031 141.36C259.538 142.24 260.218 142.933 261.071 143.44C261.924 143.947 262.858 144.2 263.871 144.2ZM278.222 138.56C278.222 136.933 278.609 135.453 279.382 134.12C280.182 132.76 281.275 131.693 282.662 130.92C284.075 130.147 285.662 129.76 287.422 129.76C289.182 129.76 290.742 130.147 292.102 130.92C293.489 131.693 294.555 132.747 295.302 134.08C296.075 135.413 296.462 136.907 296.462 138.56C296.462 140.213 296.075 141.72 295.302 143.08C294.555 144.413 293.489 145.467 292.102 146.24C290.715 147.013 289.129 147.4 287.342 147.4C285.609 147.4 284.049 147.04 282.662 146.32C281.275 145.573 280.182 144.533 279.382 143.2C278.609 141.867 278.222 140.32 278.222 138.56ZM281.982 138.6C281.982 139.64 282.209 140.6 282.662 141.48C283.142 142.36 283.782 143.053 284.582 143.56C285.409 144.067 286.315 144.32 287.302 144.32C288.849 144.32 290.129 143.773 291.142 142.68C292.155 141.587 292.662 140.227 292.662 138.6C292.662 136.973 292.155 135.613 291.142 134.52C290.129 133.4 288.849 132.84 287.302 132.84C286.289 132.84 285.382 133.107 284.582 133.64C283.782 134.147 283.142 134.84 282.662 135.72C282.209 136.6 281.982 137.56 281.982 138.6ZM318.939 130.44V147.12C318.939 148.64 318.552 150.013 317.779 151.24C317.005 152.467 315.899 153.44 314.459 154.16C313.045 154.88 311.379 155.24 309.459 155.24C307.779 155.24 306.325 154.96 305.099 154.4C303.899 153.84 302.685 153.013 301.459 151.92L303.659 149.36C304.565 150.213 305.472 150.853 306.379 151.28C307.285 151.733 308.285 151.96 309.379 151.96C311.219 151.96 312.632 151.52 313.619 150.64C314.632 149.76 315.152 148.573 315.179 147.08L315.219 143.96C314.605 145 313.699 145.84 312.499 146.48C311.325 147.093 309.965 147.4 308.419 147.4C306.899 147.4 305.499 147.013 304.219 146.24C302.939 145.467 301.912 144.413 301.139 143.08C300.392 141.747 300.019 140.267 300.019 138.64C300.019 136.96 300.405 135.453 301.179 134.12C301.979 132.76 303.045 131.693 304.379 130.92C305.712 130.147 307.139 129.76 308.659 129.76C310.072 129.76 311.379 130.04 312.579 130.6C313.779 131.16 314.672 131.88 315.259 132.76L315.539 130.44H318.939ZM309.499 144.32C310.912 144.32 312.139 143.933 313.179 143.16C314.219 142.387 314.899 141.373 315.219 140.12V136.84C314.845 135.64 314.139 134.68 313.099 133.96C312.059 133.213 310.859 132.84 309.499 132.84C307.872 132.84 306.512 133.373 305.419 134.44C304.325 135.507 303.779 136.867 303.779 138.52C303.779 139.587 304.032 140.56 304.539 141.44C305.045 142.32 305.739 143.027 306.619 143.56C307.499 144.067 308.459 144.32 309.499 144.32ZM323.524 144.88C323.524 144.293 323.737 143.787 324.164 143.36C324.591 142.933 325.084 142.72 325.644 142.72C326.151 142.72 326.617 142.933 327.044 143.36C327.497 143.787 327.724 144.293 327.724 144.88C327.724 145.493 327.511 146 327.084 146.4C326.657 146.8 326.177 147 325.644 147C325.084 147 324.591 146.8 324.164 146.4C323.737 146 323.524 145.493 323.524 144.88Z" fill="black"/>
<path d="M12.5 272.008H7.088V270.6H19.54V272.008H14.128V286H12.5V272.008ZM27.7068 274.34C29.1588 274.34 30.3101 274.765 31.1608 275.616C32.0261 276.452 32.4588 277.677 32.4588 279.29V286H30.8968V279.444C30.8968 278.241 30.5961 277.325 29.9948 276.694C29.3935 276.063 28.5355 275.748 27.4208 275.748C26.1741 275.748 25.1841 276.122 24.4508 276.87C23.7321 277.603 23.3728 278.623 23.3728 279.928V286H21.8108V269.676H23.3728V276.452C23.7981 275.777 24.3848 275.257 25.1328 274.89C25.8808 274.523 26.7388 274.34 27.7068 274.34ZM46.8185 280.698H37.1385C37.2265 281.901 37.6885 282.876 38.5245 283.624C39.3605 284.357 40.4165 284.724 41.6925 284.724C42.4111 284.724 43.0711 284.599 43.6725 284.35C44.2738 284.086 44.7945 283.705 45.2345 283.206L46.1145 284.218C45.6011 284.834 44.9558 285.303 44.1785 285.626C43.4158 285.949 42.5725 286.11 41.6485 286.11C40.4605 286.11 39.4045 285.861 38.4805 285.362C37.5711 284.849 36.8598 284.145 36.3465 283.25C35.8331 282.355 35.5765 281.343 35.5765 280.214C35.5765 279.085 35.8185 278.073 36.3025 277.178C36.8011 276.283 37.4758 275.587 38.3265 275.088C39.1918 274.589 40.1598 274.34 41.2305 274.34C42.3011 274.34 43.2618 274.589 44.1125 275.088C44.9631 275.587 45.6305 276.283 46.1145 277.178C46.5985 278.058 46.8405 279.07 46.8405 280.214L46.8185 280.698ZM41.2305 275.682C40.1158 275.682 39.1771 276.041 38.4145 276.76C37.6665 277.464 37.2411 278.388 37.1385 279.532H45.3445C45.2418 278.388 44.8091 277.464 44.0465 276.76C43.2985 276.041 42.3598 275.682 41.2305 275.682ZM66.3376 274.428V290.268H64.7756V283.822C64.2916 284.57 63.6683 285.142 62.9056 285.538C62.1576 285.919 61.3143 286.11 60.3756 286.11C59.2756 286.11 58.2856 285.868 57.4056 285.384C56.5403 284.885 55.8583 284.189 55.3596 283.294C54.8609 282.399 54.6116 281.373 54.6116 280.214C54.6116 279.07 54.8609 278.051 55.3596 277.156C55.8583 276.261 56.5476 275.572 57.4276 275.088C58.3076 274.589 59.2903 274.34 60.3756 274.34C61.3436 274.34 62.2089 274.545 62.9716 274.956C63.7489 275.367 64.3723 275.953 64.8416 276.716V274.428H66.3376ZM60.5076 284.724C61.3143 284.724 62.0403 284.541 62.6856 284.174C63.3456 283.793 63.8589 283.257 64.2256 282.568C64.6069 281.879 64.7976 281.094 64.7976 280.214C64.7976 279.334 64.6069 278.557 64.2256 277.882C63.8589 277.193 63.3456 276.657 62.6856 276.276C62.0403 275.895 61.3143 275.704 60.5076 275.704C59.6863 275.704 58.9456 275.895 58.2856 276.276C57.6403 276.657 57.1269 277.193 56.7456 277.882C56.3789 278.557 56.1956 279.334 56.1956 280.214C56.1956 281.094 56.3789 281.879 56.7456 282.568C57.1269 283.257 57.6403 283.793 58.2856 284.174C58.9456 284.541 59.6863 284.724 60.5076 284.724ZM81.1158 274.428V286H79.6198V283.888C79.2091 284.592 78.6444 285.142 77.9258 285.538C77.2071 285.919 76.3858 286.11 75.4618 286.11C73.9511 286.11 72.7558 285.692 71.8758 284.856C71.0104 284.005 70.5778 282.766 70.5778 281.138V274.428H72.1398V280.984C72.1398 282.201 72.4404 283.125 73.0418 283.756C73.6431 284.387 74.5011 284.702 75.6158 284.702C76.8331 284.702 77.7938 284.335 78.4978 283.602C79.2018 282.854 79.5538 281.82 79.5538 280.5V274.428H81.1158ZM85.4905 274.428H87.0525V286H85.4905V274.428ZM86.2825 271.898C85.9598 271.898 85.6885 271.788 85.4685 271.568C85.2485 271.348 85.1385 271.084 85.1385 270.776C85.1385 270.483 85.2485 270.226 85.4685 270.006C85.6885 269.786 85.9598 269.676 86.2825 269.676C86.6052 269.676 86.8765 269.786 87.0965 270.006C87.3165 270.211 87.4265 270.461 87.4265 270.754C87.4265 271.077 87.3165 271.348 87.0965 271.568C86.8765 271.788 86.6052 271.898 86.2825 271.898ZM96.1947 286.11C95.0507 286.11 94.024 285.861 93.1147 285.362C92.22 284.863 91.516 284.167 91.0027 283.272C90.4894 282.363 90.2327 281.343 90.2327 280.214C90.2327 279.085 90.4894 278.073 91.0027 277.178C91.516 276.283 92.22 275.587 93.1147 275.088C94.024 274.589 95.0507 274.34 96.1947 274.34C97.192 274.34 98.0794 274.538 98.8567 274.934C99.6487 275.315 100.272 275.88 100.727 276.628L99.5607 277.42C99.1794 276.848 98.6954 276.423 98.1087 276.144C97.522 275.851 96.884 275.704 96.1947 275.704C95.3587 275.704 94.6034 275.895 93.9287 276.276C93.2687 276.643 92.748 277.171 92.3667 277.86C92 278.549 91.8167 279.334 91.8167 280.214C91.8167 281.109 92 281.901 92.3667 282.59C92.748 283.265 93.2687 283.793 93.9287 284.174C94.6034 284.541 95.3587 284.724 96.1947 284.724C96.884 284.724 97.522 284.585 98.1087 284.306C98.6954 284.027 99.1794 283.602 99.5607 283.03L100.727 283.822C100.272 284.57 99.6487 285.142 98.8567 285.538C98.0647 285.919 97.1774 286.11 96.1947 286.11ZM107.913 280.192L105.185 282.7V286H103.623V269.676H105.185V280.742L112.093 274.428H114.029L109.079 279.158L114.491 286H112.577L107.913 280.192ZM128.556 274.34C129.641 274.34 130.624 274.589 131.504 275.088C132.384 275.572 133.073 276.261 133.572 277.156C134.071 278.051 134.32 279.07 134.32 280.214C134.32 281.358 134.071 282.377 133.572 283.272C133.073 284.167 132.384 284.863 131.504 285.362C130.624 285.861 129.641 286.11 128.556 286.11C127.588 286.11 126.715 285.905 125.938 285.494C125.175 285.083 124.559 284.489 124.09 283.712V286H122.594V269.676H124.156V276.628C124.64 275.88 125.256 275.315 126.004 274.934C126.767 274.538 127.617 274.34 128.556 274.34ZM128.446 284.724C129.253 284.724 129.986 284.541 130.646 284.174C131.306 283.793 131.819 283.257 132.186 282.568C132.567 281.879 132.758 281.094 132.758 280.214C132.758 279.334 132.567 278.549 132.186 277.86C131.819 277.171 131.306 276.643 130.646 276.276C129.986 275.895 129.253 275.704 128.446 275.704C127.625 275.704 126.884 275.895 126.224 276.276C125.579 276.643 125.065 277.171 124.684 277.86C124.317 278.549 124.134 279.334 124.134 280.214C124.134 281.094 124.317 281.879 124.684 282.568C125.065 283.257 125.579 283.793 126.224 284.174C126.884 284.541 127.625 284.724 128.446 284.724ZM139 276.694C139.367 275.917 139.91 275.33 140.628 274.934C141.362 274.538 142.264 274.34 143.334 274.34V275.858L142.96 275.836C141.743 275.836 140.79 276.21 140.1 276.958C139.411 277.706 139.066 278.755 139.066 280.104V286H137.504V274.428H139V276.694ZM150.785 286.11C149.67 286.11 148.666 285.861 147.771 285.362C146.876 284.849 146.172 284.145 145.659 283.25C145.146 282.355 144.889 281.343 144.889 280.214C144.889 279.085 145.146 278.073 145.659 277.178C146.172 276.283 146.876 275.587 147.771 275.088C148.666 274.589 149.67 274.34 150.785 274.34C151.9 274.34 152.904 274.589 153.799 275.088C154.694 275.587 155.39 276.283 155.889 277.178C156.402 278.073 156.659 279.085 156.659 280.214C156.659 281.343 156.402 282.355 155.889 283.25C155.39 284.145 154.694 284.849 153.799 285.362C152.904 285.861 151.9 286.11 150.785 286.11ZM150.785 284.724C151.606 284.724 152.34 284.541 152.985 284.174C153.645 283.793 154.158 283.257 154.525 282.568C154.892 281.879 155.075 281.094 155.075 280.214C155.075 279.334 154.892 278.549 154.525 277.86C154.158 277.171 153.645 276.643 152.985 276.276C152.34 275.895 151.606 275.704 150.785 275.704C149.964 275.704 149.223 275.895 148.563 276.276C147.918 276.643 147.404 277.171 147.023 277.86C146.656 278.549 146.473 279.334 146.473 280.214C146.473 281.094 146.656 281.879 147.023 282.568C147.404 283.257 147.918 283.793 148.563 284.174C149.223 284.541 149.964 284.724 150.785 284.724ZM176.51 274.428L172.132 286H170.658L167.006 276.518L163.354 286H161.88L157.524 274.428H159.02L162.65 284.262L166.368 274.428H167.71L171.406 284.262L175.08 274.428H176.51ZM184.758 274.34C186.21 274.34 187.361 274.765 188.212 275.616C189.077 276.452 189.51 277.677 189.51 279.29V286H187.948V279.444C187.948 278.241 187.647 277.325 187.046 276.694C186.444 276.063 185.586 275.748 184.472 275.748C183.225 275.748 182.235 276.122 181.502 276.87C180.783 277.603 180.424 278.623 180.424 279.928V286H178.862V274.428H180.358V276.562C180.783 275.858 181.37 275.315 182.118 274.934C182.88 274.538 183.76 274.34 184.758 274.34ZM203.336 270.886C202.661 270.886 202.148 271.069 201.796 271.436C201.459 271.803 201.29 272.345 201.29 273.064V274.428H204.854V275.748H201.334V286H199.772V275.748H197.704V274.428H199.772V272.998C199.772 271.942 200.073 271.106 200.674 270.49C201.29 269.874 202.155 269.566 203.27 269.566C203.71 269.566 204.135 269.632 204.546 269.764C204.957 269.881 205.301 270.057 205.58 270.292L205.052 271.458C204.597 271.077 204.025 270.886 203.336 270.886ZM211.5 286.11C210.385 286.11 209.38 285.861 208.486 285.362C207.591 284.849 206.887 284.145 206.374 283.25C205.86 282.355 205.604 281.343 205.604 280.214C205.604 279.085 205.86 278.073 206.374 277.178C206.887 276.283 207.591 275.587 208.486 275.088C209.38 274.589 210.385 274.34 211.5 274.34C212.614 274.34 213.619 274.589 214.514 275.088C215.408 275.587 216.105 276.283 216.604 277.178C217.117 278.073 217.374 279.085 217.374 280.214C217.374 281.343 217.117 282.355 216.604 283.25C216.105 284.145 215.408 284.849 214.514 285.362C213.619 285.861 212.614 286.11 211.5 286.11ZM211.5 284.724C212.321 284.724 213.054 284.541 213.7 284.174C214.36 283.793 214.873 283.257 215.24 282.568C215.606 281.879 215.79 281.094 215.79 280.214C215.79 279.334 215.606 278.549 215.24 277.86C214.873 277.171 214.36 276.643 213.7 276.276C213.054 275.895 212.321 275.704 211.5 275.704C210.678 275.704 209.938 275.895 209.278 276.276C208.632 276.643 208.119 277.171 207.738 277.86C207.371 278.549 207.188 279.334 207.188 280.214C207.188 281.094 207.371 281.879 207.738 282.568C208.119 283.257 208.632 283.793 209.278 284.174C209.938 284.541 210.678 284.724 211.5 284.724ZM227.525 286L223.851 281.16L220.155 286H218.395L222.971 280.06L218.615 274.428H220.375L223.851 278.96L227.327 274.428H229.043L224.687 280.06L229.307 286H227.525ZM235.948 290.378C235.464 290.378 235.01 290.312 234.584 290.18C234.144 290.063 233.785 289.879 233.506 289.63L234.056 288.442C234.511 288.838 235.112 289.036 235.86 289.036C236.476 289.036 236.946 288.853 237.268 288.486C237.606 288.119 237.774 287.577 237.774 286.858V274.428H239.336V286.858C239.336 287.943 239.043 288.801 238.456 289.432C237.87 290.063 237.034 290.378 235.948 290.378ZM238.566 271.876C238.244 271.876 237.972 271.766 237.752 271.546C237.532 271.326 237.422 271.062 237.422 270.754C237.422 270.461 237.532 270.204 237.752 269.984C237.972 269.764 238.244 269.654 238.566 269.654C238.889 269.654 239.16 269.764 239.38 269.984C239.6 270.189 239.71 270.439 239.71 270.732C239.71 271.055 239.6 271.326 239.38 271.546C239.16 271.766 238.889 271.876 238.566 271.876ZM254.129 274.428V286H252.633V283.888C252.223 284.592 251.658 285.142 250.939 285.538C250.221 285.919 249.399 286.11 248.475 286.11C246.965 286.11 245.769 285.692 244.889 284.856C244.024 284.005 243.591 282.766 243.591 281.138V274.428H245.153V280.984C245.153 282.201 245.454 283.125 246.055 283.756C246.657 284.387 247.515 284.702 248.629 284.702C249.847 284.702 250.807 284.335 251.511 283.602C252.215 282.854 252.567 281.82 252.567 280.5V274.428H254.129ZM272.936 274.34C274.388 274.34 275.525 274.758 276.346 275.594C277.182 276.43 277.6 277.662 277.6 279.29V286H276.038V279.444C276.038 278.241 275.745 277.325 275.158 276.694C274.586 276.063 273.772 275.748 272.716 275.748C271.514 275.748 270.568 276.122 269.878 276.87C269.189 277.603 268.844 278.623 268.844 279.928V286H267.282V279.444C267.282 278.241 266.989 277.325 266.402 276.694C265.83 276.063 265.009 275.748 263.938 275.748C262.75 275.748 261.804 276.122 261.1 276.87C260.411 277.603 260.066 278.623 260.066 279.928V286H258.504V274.428H260V276.54C260.411 275.836 260.983 275.293 261.716 274.912C262.45 274.531 263.293 274.34 264.246 274.34C265.214 274.34 266.05 274.545 266.754 274.956C267.473 275.367 268.008 275.975 268.36 276.782C268.786 276.019 269.394 275.425 270.186 275C270.993 274.56 271.91 274.34 272.936 274.34ZM287.798 274.34C288.884 274.34 289.866 274.589 290.746 275.088C291.626 275.572 292.316 276.261 292.814 277.156C293.313 278.051 293.562 279.07 293.562 280.214C293.562 281.373 293.313 282.399 292.814 283.294C292.316 284.189 291.626 284.885 290.746 285.384C289.881 285.868 288.898 286.11 287.798 286.11C286.86 286.11 286.009 285.919 285.246 285.538C284.498 285.142 283.882 284.57 283.398 283.822V290.268H281.836V274.428H283.332V276.716C283.802 275.953 284.418 275.367 285.18 274.956C285.958 274.545 286.83 274.34 287.798 274.34ZM287.688 284.724C288.495 284.724 289.228 284.541 289.888 284.174C290.548 283.793 291.062 283.257 291.428 282.568C291.81 281.879 292 281.094 292 280.214C292 279.334 291.81 278.557 291.428 277.882C291.062 277.193 290.548 276.657 289.888 276.276C289.228 275.895 288.495 275.704 287.688 275.704C286.867 275.704 286.126 275.895 285.466 276.276C284.821 276.657 284.308 277.193 283.926 277.882C283.56 278.557 283.376 279.334 283.376 280.214C283.376 281.094 283.56 281.879 283.926 282.568C284.308 283.257 284.821 283.793 285.466 284.174C286.126 284.541 286.867 284.724 287.688 284.724ZM299.848 286.11C298.91 286.11 298.008 285.978 297.142 285.714C296.292 285.435 295.624 285.091 295.14 284.68L295.844 283.448C296.328 283.829 296.937 284.145 297.67 284.394C298.404 284.629 299.166 284.746 299.958 284.746C301.014 284.746 301.792 284.585 302.29 284.262C302.804 283.925 303.06 283.455 303.06 282.854C303.06 282.429 302.921 282.099 302.642 281.864C302.364 281.615 302.012 281.431 301.586 281.314C301.161 281.182 300.596 281.057 299.892 280.94C298.954 280.764 298.198 280.588 297.626 280.412C297.054 280.221 296.563 279.906 296.152 279.466C295.756 279.026 295.558 278.417 295.558 277.64C295.558 276.672 295.962 275.88 296.768 275.264C297.575 274.648 298.697 274.34 300.134 274.34C300.882 274.34 301.63 274.443 302.378 274.648C303.126 274.839 303.742 275.095 304.226 275.418L303.544 276.672C302.591 276.012 301.454 275.682 300.134 275.682C299.137 275.682 298.382 275.858 297.868 276.21C297.37 276.562 297.12 277.024 297.12 277.596C297.12 278.036 297.26 278.388 297.538 278.652C297.832 278.916 298.191 279.114 298.616 279.246C299.042 279.363 299.628 279.488 300.376 279.62C301.3 279.796 302.041 279.972 302.598 280.148C303.156 280.324 303.632 280.625 304.028 281.05C304.424 281.475 304.622 282.062 304.622 282.81C304.622 283.822 304.197 284.629 303.346 285.23C302.51 285.817 301.344 286.11 299.848 286.11ZM317.998 286.11C316.883 286.11 315.879 285.861 314.984 285.362C314.089 284.849 313.385 284.145 312.872 283.25C312.359 282.355 312.102 281.343 312.102 280.214C312.102 279.085 312.359 278.073 312.872 277.178C313.385 276.283 314.089 275.587 314.984 275.088C315.879 274.589 316.883 274.34 317.998 274.34C319.113 274.34 320.117 274.589 321.012 275.088C321.907 275.587 322.603 276.283 323.102 277.178C323.615 278.073 323.872 279.085 323.872 280.214C323.872 281.343 323.615 282.355 323.102 283.25C322.603 284.145 321.907 284.849 321.012 285.362C320.117 285.861 319.113 286.11 317.998 286.11ZM317.998 284.724C318.819 284.724 319.553 284.541 320.198 284.174C320.858 283.793 321.371 283.257 321.738 282.568C322.105 281.879 322.288 281.094 322.288 280.214C322.288 279.334 322.105 278.549 321.738 277.86C321.371 277.171 320.858 276.643 320.198 276.276C319.553 275.895 318.819 275.704 317.998 275.704C317.177 275.704 316.436 275.895 315.776 276.276C315.131 276.643 314.617 277.171 314.236 277.86C313.869 278.549 313.686 279.334 313.686 280.214C313.686 281.094 313.869 281.879 314.236 282.568C314.617 283.257 315.131 283.793 315.776 284.174C316.436 284.541 317.177 284.724 317.998 284.724ZM336.463 274.428L331.315 286H329.709L324.583 274.428H326.211L330.545 284.284L334.923 274.428H336.463ZM348.416 280.698H338.736C338.824 281.901 339.286 282.876 340.122 283.624C340.958 284.357 342.014 284.724 343.29 284.724C344.009 284.724 344.669 284.599 345.27 284.35C345.871 284.086 346.392 283.705 346.832 283.206L347.712 284.218C347.199 284.834 346.553 285.303 345.776 285.626C345.013 285.949 344.17 286.11 343.246 286.11C342.058 286.11 341.002 285.861 340.078 285.362C339.169 284.849 338.457 284.145 337.944 283.25C337.431 282.355 337.174 281.343 337.174 280.214C337.174 279.085 337.416 278.073 337.9 277.178C338.399 276.283 339.073 275.587 339.924 275.088C340.789 274.589 341.757 274.34 342.828 274.34C343.899 274.34 344.859 274.589 345.71 275.088C346.561 275.587 347.228 276.283 347.712 277.178C348.196 278.058 348.438 279.07 348.438 280.214L348.416 280.698ZM342.828 275.682C341.713 275.682 340.775 276.041 340.012 276.76C339.264 277.464 338.839 278.388 338.736 279.532H346.942C346.839 278.388 346.407 277.464 345.644 276.76C344.896 276.041 343.957 275.682 342.828 275.682ZM353.113 276.694C353.48 275.917 354.023 275.33 354.741 274.934C355.475 274.538 356.377 274.34 357.447 274.34V275.858L357.073 275.836C355.856 275.836 354.903 276.21 354.213 276.958C353.524 277.706 353.179 278.755 353.179 280.104V286H351.617V274.428H353.113V276.694ZM372.299 285.296C372.006 285.56 371.639 285.765 371.199 285.912C370.774 286.044 370.327 286.11 369.857 286.11C368.772 286.11 367.936 285.817 367.349 285.23C366.763 284.643 366.469 283.815 366.469 282.744V275.748H364.401V274.428H366.469V271.898H368.031V274.428H371.551V275.748H368.031V282.656C368.031 283.345 368.2 283.873 368.537 284.24C368.889 284.592 369.388 284.768 370.033 284.768C370.356 284.768 370.664 284.717 370.957 284.614C371.265 284.511 371.529 284.365 371.749 284.174L372.299 285.296ZM381.039 274.34C382.491 274.34 383.642 274.765 384.493 275.616C385.358 276.452 385.791 277.677 385.791 279.29V286H384.229V279.444C384.229 278.241 383.928 277.325 383.327 276.694C382.726 276.063 381.868 275.748 380.753 275.748C379.506 275.748 378.516 276.122 377.783 276.87C377.064 277.603 376.705 278.623 376.705 279.928V286H375.143V269.676H376.705V276.452C377.13 275.777 377.717 275.257 378.465 274.89C379.213 274.523 380.071 274.34 381.039 274.34ZM400.15 280.698H390.47C390.558 281.901 391.02 282.876 391.856 283.624C392.692 284.357 393.748 284.724 395.024 284.724C395.743 284.724 396.403 284.599 397.004 284.35C397.606 284.086 398.126 283.705 398.566 283.206L399.446 284.218C398.933 284.834 398.288 285.303 397.51 285.626C396.748 285.949 395.904 286.11 394.98 286.11C393.792 286.11 392.736 285.861 391.812 285.362C390.903 284.849 390.192 284.145 389.678 283.25C389.165 282.355 388.908 281.343 388.908 280.214C388.908 279.085 389.15 278.073 389.634 277.178C390.133 276.283 390.808 275.587 391.658 275.088C392.524 274.589 393.492 274.34 394.562 274.34C395.633 274.34 396.594 274.589 397.444 275.088C398.295 275.587 398.962 276.283 399.446 277.178C399.93 278.058 400.172 279.07 400.172 280.214L400.15 280.698ZM394.562 275.682C393.448 275.682 392.509 276.041 391.746 276.76C390.998 277.464 390.573 278.388 390.47 279.532H398.676C398.574 278.388 398.141 277.464 397.378 276.76C396.63 276.041 395.692 275.682 394.562 275.682ZM409.11 269.676H410.672V286H409.11V269.676ZM419.066 274.34C420.577 274.34 421.735 274.721 422.542 275.484C423.349 276.232 423.752 277.347 423.752 278.828V286H422.256V284.196C421.904 284.797 421.383 285.267 420.694 285.604C420.019 285.941 419.213 286.11 418.274 286.11C416.983 286.11 415.957 285.802 415.194 285.186C414.431 284.57 414.05 283.756 414.05 282.744C414.05 281.761 414.402 280.969 415.106 280.368C415.825 279.767 416.961 279.466 418.516 279.466H422.19V278.762C422.19 277.765 421.911 277.009 421.354 276.496C420.797 275.968 419.983 275.704 418.912 275.704C418.179 275.704 417.475 275.829 416.8 276.078C416.125 276.313 415.546 276.643 415.062 277.068L414.358 275.902C414.945 275.403 415.649 275.022 416.47 274.758C417.291 274.479 418.157 274.34 419.066 274.34ZM418.516 284.878C419.396 284.878 420.151 284.68 420.782 284.284C421.413 283.873 421.882 283.287 422.19 282.524V280.632H418.56C416.58 280.632 415.59 281.321 415.59 282.7C415.59 283.375 415.847 283.91 416.36 284.306C416.873 284.687 417.592 284.878 418.516 284.878ZM436.156 284.702V286H426.74V284.966L434.022 275.748H426.872V274.428H436.024V275.462L428.742 284.702H436.156ZM448.74 274.428L442.954 287.386C442.485 288.471 441.942 289.241 441.326 289.696C440.71 290.151 439.969 290.378 439.104 290.378C438.547 290.378 438.026 290.29 437.542 290.114C437.058 289.938 436.64 289.674 436.288 289.322L437.014 288.156C437.601 288.743 438.305 289.036 439.126 289.036C439.654 289.036 440.101 288.889 440.468 288.596C440.849 288.303 441.201 287.804 441.524 287.1L442.03 285.978L436.86 274.428H438.488L442.844 284.262L447.2 274.428H448.74ZM467.258 269.676V286H465.762V283.712C465.292 284.489 464.669 285.083 463.892 285.494C463.129 285.905 462.264 286.11 461.296 286.11C460.21 286.11 459.228 285.861 458.348 285.362C457.468 284.863 456.778 284.167 456.28 283.272C455.781 282.377 455.532 281.358 455.532 280.214C455.532 279.07 455.781 278.051 456.28 277.156C456.778 276.261 457.468 275.572 458.348 275.088C459.228 274.589 460.21 274.34 461.296 274.34C462.234 274.34 463.078 274.538 463.826 274.934C464.588 275.315 465.212 275.88 465.696 276.628V269.676H467.258ZM461.428 284.724C462.234 284.724 462.96 284.541 463.606 284.174C464.266 283.793 464.779 283.257 465.146 282.568C465.527 281.879 465.718 281.094 465.718 280.214C465.718 279.334 465.527 278.549 465.146 277.86C464.779 277.171 464.266 276.643 463.606 276.276C462.96 275.895 462.234 275.704 461.428 275.704C460.606 275.704 459.866 275.895 459.206 276.276C458.56 276.643 458.047 277.171 457.666 277.86C457.299 278.549 457.116 279.334 457.116 280.214C457.116 281.094 457.299 281.879 457.666 282.568C458.047 283.257 458.56 283.793 459.206 284.174C459.866 284.541 460.606 284.724 461.428 284.724ZM476.338 286.11C475.223 286.11 474.218 285.861 473.324 285.362C472.429 284.849 471.725 284.145 471.212 283.25C470.698 282.355 470.442 281.343 470.442 280.214C470.442 279.085 470.698 278.073 471.212 277.178C471.725 276.283 472.429 275.587 473.324 275.088C474.218 274.589 475.223 274.34 476.338 274.34C477.452 274.34 478.457 274.589 479.352 275.088C480.246 275.587 480.943 276.283 481.442 277.178C481.955 278.073 482.212 279.085 482.212 280.214C482.212 281.343 481.955 282.355 481.442 283.25C480.943 284.145 480.246 284.849 479.352 285.362C478.457 285.861 477.452 286.11 476.338 286.11ZM476.338 284.724C477.159 284.724 477.892 284.541 478.538 284.174C479.198 283.793 479.711 283.257 480.078 282.568C480.444 281.879 480.628 281.094 480.628 280.214C480.628 279.334 480.444 278.549 480.078 277.86C479.711 277.171 479.198 276.643 478.538 276.276C477.892 275.895 477.159 275.704 476.338 275.704C475.516 275.704 474.776 275.895 474.116 276.276C473.47 276.643 472.957 277.171 472.576 277.86C472.209 278.549 472.026 279.334 472.026 280.214C472.026 281.094 472.209 281.879 472.576 282.568C472.957 283.257 473.47 283.793 474.116 284.174C474.776 284.541 475.516 284.724 476.338 284.724ZM496.115 274.428V284.592C496.115 286.557 495.631 288.009 494.663 288.948C493.709 289.901 492.265 290.378 490.329 290.378C489.258 290.378 488.239 290.217 487.271 289.894C486.317 289.586 485.54 289.153 484.939 288.596L485.731 287.408C486.288 287.907 486.963 288.295 487.755 288.574C488.561 288.853 489.405 288.992 490.285 288.992C491.751 288.992 492.829 288.647 493.519 287.958C494.208 287.283 494.553 286.227 494.553 284.79V283.316C494.069 284.049 493.431 284.607 492.639 284.988C491.861 285.369 490.996 285.56 490.043 285.56C488.957 285.56 487.967 285.325 487.073 284.856C486.193 284.372 485.496 283.705 484.983 282.854C484.484 281.989 484.235 281.013 484.235 279.928C484.235 278.843 484.484 277.875 484.983 277.024C485.496 276.173 486.193 275.513 487.073 275.044C487.953 274.575 488.943 274.34 490.043 274.34C491.025 274.34 491.913 274.538 492.705 274.934C493.497 275.33 494.135 275.902 494.619 276.65V274.428H496.115ZM490.197 284.174C491.033 284.174 491.788 283.998 492.463 283.646C493.137 283.279 493.658 282.773 494.025 282.128C494.406 281.483 494.597 280.749 494.597 279.928C494.597 279.107 494.406 278.381 494.025 277.75C493.658 277.105 493.137 276.606 492.463 276.254C491.803 275.887 491.047 275.704 490.197 275.704C489.361 275.704 488.605 275.88 487.931 276.232C487.271 276.584 486.75 277.083 486.369 277.728C486.002 278.373 485.819 279.107 485.819 279.928C485.819 280.749 486.002 281.483 486.369 282.128C486.75 282.773 487.271 283.279 487.931 283.646C488.605 283.998 489.361 284.174 490.197 284.174ZM500.637 286.11C500.314 286.11 500.035 285.993 499.801 285.758C499.581 285.523 499.471 285.237 499.471 284.9C499.471 284.563 499.581 284.284 499.801 284.064C500.035 283.829 500.314 283.712 500.637 283.712C500.959 283.712 501.238 283.829 501.473 284.064C501.707 284.284 501.825 284.563 501.825 284.9C501.825 285.237 501.707 285.523 501.473 285.758C501.238 285.993 500.959 286.11 500.637 286.11Z" fill="black"/>
<path d="M31.866 225.8V244H30.02V229.44L22.87 241.686H21.96L14.81 229.518V244H12.964V225.8H14.55L22.454 239.294L30.28 225.8H31.866ZM42.996 244.13C41.6787 244.13 40.4914 243.835 39.434 243.246C38.3767 242.639 37.5447 241.807 36.938 240.75C36.3314 239.693 36.028 238.497 36.028 237.162C36.028 235.827 36.3314 234.631 36.938 233.574C37.5447 232.517 38.3767 231.693 39.434 231.104C40.4914 230.515 41.6787 230.22 42.996 230.22C44.3134 230.22 45.5007 230.515 46.558 231.104C47.6154 231.693 48.4387 232.517 49.028 233.574C49.6347 234.631 49.938 235.827 49.938 237.162C49.938 238.497 49.6347 239.693 49.028 240.75C48.4387 241.807 47.6154 242.639 46.558 243.246C45.5007 243.835 44.3134 244.13 42.996 244.13ZM42.996 242.492C43.9667 242.492 44.8334 242.275 45.596 241.842C46.376 241.391 46.9827 240.759 47.416 239.944C47.8494 239.129 48.066 238.202 48.066 237.162C48.066 236.122 47.8494 235.195 47.416 234.38C46.9827 233.565 46.376 232.941 45.596 232.508C44.8334 232.057 43.9667 231.832 42.996 231.832C42.0254 231.832 41.15 232.057 40.37 232.508C39.6074 232.941 39.0007 233.565 38.55 234.38C38.1167 235.195 37.9 236.122 37.9 237.162C37.9 238.202 38.1167 239.129 38.55 239.944C39.0007 240.759 39.6074 241.391 40.37 241.842C41.15 242.275 42.0254 242.492 42.996 242.492ZM60.6748 230.22C62.3908 230.22 63.7515 230.723 64.7568 231.728C65.7795 232.716 66.2908 234.163 66.2908 236.07V244H64.4448V236.252C64.4448 234.831 64.0895 233.747 63.3788 233.002C62.6681 232.257 61.6541 231.884 60.3368 231.884C58.8635 231.884 57.6935 232.326 56.8268 233.21C55.9775 234.077 55.5528 235.281 55.5528 236.824V244H53.7068V230.324H55.4748V232.846C55.9775 232.014 56.6708 231.373 57.5548 230.922C58.4561 230.454 59.4961 230.22 60.6748 230.22ZM78.5045 243.168C78.1578 243.48 77.7245 243.723 77.2045 243.896C76.7018 244.052 76.1732 244.13 75.6185 244.13C74.3358 244.13 73.3478 243.783 72.6545 243.09C71.9612 242.397 71.6145 241.417 71.6145 240.152V231.884H69.1705V230.324H71.6145V227.334H73.4605V230.324H77.6205V231.884H73.4605V240.048C73.4605 240.863 73.6598 241.487 74.0585 241.92C74.4745 242.336 75.0638 242.544 75.8265 242.544C76.2078 242.544 76.5718 242.483 76.9185 242.362C77.2825 242.241 77.5945 242.067 77.8545 241.842L78.5045 243.168ZM85.531 244.13C84.4217 244.13 83.3557 243.974 82.333 243.662C81.3277 243.333 80.539 242.925 79.967 242.44L80.799 240.984C81.371 241.435 82.0903 241.807 82.957 242.102C83.8237 242.379 84.725 242.518 85.661 242.518C86.909 242.518 87.8277 242.327 88.417 241.946C89.0237 241.547 89.327 240.993 89.327 240.282C89.327 239.779 89.1623 239.389 88.833 239.112C88.5037 238.817 88.0877 238.601 87.585 238.462C87.0823 238.306 86.415 238.159 85.583 238.02C84.4737 237.812 83.581 237.604 82.905 237.396C82.229 237.171 81.6483 236.798 81.163 236.278C80.695 235.758 80.461 235.039 80.461 234.12C80.461 232.976 80.9377 232.04 81.891 231.312C82.8443 230.584 84.1703 230.22 85.869 230.22C86.753 230.22 87.637 230.341 88.521 230.584C89.405 230.809 90.133 231.113 90.705 231.494L89.899 232.976C88.7723 232.196 87.429 231.806 85.869 231.806C84.6903 231.806 83.7977 232.014 83.191 232.43C82.6017 232.846 82.307 233.392 82.307 234.068C82.307 234.588 82.4717 235.004 82.801 235.316C83.1477 235.628 83.5723 235.862 84.075 236.018C84.5777 236.157 85.271 236.304 86.155 236.46C87.247 236.668 88.1223 236.876 88.781 237.084C89.4397 237.292 90.003 237.647 90.471 238.15C90.939 238.653 91.173 239.346 91.173 240.23C91.173 241.426 90.6703 242.379 89.665 243.09C88.677 243.783 87.299 244.13 85.531 244.13ZM106.494 237.734H95.0537C95.1577 239.155 95.7037 240.308 96.6917 241.192C97.6797 242.059 98.9277 242.492 100.436 242.492C101.285 242.492 102.065 242.345 102.776 242.05C103.486 241.738 104.102 241.287 104.622 240.698L105.662 241.894C105.055 242.622 104.292 243.177 103.374 243.558C102.472 243.939 101.476 244.13 100.384 244.13C98.9797 244.13 97.7317 243.835 96.6397 243.246C95.5651 242.639 94.7244 241.807 94.1177 240.75C93.5111 239.693 93.2077 238.497 93.2077 237.162C93.2077 235.827 93.4937 234.631 94.0657 233.574C94.6551 232.517 95.4524 231.693 96.4577 231.104C97.4804 230.515 98.6244 230.22 99.8897 230.22C101.155 230.22 102.29 230.515 103.296 231.104C104.301 231.693 105.09 232.517 105.662 233.574C106.234 234.614 106.52 235.81 106.52 237.162L106.494 237.734ZM99.8897 231.806C98.5724 231.806 97.4631 232.231 96.5617 233.08C95.6777 233.912 95.1751 235.004 95.0537 236.356H104.752C104.63 235.004 104.119 233.912 103.218 233.08C102.334 232.231 101.224 231.806 99.8897 231.806ZM112.045 233.002C112.478 232.083 113.12 231.39 113.969 230.922C114.836 230.454 115.902 230.22 117.167 230.22V232.014L116.725 231.988C115.286 231.988 114.16 232.43 113.345 233.314C112.53 234.198 112.123 235.437 112.123 237.032V244H110.277V230.324H112.045V233.002ZM122.278 233.002C122.711 232.083 123.352 231.39 124.202 230.922C125.068 230.454 126.134 230.22 127.4 230.22V232.014L126.958 231.988C125.519 231.988 124.392 232.43 123.578 233.314C122.763 234.198 122.356 235.437 122.356 237.032V244H120.51V230.324H122.278V233.002ZM135.501 230.22C137.286 230.22 138.655 230.671 139.609 231.572C140.562 232.456 141.039 233.773 141.039 235.524V244H139.271V241.868C138.855 242.579 138.239 243.133 137.425 243.532C136.627 243.931 135.674 244.13 134.565 244.13C133.039 244.13 131.826 243.766 130.925 243.038C130.023 242.31 129.573 241.348 129.573 240.152C129.573 238.991 129.989 238.055 130.821 237.344C131.67 236.633 133.013 236.278 134.851 236.278H139.193V235.446C139.193 234.267 138.863 233.375 138.205 232.768C137.546 232.144 136.584 231.832 135.319 231.832C134.452 231.832 133.62 231.979 132.823 232.274C132.025 232.551 131.341 232.941 130.769 233.444L129.937 232.066C130.63 231.477 131.462 231.026 132.433 230.714C133.403 230.385 134.426 230.22 135.501 230.22ZM134.851 242.674C135.891 242.674 136.783 242.44 137.529 241.972C138.274 241.487 138.829 240.793 139.193 239.892V237.656H134.903C132.563 237.656 131.393 238.471 131.393 240.1C131.393 240.897 131.696 241.53 132.303 241.998C132.909 242.449 133.759 242.674 134.851 242.674ZM153.255 243.168C152.908 243.48 152.475 243.723 151.955 243.896C151.452 244.052 150.923 244.13 150.369 244.13C149.086 244.13 148.098 243.783 147.405 243.09C146.711 242.397 146.365 241.417 146.365 240.152V231.884H143.921V230.324H146.365V227.334H148.211V230.324H152.371V231.884H148.211V240.048C148.211 240.863 148.41 241.487 148.809 241.92C149.225 242.336 149.814 242.544 150.577 242.544C150.958 242.544 151.322 242.483 151.669 242.362C152.033 242.241 152.345 242.067 152.605 241.842L153.255 243.168ZM176.238 244L172.078 238.15C171.61 238.202 171.124 238.228 170.622 238.228H165.734V244H163.81V225.8H170.622C172.944 225.8 174.764 226.355 176.082 227.464C177.399 228.573 178.058 230.099 178.058 232.04C178.058 233.461 177.694 234.666 176.966 235.654C176.255 236.625 175.232 237.327 173.898 237.76L178.344 244H176.238ZM170.57 236.59C172.372 236.59 173.75 236.191 174.704 235.394C175.657 234.597 176.134 233.479 176.134 232.04C176.134 230.567 175.657 229.44 174.704 228.66C173.75 227.863 172.372 227.464 170.57 227.464H165.734V236.59H170.57ZM194.117 237.734H182.677C182.781 239.155 183.327 240.308 184.315 241.192C185.303 242.059 186.551 242.492 188.059 242.492C188.908 242.492 189.688 242.345 190.399 242.05C191.109 241.738 191.725 241.287 192.245 240.698L193.285 241.894C192.678 242.622 191.915 243.177 190.997 243.558C190.095 243.939 189.099 244.13 188.007 244.13C186.603 244.13 185.355 243.835 184.263 243.246C183.188 242.639 182.347 241.807 181.741 240.75C181.134 239.693 180.831 238.497 180.831 237.162C180.831 235.827 181.117 234.631 181.689 233.574C182.278 232.517 183.075 231.693 184.081 231.104C185.103 230.515 186.247 230.22 187.513 230.22C188.778 230.22 189.913 230.515 190.919 231.104C191.924 231.693 192.713 232.517 193.285 233.574C193.857 234.614 194.143 235.81 194.143 237.162L194.117 237.734ZM187.513 231.806C186.195 231.806 185.086 232.231 184.185 233.08C183.301 233.912 182.798 235.004 182.677 236.356H192.375C192.253 235.004 191.742 233.912 190.841 233.08C189.957 232.231 188.847 231.806 187.513 231.806ZM210.562 230.324V242.336C210.562 244.659 209.99 246.375 208.846 247.484C207.72 248.611 206.012 249.174 203.724 249.174C202.459 249.174 201.254 248.983 200.11 248.602C198.984 248.238 198.065 247.727 197.354 247.068L198.29 245.664C198.949 246.253 199.746 246.713 200.682 247.042C201.636 247.371 202.632 247.536 203.672 247.536C205.406 247.536 206.68 247.129 207.494 246.314C208.309 245.517 208.716 244.269 208.716 242.57V240.828C208.144 241.695 207.39 242.353 206.454 242.804C205.536 243.255 204.513 243.48 203.386 243.48C202.104 243.48 200.934 243.203 199.876 242.648C198.836 242.076 198.013 241.287 197.406 240.282C196.817 239.259 196.522 238.107 196.522 236.824C196.522 235.541 196.817 234.397 197.406 233.392C198.013 232.387 198.836 231.607 199.876 231.052C200.916 230.497 202.086 230.22 203.386 230.22C204.548 230.22 205.596 230.454 206.532 230.922C207.468 231.39 208.222 232.066 208.794 232.95V230.324H210.562ZM203.568 241.842C204.556 241.842 205.449 241.634 206.246 241.218C207.044 240.785 207.659 240.187 208.092 239.424C208.543 238.661 208.768 237.795 208.768 236.824C208.768 235.853 208.543 234.995 208.092 234.25C207.659 233.487 207.044 232.898 206.246 232.482C205.466 232.049 204.574 231.832 203.568 231.832C202.58 231.832 201.688 232.04 200.89 232.456C200.11 232.872 199.495 233.461 199.044 234.224C198.611 234.987 198.394 235.853 198.394 236.824C198.394 237.795 198.611 238.661 199.044 239.424C199.495 240.187 200.11 240.785 200.89 241.218C201.688 241.634 202.58 241.842 203.568 241.842ZM228.048 230.324V244H226.28V241.504C225.795 242.336 225.128 242.986 224.278 243.454C223.429 243.905 222.458 244.13 221.366 244.13C219.581 244.13 218.168 243.636 217.128 242.648C216.106 241.643 215.594 240.178 215.594 238.254V230.324H217.44V238.072C217.44 239.511 217.796 240.603 218.506 241.348C219.217 242.093 220.231 242.466 221.548 242.466C222.987 242.466 224.122 242.033 224.954 241.166C225.786 240.282 226.202 239.06 226.202 237.5V230.324H228.048ZM233.219 224.708H235.065V244H233.219V224.708ZM244.985 230.22C246.77 230.22 248.14 230.671 249.093 231.572C250.046 232.456 250.523 233.773 250.523 235.524V244H248.755V241.868C248.339 242.579 247.724 243.133 246.909 243.532C246.112 243.931 245.158 244.13 244.049 244.13C242.524 244.13 241.31 243.766 240.409 243.038C239.508 242.31 239.057 241.348 239.057 240.152C239.057 238.991 239.473 238.055 240.305 237.344C241.154 236.633 242.498 236.278 244.335 236.278H248.677V235.446C248.677 234.267 248.348 233.375 247.689 232.768C247.03 232.144 246.068 231.832 244.803 231.832C243.936 231.832 243.104 231.979 242.307 232.274C241.51 232.551 240.825 232.941 240.253 233.444L239.421 232.066C240.114 231.477 240.946 231.026 241.917 230.714C242.888 230.385 243.91 230.22 244.985 230.22ZM244.335 242.674C245.375 242.674 246.268 242.44 247.013 241.972C247.758 241.487 248.313 240.793 248.677 239.892V237.656H244.387C242.047 237.656 240.877 238.471 240.877 240.1C240.877 240.897 241.18 241.53 241.787 241.998C242.394 242.449 243.243 242.674 244.335 242.674ZM257.305 233.002C257.738 232.083 258.38 231.39 259.229 230.922C260.096 230.454 261.162 230.22 262.427 230.22V232.014L261.985 231.988C260.546 231.988 259.42 232.43 258.605 233.314C257.79 234.198 257.383 235.437 257.383 237.032V244H255.537V230.324H257.305V233.002Z" fill="black"/>
<defs>
<filter id="filter0_d" x="1.65039" y="351.5" width="164.017" height="39.7539" filterUnits="userSpaceOnUse" color-interpolation-filters="sRGB">
<feFlood flood-opacity="0" result="BackgroundImageFix"/>
<feColorMatrix in="SourceAlpha" type="matrix" values="0 0 0 0 0 0 0 0 0 0 0 0 0 0 0 0 0 0 127 0"/>
<feOffset dy="5"/>
<feGaussianBlur stdDeviation="5"/>
<feColorMatrix type="matrix" values="0 0 0 0 0 0 0 0 0 0 0 0 0 0 0 0 0 0 0.08 0"/>
<feBlend mode="normal" in2="BackgroundImageFix" result="effect1_dropShadow"/>
<feBlend mode="normal" in="SourceGraphic" in2="effect1_dropShadow" result="shape"/>
</filter>
<filter id="filter1_d" x="0.429688" y="395.274" width="489.21" height="41.4199" filterUnits="userSpaceOnUse" color-interpolation-filters="sRGB">
<feFlood flood-opacity="0" result="BackgroundImageFix"/>
<feColorMatrix in="SourceAlpha" type="matrix" values="0 0 0 0 0 0 0 0 0 0 0 0 0 0 0 0 0 0 127 0"/>
<feOffset dy="5"/>
<feGaussianBlur stdDeviation="5"/>
<feColorMatrix type="matrix" values="0 0 0 0 0 0 0 0 0 0 0 0 0 0 0 0 0 0 0.08 0"/>
<feBlend mode="normal" in2="BackgroundImageFix" result="effect1_dropShadow"/>
<feBlend mode="normal" in="SourceGraphic" in2="effect1_dropShadow" result="shape"/>
</filter>
</defs>
</svg>
