<svg width="497" height="312" viewBox="0 0 497 312" fill="none" xmlns="http://www.w3.org/2000/svg">
<g filter="url(#filter0_d)">
<path d="M34.0723 45.9414H28.5059V61H18.2227V18.3438H35.0098C40.0684 18.3438 44.0234 19.4668 46.875 21.7129C49.7266 23.959 51.1523 27.1328 51.1523 31.2344C51.1523 34.2031 50.5469 36.6641 49.3359 38.6172C48.1445 40.5703 46.2695 42.1523 43.7109 43.3633L52.6172 60.5605V61H41.6016L34.0723 45.9414ZM28.5059 38.002H35.0098C36.9629 38.002 38.4277 37.4941 39.4043 36.4785C40.4004 35.4434 40.8984 34.0078 40.8984 32.1719C40.8984 30.3359 40.4004 28.9004 39.4043 27.8652C38.4082 26.8105 36.9434 26.2832 35.0098 26.2832H28.5059V38.002ZM54.4641 44.8574C54.4641 41.6934 55.0793 38.8809 56.3098 36.4199C57.5402 33.9395 59.3078 32.0352 61.6125 30.707C63.9172 29.3789 66.6223 28.7148 69.7277 28.7148C74.4738 28.7148 78.2141 30.1895 80.9484 33.1387C83.6828 36.0684 85.05 40.0625 85.05 45.1211V45.4727C85.05 50.4141 83.673 54.3398 80.9191 57.25C78.1848 60.1406 74.4738 61.5859 69.7863 61.5859C65.2746 61.5859 61.6516 60.2383 58.9172 57.543C56.1828 54.8281 54.7082 51.1562 54.4934 46.5273L54.4641 44.8574ZM64.3371 45.4727C64.3371 48.4023 64.7961 50.5508 65.7141 51.918C66.632 53.2852 67.9895 53.9688 69.7863 53.9688C73.302 53.9688 75.0988 51.2637 75.177 45.8535V44.8574C75.177 39.1738 73.3605 36.332 69.7277 36.332C66.427 36.332 64.6398 38.7832 64.3664 43.6855L64.3371 45.4727ZM117.629 45.4141C117.629 50.6094 116.555 54.6035 114.407 57.3965C112.258 60.1895 109.231 61.5859 105.325 61.5859C102.102 61.5859 99.5043 60.3066 97.5316 57.748L97.1215 61H88.2738V16H98.1469V31.8496C99.9828 29.7598 102.356 28.7148 105.266 28.7148C109.211 28.7148 112.258 30.1309 114.407 32.9629C116.555 35.7949 117.629 39.7793 117.629 44.916V45.4141ZM107.727 44.7988C107.727 41.752 107.317 39.584 106.496 38.2949C105.696 36.9863 104.455 36.332 102.776 36.332C100.549 36.332 99.0062 37.1816 98.1469 38.8809V51.4785C98.9867 53.1582 100.549 53.998 102.834 53.998C105.159 53.998 106.633 52.8652 107.258 50.5996C107.571 49.4863 107.727 47.5527 107.727 44.7988ZM119.564 44.8574C119.564 41.6934 120.179 38.8809 121.41 36.4199C122.64 33.9395 124.408 32.0352 126.713 30.707C129.017 29.3789 131.722 28.7148 134.828 28.7148C139.574 28.7148 143.314 30.1895 146.048 33.1387C148.783 36.0684 150.15 40.0625 150.15 45.1211V45.4727C150.15 50.4141 148.773 54.3398 146.019 57.25C143.285 60.1406 139.574 61.5859 134.886 61.5859C130.375 61.5859 126.752 60.2383 124.017 57.543C121.283 54.8281 119.808 51.1562 119.593 46.5273L119.564 44.8574ZM129.437 45.4727C129.437 48.4023 129.896 50.5508 130.814 51.918C131.732 53.2852 133.089 53.9688 134.886 53.9688C138.402 53.9688 140.199 51.2637 140.277 45.8535V44.8574C140.277 39.1738 138.461 36.332 134.828 36.332C131.527 36.332 129.74 38.7832 129.466 43.6855L129.437 45.4727ZM164.8 21.4199V29.3008H170.014V36.1562H164.8V50.6582C164.8 51.8496 165.014 52.6797 165.444 53.1484C165.874 53.6172 166.723 53.8516 167.993 53.8516C168.97 53.8516 169.79 53.793 170.454 53.6758V60.7363C168.677 61.3027 166.821 61.5859 164.887 61.5859C161.489 61.5859 158.979 60.7852 157.358 59.1836C155.737 57.582 154.927 55.1504 154.927 51.8887V36.1562H150.884V29.3008H154.927V21.4199H164.8ZM170.602 44.8574C170.602 41.6934 171.217 38.8809 172.447 36.4199C173.678 33.9395 175.445 32.0352 177.75 30.707C180.055 29.3789 182.76 28.7148 185.865 28.7148C190.611 28.7148 194.352 30.1895 197.086 33.1387C199.82 36.0684 201.188 40.0625 201.188 45.1211V45.4727C201.188 50.4141 199.811 54.3398 197.057 57.25C194.322 60.1406 190.611 61.5859 185.924 61.5859C181.412 61.5859 177.789 60.2383 175.055 57.543C172.32 54.8281 170.846 51.1562 170.631 46.5273L170.602 44.8574ZM180.475 45.4727C180.475 48.4023 180.934 50.5508 181.852 51.918C182.77 53.2852 184.127 53.9688 185.924 53.9688C189.439 53.9688 191.236 51.2637 191.314 45.8535V44.8574C191.314 39.1738 189.498 36.332 185.865 36.332C182.564 36.332 180.777 38.7832 180.504 43.6855L180.475 45.4727ZM218.534 61V18.3438H233.856C239.344 18.3438 243.514 19.3496 246.366 21.3613C249.237 23.373 250.672 26.293 250.672 30.1211C250.672 32.3281 250.164 34.2129 249.149 35.7754C248.133 37.3379 246.639 38.4902 244.666 39.2324C246.893 39.8184 248.602 40.9121 249.793 42.5137C250.985 44.1152 251.58 46.0684 251.58 48.373C251.58 52.5527 250.252 55.6973 247.596 57.8066C244.959 59.8965 241.043 60.9609 235.848 61H218.534ZM228.817 42.8652V53.0898H235.555C237.411 53.0898 238.836 52.6699 239.832 51.8301C240.829 50.9707 241.327 49.7695 241.327 48.2266C241.327 44.6719 239.559 42.8848 236.024 42.8652H228.817ZM228.817 36.127H234.178C236.424 36.1074 238.026 35.6973 238.983 34.8965C239.94 34.0957 240.418 32.9141 240.418 31.3516C240.418 29.5547 239.901 28.2656 238.866 27.4844C237.83 26.6836 236.161 26.2832 233.856 26.2832H228.817V36.127ZM266.025 61H256.123V16H266.025V61ZM288.79 61C288.438 60.3555 288.126 59.4082 287.852 58.1582C286.036 60.4434 283.497 61.5859 280.235 61.5859C277.247 61.5859 274.708 60.6875 272.618 58.8906C270.528 57.0742 269.483 54.7988 269.483 52.0645C269.483 48.627 270.753 46.0293 273.292 44.2715C275.831 42.5137 279.522 41.6348 284.366 41.6348H287.413V39.9648C287.413 37.0547 286.153 35.5996 283.634 35.5996C281.29 35.5996 280.118 36.752 280.118 39.0566H270.245C270.245 35.9902 271.544 33.5 274.141 31.5859C276.759 29.6719 280.089 28.7148 284.132 28.7148C288.175 28.7148 291.368 29.7012 293.712 31.6738C296.055 33.6465 297.257 36.3516 297.315 39.7891V53.8223C297.354 56.7324 297.804 58.959 298.663 60.502V61H288.79ZM282.608 54.5547C283.839 54.5547 284.854 54.291 285.655 53.7637C286.475 53.2363 287.061 52.6406 287.413 51.9766V46.9082H284.542C281.104 46.9082 279.386 48.4512 279.386 51.5371C279.386 52.4355 279.688 53.168 280.294 53.7344C280.899 54.2812 281.671 54.5547 282.608 54.5547ZM315.012 53.9688C316.398 53.9688 317.473 53.5977 318.234 52.8555C318.996 52.0938 319.367 51.0391 319.348 49.6914H328.605C328.605 53.168 327.355 56.0195 324.855 58.2461C322.375 60.4727 319.172 61.5859 315.246 61.5859C310.637 61.5859 307.004 60.1406 304.348 57.25C301.691 54.3594 300.363 50.3555 300.363 45.2383V44.8281C300.363 41.625 300.949 38.8027 302.121 36.3613C303.312 33.9004 305.021 32.0156 307.248 30.707C309.475 29.3789 312.111 28.7148 315.158 28.7148C319.279 28.7148 322.551 29.8574 324.973 32.1426C327.395 34.4277 328.605 37.5234 328.605 41.4297H319.348C319.348 39.7891 318.947 38.5293 318.146 37.6504C317.346 36.7715 316.271 36.332 314.924 36.332C312.365 36.332 310.871 37.9629 310.441 41.2246C310.305 42.2598 310.236 43.6855 310.236 45.502C310.236 48.6855 310.617 50.8926 311.379 52.123C312.141 53.3535 313.352 53.9688 315.012 53.9688ZM344.31 49.1934L341.527 51.9766V61H331.654V15.9707H341.527V39.877L342.523 38.5586L349.964 29.3008H361.8L350.696 42.3379L362.532 61H351.224L344.31 49.1934Z" fill="#171717"/>
</g>
<g filter="url(#filter1_d)">
<path d="M39.4727 94.8555H30.9375V118H24.082V94.8555H15.7031V89.5625H39.4727V94.8555ZM47.7156 99.1328C49.1219 97.362 50.9188 96.4766 53.1063 96.4766C55.437 96.4766 57.1948 97.1667 58.3797 98.5469C59.5646 99.9271 60.1701 101.965 60.1961 104.66V118H53.5945V104.816C53.5945 103.697 53.3667 102.876 52.9109 102.355C52.4552 101.822 51.6805 101.555 50.5867 101.555C49.2326 101.555 48.2755 101.984 47.7156 102.844V118H41.1336V88H47.7156V99.1328ZM73.2828 118.391C70.0406 118.391 67.4169 117.427 65.4117 115.5C63.4065 113.56 62.4039 111.04 62.4039 107.941V107.395C62.4039 105.233 62.801 103.326 63.5953 101.672C64.4026 100.018 65.5745 98.7422 67.1109 97.8438C68.6474 96.9323 70.4703 96.4766 72.5797 96.4766C75.5484 96.4766 77.8922 97.401 79.6109 99.25C81.3297 101.086 82.1891 103.651 82.1891 106.945V109.504H69.1031C69.3375 110.689 69.8518 111.62 70.6461 112.297C71.4404 112.974 72.469 113.312 73.732 113.312C75.8154 113.312 77.443 112.583 78.6148 111.125L81.6227 114.68C80.8023 115.812 79.637 116.717 78.1266 117.395C76.6292 118.059 75.0146 118.391 73.2828 118.391ZM72.5406 101.555C70.6135 101.555 69.4677 102.831 69.1031 105.383H75.7438V104.875C75.7698 103.82 75.5029 103.007 74.943 102.434C74.3831 101.848 73.5823 101.555 72.5406 101.555ZM92.3859 107.219C92.3859 103.859 93.1151 101.229 94.5734 99.3281C96.0318 97.4271 98.0435 96.4766 100.609 96.4766C102.77 96.4766 104.502 97.362 105.804 99.1328L106.273 96.8672H111.976V126.125H105.374V116.242C104.111 117.674 102.51 118.391 100.57 118.391C98.0695 118.391 96.0773 117.427 94.593 115.5C93.1216 113.56 92.3859 110.799 92.3859 107.219ZM98.968 107.629C98.968 111.418 100.062 113.312 102.249 113.312C103.76 113.312 104.801 112.74 105.374 111.594V103.234C104.827 102.115 103.799 101.555 102.288 101.555C100.244 101.555 99.1438 103.189 98.9875 106.457L98.968 107.629ZM127.504 115.715C126.111 117.499 124.229 118.391 121.859 118.391C119.542 118.391 117.784 117.72 116.586 116.379C115.401 115.025 114.809 113.085 114.809 110.559V96.8672H121.391V110.598C121.391 112.408 122.27 113.312 124.027 113.312C125.538 113.312 126.612 112.772 127.25 111.691V96.8672H133.871V118H127.699L127.504 115.715ZM143.637 118H137.036V96.8672H143.637V118ZM136.645 91.418C136.645 90.4805 136.984 89.7122 137.661 89.1133C138.338 88.5143 139.217 88.2148 140.298 88.2148C141.378 88.2148 142.257 88.5143 142.934 89.1133C143.611 89.7122 143.95 90.4805 143.95 91.418C143.95 92.3555 143.611 93.1237 142.934 93.7227C142.257 94.3216 141.378 94.6211 140.298 94.6211C139.217 94.6211 138.338 94.3216 137.661 93.7227C136.984 93.1237 136.645 92.3555 136.645 91.418ZM155.845 113.312C156.77 113.312 157.486 113.065 157.994 112.57C158.502 112.062 158.749 111.359 158.736 110.461H164.908C164.908 112.779 164.074 114.68 162.408 116.164C160.754 117.648 158.619 118.391 156.002 118.391C152.929 118.391 150.507 117.427 148.736 115.5C146.965 113.573 146.08 110.904 146.08 107.492V107.219C146.08 105.083 146.47 103.202 147.252 101.574C148.046 99.9336 149.185 98.6771 150.67 97.8047C152.154 96.9193 153.912 96.4766 155.943 96.4766C158.69 96.4766 160.871 97.2383 162.486 98.7617C164.101 100.285 164.908 102.349 164.908 104.953H158.736C158.736 103.859 158.469 103.02 157.935 102.434C157.401 101.848 156.685 101.555 155.787 101.555C154.081 101.555 153.085 102.642 152.798 104.816C152.707 105.507 152.662 106.457 152.662 107.668C152.662 109.79 152.916 111.262 153.423 112.082C153.931 112.902 154.739 113.312 155.845 113.312ZM175.377 110.129L173.522 111.984V118H166.94V87.9805H173.522V103.918L174.186 103.039L179.147 96.8672H187.038L179.635 105.559L187.526 118H179.987L175.377 110.129ZM216.746 107.609C216.746 111.073 216.03 113.736 214.598 115.598C213.165 117.46 211.147 118.391 208.543 118.391C206.395 118.391 204.663 117.538 203.348 115.832L203.074 118H197.176V88H203.758V98.5664C204.982 97.1732 206.564 96.4766 208.504 96.4766C211.134 96.4766 213.165 97.4206 214.598 99.3086C216.03 101.197 216.746 103.853 216.746 107.277V107.609ZM210.145 107.199C210.145 105.168 209.871 103.723 209.324 102.863C208.79 101.991 207.964 101.555 206.844 101.555C205.359 101.555 204.331 102.121 203.758 103.254V111.652C204.318 112.772 205.359 113.332 206.883 113.332C208.432 113.332 209.415 112.577 209.832 111.066C210.04 110.324 210.145 109.035 210.145 107.199ZM231.649 102.824L229.481 102.668C227.411 102.668 226.083 103.319 225.497 104.621V118H218.915V96.8672H225.087L225.302 99.582C226.408 97.5117 227.951 96.4766 229.93 96.4766C230.634 96.4766 231.246 96.5547 231.766 96.7109L231.649 102.824ZM231.689 107.238C231.689 105.129 232.099 103.254 232.92 101.613C233.74 99.9596 234.918 98.6901 236.455 97.8047C237.991 96.9193 239.795 96.4766 241.865 96.4766C245.029 96.4766 247.522 97.4596 249.345 99.4258C251.168 101.379 252.08 104.042 252.08 107.414V107.648C252.08 110.943 251.162 113.56 249.326 115.5C247.503 117.427 245.029 118.391 241.904 118.391C238.896 118.391 236.481 117.492 234.658 115.695C232.835 113.885 231.852 111.438 231.709 108.352L231.689 107.238ZM238.271 107.648C238.271 109.602 238.577 111.034 239.189 111.945C239.801 112.857 240.706 113.312 241.904 113.312C244.248 113.312 245.446 111.509 245.498 107.902V107.238C245.498 103.449 244.287 101.555 241.865 101.555C239.664 101.555 238.473 103.189 238.291 106.457L238.271 107.648ZM272.432 109.328L274.561 96.8672H280.87L275.889 118H270.323L266.827 105.461L263.311 118H257.745L252.764 96.8672H259.073L261.163 109.621L264.522 96.8672H269.112L272.432 109.328ZM288.487 96.8672L288.702 99.3477C290.161 97.4336 292.172 96.4766 294.737 96.4766C296.938 96.4766 298.579 97.1341 299.659 98.4492C300.753 99.7643 301.32 101.743 301.359 104.387V118H294.757V104.66C294.757 103.592 294.542 102.811 294.112 102.316C293.683 101.809 292.902 101.555 291.769 101.555C290.48 101.555 289.523 102.062 288.898 103.078V118H282.316V96.8672H288.487ZM314.837 118V101.438H311.77V96.8672H314.837V95.1875C314.837 92.7786 315.546 90.9102 316.966 89.582C318.385 88.2539 320.377 87.5898 322.942 87.5898C323.88 87.5898 324.908 87.7266 326.028 88L326.048 92.8438C325.644 92.7266 325.104 92.668 324.427 92.668C322.434 92.668 321.438 93.5273 321.438 95.2461V96.8672H325.559V101.438H321.438V118H314.837ZM326.244 107.238C326.244 105.129 326.654 103.254 327.474 101.613C328.295 99.9596 329.473 98.6901 331.009 97.8047C332.546 96.9193 334.349 96.4766 336.42 96.4766C339.584 96.4766 342.077 97.4596 343.9 99.4258C345.723 101.379 346.634 104.042 346.634 107.414V107.648C346.634 110.943 345.716 113.56 343.88 115.5C342.058 117.427 339.584 118.391 336.459 118.391C333.451 118.391 331.035 117.492 329.212 115.695C327.39 113.885 326.407 111.438 326.263 108.352L326.244 107.238ZM332.826 107.648C332.826 109.602 333.132 111.034 333.744 111.945C334.356 112.857 335.261 113.312 336.459 113.312C338.802 113.312 340 111.509 340.052 107.902V107.238C340.052 103.449 338.841 101.555 336.42 101.555C334.219 101.555 333.028 103.189 332.845 106.457L332.826 107.648ZM356.87 102.688L359.936 96.8672H366.772L361.205 107.16L367.045 118H360.17L356.85 111.75L353.588 118H346.674L352.534 107.16L346.987 96.8672H353.901L356.87 102.688ZM384.332 96.8672V118.723C384.319 121.223 383.603 123.15 382.184 124.504C380.764 125.858 378.785 126.535 376.246 126.535C375.152 126.535 374.117 126.424 373.141 126.203V121.223C373.896 121.34 374.514 121.398 374.996 121.398C376.819 121.398 377.73 120.493 377.73 118.684V96.8672H384.332ZM377.242 91.418C377.242 90.4805 377.581 89.7122 378.258 89.1133C378.935 88.5143 379.814 88.2148 380.895 88.2148C381.975 88.2148 382.854 88.5143 383.531 89.1133C384.208 89.7122 384.547 90.4805 384.547 91.418C384.547 92.3555 384.208 93.1237 383.531 93.7227C382.854 94.3216 381.975 94.6211 380.895 94.6211C379.814 94.6211 378.935 94.3216 378.258 93.7227C377.581 93.1237 377.242 92.3555 377.242 91.418ZM399.86 115.715C398.467 117.499 396.585 118.391 394.216 118.391C391.898 118.391 390.14 117.72 388.942 116.379C387.757 115.025 387.165 113.085 387.165 110.559V96.8672H393.747V110.598C393.747 112.408 394.626 113.312 396.384 113.312C397.894 113.312 398.968 112.772 399.606 111.691V96.8672H406.227V118H400.055L399.86 115.715ZM415.271 96.8672L415.486 99.3477C416.983 97.4336 418.995 96.4766 421.521 96.4766C424.19 96.4766 425.994 97.5378 426.931 99.6602C428.364 97.5378 430.434 96.4766 433.142 96.4766C437.426 96.4766 439.627 99.0677 439.744 104.25V118H433.142V104.66C433.142 103.579 432.96 102.792 432.595 102.297C432.231 101.802 431.567 101.555 430.603 101.555C429.301 101.555 428.331 102.134 427.693 103.293L427.712 103.566V118H421.111V104.699C421.111 103.592 420.935 102.792 420.584 102.297C420.232 101.802 419.561 101.555 418.572 101.555C417.309 101.555 416.345 102.134 415.681 103.293V118H409.099V96.8672H415.271ZM462.323 107.59C462.323 110.871 461.58 113.495 460.096 115.461C458.625 117.414 456.633 118.391 454.12 118.391C452.179 118.391 450.584 117.681 449.334 116.262V126.125H442.752V96.8672H448.905L449.1 98.8203C450.363 97.2578 452.023 96.4766 454.08 96.4766C456.685 96.4766 458.709 97.4401 460.155 99.3672C461.6 101.281 462.323 103.918 462.323 107.277V107.59ZM455.741 107.18C455.741 103.43 454.647 101.555 452.459 101.555C450.897 101.555 449.855 102.115 449.334 103.234V111.555C449.907 112.727 450.962 113.312 452.498 113.312C454.595 113.312 455.676 111.503 455.741 107.883V107.18ZM475.507 112.062C475.507 111.503 475.214 111.053 474.628 110.715C474.042 110.376 472.929 110.025 471.288 109.66C469.648 109.296 468.293 108.82 467.226 108.234C466.158 107.635 465.344 106.913 464.784 106.066C464.224 105.22 463.945 104.25 463.945 103.156C463.945 101.216 464.745 99.6211 466.347 98.3711C467.948 97.1081 470.045 96.4766 472.636 96.4766C475.422 96.4766 477.662 97.1081 479.355 98.3711C481.047 99.6341 481.894 101.294 481.894 103.352H475.292C475.292 101.659 474.4 100.812 472.616 100.812C471.926 100.812 471.347 101.008 470.878 101.398C470.409 101.776 470.175 102.251 470.175 102.824C470.175 103.41 470.461 103.885 471.034 104.25C471.607 104.615 472.519 104.914 473.769 105.148C475.032 105.383 476.139 105.663 477.089 105.988C480.266 107.082 481.855 109.042 481.855 111.867C481.855 113.794 480.995 115.363 479.277 116.574C477.571 117.785 475.357 118.391 472.636 118.391C470.826 118.391 469.211 118.065 467.792 117.414C466.373 116.763 465.266 115.878 464.472 114.758C463.678 113.638 463.28 112.46 463.28 111.223H469.433C469.459 112.199 469.784 112.915 470.409 113.371C471.034 113.814 471.835 114.035 472.812 114.035C473.71 114.035 474.381 113.853 474.823 113.488C475.279 113.124 475.507 112.648 475.507 112.062ZM16.0156 147.238C16.0156 145.129 16.4258 143.254 17.2461 141.613C18.0664 139.96 19.2448 138.69 20.7812 137.805C22.3177 136.919 24.1211 136.477 26.1914 136.477C29.3555 136.477 31.849 137.46 33.6719 139.426C35.4948 141.379 36.4062 144.042 36.4062 147.414V147.648C36.4062 150.943 35.4883 153.56 33.6523 155.5C31.8294 157.427 29.3555 158.391 26.2305 158.391C23.2227 158.391 20.8073 157.492 18.9844 155.695C17.1615 153.885 16.1784 151.438 16.0352 148.352L16.0156 147.238ZM22.5977 147.648C22.5977 149.602 22.9036 151.034 23.5156 151.945C24.1276 152.857 25.0326 153.312 26.2305 153.312C28.5742 153.312 29.7721 151.509 29.8242 147.902V147.238C29.8242 143.449 28.6133 141.555 26.1914 141.555C23.9909 141.555 22.7995 143.189 22.6172 146.457L22.5977 147.648ZM46.6219 150.168L49.9617 136.867H56.8953L50.0008 158H43.282L36.3875 136.867H43.3406L46.6219 150.168ZM68.0094 158.391C64.7672 158.391 62.1435 157.427 60.1383 155.5C58.1331 153.56 57.1305 151.04 57.1305 147.941V147.395C57.1305 145.233 57.5276 143.326 58.3219 141.672C59.1292 140.018 60.301 138.742 61.8375 137.844C63.374 136.932 65.1969 136.477 67.3063 136.477C70.275 136.477 72.6188 137.401 74.3375 139.25C76.0563 141.086 76.9156 143.651 76.9156 146.945V149.504H63.8297C64.0641 150.689 64.5784 151.62 65.3727 152.297C66.1669 152.974 67.1956 153.312 68.4586 153.312C70.5419 153.312 72.1695 152.583 73.3414 151.125L76.3492 154.68C75.5289 155.812 74.3635 156.717 72.8531 157.395C71.3557 158.059 69.7411 158.391 68.0094 158.391ZM67.2672 141.555C65.3401 141.555 64.1943 142.831 63.8297 145.383H70.4703V144.875C70.4964 143.82 70.2294 143.007 69.6695 142.434C69.1096 141.848 68.3089 141.555 67.2672 141.555ZM91.5648 142.824L89.3969 142.668C87.3266 142.668 85.9984 143.319 85.4125 144.621V158H78.8305V136.867H85.0023L85.2172 139.582C86.324 137.512 87.8669 136.477 89.8461 136.477C90.5492 136.477 91.1612 136.555 91.682 136.711L91.5648 142.824ZM109.965 131.613V136.867H113.441V141.438H109.965V151.105C109.965 151.9 110.108 152.453 110.395 152.766C110.681 153.078 111.247 153.234 112.094 153.234C112.745 153.234 113.292 153.195 113.734 153.117V157.824C112.549 158.202 111.312 158.391 110.023 158.391C107.758 158.391 106.085 157.857 105.004 156.789C103.923 155.721 103.383 154.1 103.383 151.926V141.438H100.688V136.867H103.383V131.613H109.965ZM121.684 139.133C123.091 137.362 124.887 136.477 127.075 136.477C129.406 136.477 131.164 137.167 132.348 138.547C133.533 139.927 134.139 141.965 134.165 144.66V158H127.563V144.816C127.563 143.697 127.335 142.876 126.88 142.355C126.424 141.822 125.649 141.555 124.555 141.555C123.201 141.555 122.244 141.984 121.684 142.844V158H115.102V128H121.684V139.133ZM147.252 158.391C144.009 158.391 141.386 157.427 139.38 155.5C137.375 153.56 136.373 151.04 136.373 147.941V147.395C136.373 145.233 136.77 143.326 137.564 141.672C138.371 140.018 139.543 138.742 141.08 137.844C142.616 136.932 144.439 136.477 146.548 136.477C149.517 136.477 151.861 137.401 153.58 139.25C155.298 141.086 156.158 143.651 156.158 146.945V149.504H143.072C143.306 150.689 143.821 151.62 144.615 152.297C145.409 152.974 146.438 153.312 147.701 153.312C149.784 153.312 151.412 152.583 152.584 151.125L155.591 154.68C154.771 155.812 153.606 156.717 152.095 157.395C150.598 158.059 148.983 158.391 147.252 158.391ZM146.509 141.555C144.582 141.555 143.436 142.831 143.072 145.383H149.713V144.875C149.739 143.82 149.472 143.007 148.912 142.434C148.352 141.848 147.551 141.555 146.509 141.555ZM174.128 158H167.527V128H174.128V158ZM189.305 158C189.07 157.57 188.862 156.939 188.68 156.105C187.469 157.629 185.776 158.391 183.602 158.391C181.609 158.391 179.917 157.792 178.523 156.594C177.13 155.383 176.434 153.866 176.434 152.043C176.434 149.751 177.28 148.02 178.973 146.848C180.665 145.676 183.126 145.09 186.355 145.09H188.387V143.977C188.387 142.036 187.547 141.066 185.867 141.066C184.305 141.066 183.523 141.835 183.523 143.371H176.941C176.941 141.327 177.807 139.667 179.539 138.391C181.284 137.115 183.504 136.477 186.199 136.477C188.895 136.477 191.023 137.134 192.586 138.449C194.148 139.764 194.949 141.568 194.988 143.859V153.215C195.014 155.155 195.314 156.639 195.887 157.668V158H189.305ZM185.184 153.703C186.004 153.703 186.681 153.527 187.215 153.176C187.762 152.824 188.152 152.427 188.387 151.984V148.605H186.473C184.181 148.605 183.035 149.634 183.035 151.691C183.035 152.29 183.237 152.779 183.641 153.156C184.044 153.521 184.559 153.703 185.184 153.703ZM205.614 152.922H215.243V158H197.294V154.328L206.669 141.945H197.704V136.867H215.028V140.422L205.614 152.922ZM226.084 148.781L229.599 136.867H236.65L228.037 161.535L227.666 162.434C226.442 165.168 224.28 166.535 221.181 166.535C220.322 166.535 219.417 166.405 218.466 166.145V161.438H219.326C220.25 161.438 220.953 161.301 221.435 161.027C221.93 160.767 222.295 160.292 222.529 159.602L223.056 158.195L215.712 136.867H222.744L226.084 148.781ZM245.909 147.277C245.909 143.931 246.632 141.294 248.077 139.367C249.523 137.44 251.541 136.477 254.132 136.477C256.02 136.477 257.609 137.219 258.898 138.703V128H265.499V158H259.581L259.249 155.734C257.895 157.505 256.176 158.391 254.093 158.391C251.58 158.391 249.588 157.427 248.116 155.5C246.645 153.573 245.909 150.832 245.909 147.277ZM252.491 147.688C252.491 151.438 253.585 153.312 255.773 153.312C257.231 153.312 258.273 152.701 258.898 151.477V143.43C258.299 142.18 257.27 141.555 255.812 141.555C253.78 141.555 252.68 143.195 252.511 146.477L252.491 147.688ZM267.609 147.238C267.609 145.129 268.02 143.254 268.84 141.613C269.66 139.96 270.839 138.69 272.375 137.805C273.911 136.919 275.715 136.477 277.785 136.477C280.949 136.477 283.443 137.46 285.266 139.426C287.089 141.379 288 144.042 288 147.414V147.648C288 150.943 287.082 153.56 285.246 155.5C283.423 157.427 280.949 158.391 277.824 158.391C274.816 158.391 272.401 157.492 270.578 155.695C268.755 153.885 267.772 151.438 267.629 148.352L267.609 147.238ZM274.191 147.648C274.191 149.602 274.497 151.034 275.109 151.945C275.721 152.857 276.626 153.312 277.824 153.312C280.168 153.312 281.366 151.509 281.418 147.902V147.238C281.418 143.449 280.207 141.555 277.785 141.555C275.585 141.555 274.393 143.189 274.211 146.457L274.191 147.648ZM289.329 147.277C289.329 145.142 289.68 143.254 290.384 141.613C291.087 139.973 292.096 138.71 293.411 137.824C294.726 136.926 296.256 136.477 298.001 136.477C300.201 136.477 301.92 137.219 303.157 138.703L303.391 136.867H309.368V157.199C309.368 159.061 308.932 160.676 308.059 162.043C307.2 163.423 305.95 164.478 304.309 165.207C302.669 165.949 300.768 166.32 298.606 166.32C297.057 166.32 295.553 166.027 294.095 165.441C292.649 164.855 291.542 164.094 290.774 163.156L293.528 159.289C294.752 160.734 296.367 161.457 298.372 161.457C301.289 161.457 302.747 159.96 302.747 156.965V156.301C301.484 157.694 299.889 158.391 297.962 158.391C295.384 158.391 293.3 157.408 291.712 155.441C290.123 153.462 289.329 150.819 289.329 147.512V147.277ZM295.93 147.688C295.93 149.419 296.256 150.793 296.907 151.809C297.558 152.811 298.47 153.312 299.641 153.312C301.061 153.312 302.096 152.837 302.747 151.887V143C302.109 142.036 301.087 141.555 299.68 141.555C298.509 141.555 297.591 142.082 296.927 143.137C296.263 144.178 295.93 145.695 295.93 147.688Z" fill="#171717"/>
</g>
<g filter="url(#filter2_d)">
<path d="M23.9248 239.522H19.583V247H17.1328V228.516H23.252C25.334 228.516 26.9336 228.99 28.0508 229.938C29.1764 230.885 29.7393 232.265 29.7393 234.076C29.7393 235.227 29.4261 236.23 28.7998 237.085C28.182 237.94 27.3187 238.579 26.21 239.002L30.5518 246.848V247H27.9365L23.9248 239.522ZM19.583 237.529H23.3281C24.5384 237.529 25.499 237.216 26.21 236.59C26.9294 235.964 27.2891 235.126 27.2891 234.076C27.2891 232.934 26.9463 232.058 26.2607 231.448C25.5837 230.839 24.6019 230.53 23.3154 230.521H19.583V237.529ZM32.5768 240.005C32.5768 238.659 32.8391 237.449 33.3639 236.374C33.8971 235.299 34.6334 234.47 35.5729 233.886C36.5208 233.302 37.5999 233.01 38.8102 233.01C40.6806 233.01 42.1913 233.657 43.3424 234.952C44.5019 236.247 45.0816 237.969 45.0816 240.119V240.284C45.0816 241.621 44.8235 242.823 44.3072 243.89C43.7994 244.948 43.0673 245.773 42.1109 246.365C41.163 246.958 40.0712 247.254 38.8355 247.254C36.9736 247.254 35.4628 246.606 34.3033 245.312C33.1523 244.017 32.5768 242.303 32.5768 240.17V240.005ZM34.9381 240.284C34.9381 241.808 35.2893 243.031 35.9918 243.953C36.7027 244.876 37.6507 245.337 38.8355 245.337C40.0289 245.337 40.9768 244.871 41.6793 243.94C42.3818 243.001 42.733 241.689 42.733 240.005C42.733 238.498 42.3733 237.28 41.6539 236.349C40.943 235.409 39.9951 234.939 38.8102 234.939C37.6507 234.939 36.7154 235.401 36.0045 236.323C35.2936 237.246 34.9381 238.566 34.9381 240.284ZM60.0559 240.284C60.0559 242.383 59.5734 244.072 58.6086 245.35C57.6437 246.619 56.3488 247.254 54.7238 247.254C52.9888 247.254 51.6473 246.64 50.6994 245.413L50.5852 247H48.427V227.5H50.7756V234.774C51.7235 233.598 53.0311 233.01 54.6984 233.01C56.3658 233.01 57.6734 233.64 58.6213 234.901C59.5777 236.162 60.0559 237.889 60.0559 240.081V240.284ZM57.7072 240.018C57.7072 238.418 57.3983 237.182 56.7805 236.311C56.1626 235.439 55.274 235.003 54.1145 235.003C52.5656 235.003 51.4527 235.722 50.7756 237.161V243.103C51.495 244.541 52.6164 245.261 54.1398 245.261C55.2655 245.261 56.1415 244.825 56.7678 243.953C57.3941 243.081 57.7072 241.77 57.7072 240.018ZM62.8045 240.005C62.8045 238.659 63.0669 237.449 63.5916 236.374C64.1248 235.299 64.8611 234.47 65.8006 233.886C66.7485 233.302 67.8276 233.01 69.0379 233.01C70.9083 233.01 72.4191 233.657 73.5701 234.952C74.7296 236.247 75.3094 237.969 75.3094 240.119V240.284C75.3094 241.621 75.0512 242.823 74.535 243.89C74.0271 244.948 73.2951 245.773 72.3387 246.365C71.3908 246.958 70.299 247.254 69.0633 247.254C67.2013 247.254 65.6906 246.606 64.5311 245.312C63.38 244.017 62.8045 242.303 62.8045 240.17V240.005ZM65.1658 240.284C65.1658 241.808 65.5171 243.031 66.2195 243.953C66.9305 244.876 67.8784 245.337 69.0633 245.337C70.2566 245.337 71.2046 244.871 71.907 243.94C72.6095 243.001 72.9607 241.689 72.9607 240.005C72.9607 238.498 72.601 237.28 71.8816 236.349C71.1707 235.409 70.2228 234.939 69.0379 234.939C67.8784 234.939 66.9432 235.401 66.2322 236.323C65.5213 237.246 65.1658 238.566 65.1658 240.284ZM81.8412 229.938V233.264H84.4057V235.079H81.8412V243.598C81.8412 244.148 81.9555 244.562 82.184 244.842C82.4125 245.113 82.8018 245.248 83.352 245.248C83.6228 245.248 83.9952 245.197 84.4691 245.096V247C83.8513 247.169 83.2504 247.254 82.6664 247.254C81.6169 247.254 80.8256 246.937 80.2924 246.302C79.7592 245.667 79.4926 244.766 79.4926 243.598V235.079H76.9916V233.264H79.4926V229.938H81.8412ZM86.6846 240.005C86.6846 238.659 86.9469 237.449 87.4717 236.374C88.0049 235.299 88.7412 234.47 89.6807 233.886C90.6286 233.302 91.7077 233.01 92.918 233.01C94.7884 233.01 96.2992 233.657 97.4502 234.952C98.6097 236.247 99.1895 237.969 99.1895 240.119V240.284C99.1895 241.621 98.9313 242.823 98.415 243.89C97.9072 244.948 97.1751 245.773 96.2188 246.365C95.2708 246.958 94.179 247.254 92.9434 247.254C91.0814 247.254 89.5706 246.606 88.4111 245.312C87.2601 244.017 86.6846 242.303 86.6846 240.17V240.005ZM89.0459 240.284C89.0459 241.808 89.3971 243.031 90.0996 243.953C90.8105 244.876 91.7585 245.337 92.9434 245.337C94.1367 245.337 95.0846 244.871 95.7871 243.94C96.4896 243.001 96.8408 241.689 96.8408 240.005C96.8408 238.498 96.4811 237.28 95.7617 236.349C95.0508 235.409 94.1029 234.939 92.918 234.939C91.7585 234.939 90.8232 235.401 90.1123 236.323C89.4014 237.246 89.0459 238.566 89.0459 240.284ZM116.531 239.522H112.19V247H109.739V228.516H115.859C117.941 228.516 119.54 228.99 120.657 229.938C121.783 230.885 122.346 232.265 122.346 234.076C122.346 235.227 122.033 236.23 121.406 237.085C120.789 237.94 119.925 238.579 118.817 239.002L123.158 246.848V247H120.543L116.531 239.522ZM112.19 237.529H115.935C117.145 237.529 118.106 237.216 118.817 236.59C119.536 235.964 119.896 235.126 119.896 234.076C119.896 232.934 119.553 232.058 118.867 231.448C118.19 230.839 117.209 230.53 115.922 230.521H112.19V237.529ZM131.506 247.254C129.644 247.254 128.129 246.645 126.961 245.426C125.793 244.199 125.209 242.561 125.209 240.513V240.081C125.209 238.718 125.467 237.504 125.983 236.438C126.508 235.363 127.236 234.525 128.167 233.924C129.106 233.314 130.122 233.01 131.214 233.01C132.999 233.01 134.387 233.598 135.378 234.774C136.368 235.951 136.863 237.635 136.863 239.827V240.805H127.557C127.591 242.159 127.985 243.255 128.738 244.093C129.5 244.922 130.465 245.337 131.633 245.337C132.462 245.337 133.165 245.168 133.74 244.829C134.316 244.491 134.819 244.042 135.251 243.483L136.685 244.601C135.534 246.369 133.808 247.254 131.506 247.254ZM131.214 234.939C130.266 234.939 129.47 235.286 128.827 235.98C128.184 236.666 127.786 237.631 127.634 238.875H134.514V238.697C134.447 237.504 134.125 236.581 133.55 235.93C132.974 235.27 132.195 234.939 131.214 234.939ZM139.434 240.018C139.434 237.876 139.929 236.175 140.919 234.914C141.91 233.645 143.221 233.01 144.855 233.01C146.531 233.01 147.838 233.602 148.778 234.787L148.892 233.264H151.037V246.67C151.037 248.447 150.509 249.848 149.451 250.872C148.401 251.896 146.988 252.408 145.21 252.408C144.22 252.408 143.251 252.197 142.303 251.773C141.355 251.35 140.632 250.771 140.132 250.034L141.351 248.625C142.358 249.869 143.59 250.491 145.045 250.491C146.188 250.491 147.077 250.17 147.711 249.526C148.355 248.883 148.676 247.978 148.676 246.81V245.629C147.737 246.712 146.454 247.254 144.829 247.254C143.221 247.254 141.918 246.606 140.919 245.312C139.929 244.017 139.434 242.252 139.434 240.018ZM141.795 240.284C141.795 241.833 142.113 243.052 142.747 243.94C143.382 244.821 144.271 245.261 145.413 245.261C146.895 245.261 147.982 244.588 148.676 243.242V236.971C147.957 235.659 146.878 235.003 145.439 235.003C144.296 235.003 143.403 235.447 142.76 236.336C142.117 237.225 141.795 238.541 141.795 240.284ZM163.473 245.642C162.559 246.716 161.217 247.254 159.448 247.254C157.984 247.254 156.867 246.831 156.097 245.984C155.335 245.13 154.95 243.868 154.941 242.201V233.264H157.29V242.138C157.29 244.22 158.136 245.261 159.829 245.261C161.623 245.261 162.817 244.592 163.409 243.255V233.264H165.758V247H163.523L163.473 245.642ZM172.29 247H169.941V227.5H172.29V247ZM184.941 247C184.805 246.729 184.695 246.247 184.611 245.553C183.519 246.687 182.215 247.254 180.7 247.254C179.346 247.254 178.233 246.873 177.362 246.111C176.498 245.341 176.067 244.368 176.067 243.191C176.067 241.761 176.608 240.652 177.692 239.865C178.783 239.07 180.315 238.672 182.287 238.672H184.572V237.593C184.572 236.772 184.327 236.12 183.836 235.638C183.345 235.147 182.622 234.901 181.665 234.901C180.827 234.901 180.125 235.113 179.558 235.536C178.991 235.959 178.707 236.471 178.707 237.072H176.346C176.346 236.387 176.587 235.727 177.07 235.092C177.56 234.449 178.221 233.941 179.05 233.568C179.888 233.196 180.806 233.01 181.805 233.01C183.388 233.01 184.627 233.408 185.525 234.203C186.422 234.99 186.887 236.078 186.921 237.466V243.788C186.921 245.049 187.082 246.052 187.404 246.797V247H184.941ZM181.043 245.21C181.779 245.21 182.478 245.02 183.138 244.639C183.798 244.258 184.276 243.763 184.572 243.153V240.335H182.732C179.854 240.335 178.415 241.177 178.415 242.861C178.415 243.598 178.661 244.173 179.152 244.588C179.642 245.003 180.273 245.21 181.043 245.21ZM197.642 235.371C197.287 235.312 196.902 235.282 196.487 235.282C194.947 235.282 193.901 235.938 193.351 237.25V247H191.003V233.264H193.288L193.326 234.851C194.096 233.623 195.188 233.01 196.601 233.01C197.058 233.01 197.405 233.069 197.642 233.188V235.371Z" fill="#686868"/>
</g>
<g filter="url(#filter3_d)">
<path d="M27.6221 278.057H22.5947V292H20.543V278.057H15.5264V276.359H27.6221V278.057ZM32.0182 281.784C32.899 280.703 34.0449 280.162 35.4557 280.162C37.912 280.162 39.151 281.548 39.1725 284.319V292H37.1852V284.309C37.178 283.471 36.9846 282.851 36.6051 282.45C36.2327 282.049 35.649 281.849 34.8541 281.849C34.2096 281.849 33.6438 282.021 33.1568 282.364C32.6699 282.708 32.2903 283.159 32.0182 283.718V292H30.0309V275.5H32.0182V281.784ZM47.3713 292.215C45.7958 292.215 44.5139 291.699 43.5256 290.668C42.5373 289.63 42.0432 288.244 42.0432 286.511V286.146C42.0432 284.993 42.2616 283.965 42.6984 283.062C43.1424 282.153 43.7583 281.444 44.5461 280.936C45.341 280.42 46.2004 280.162 47.1242 280.162C48.6353 280.162 49.8098 280.66 50.6477 281.655C51.4855 282.651 51.9045 284.076 51.9045 285.931V286.758H44.0305C44.0591 287.904 44.3921 288.831 45.0295 289.54C45.674 290.242 46.4904 290.593 47.4787 290.593C48.1805 290.593 48.7749 290.45 49.2619 290.163C49.7489 289.877 50.175 289.497 50.5402 289.024L51.7541 289.97C50.7801 291.466 49.3192 292.215 47.3713 292.215ZM47.1242 281.795C46.3221 281.795 45.649 282.089 45.1047 282.676C44.5604 283.256 44.2238 284.072 44.0949 285.125H49.9172V284.975C49.8599 283.965 49.5878 283.184 49.1008 282.633C48.6138 282.074 47.9549 281.795 47.1242 281.795ZM59.9877 286.092C59.9877 284.266 60.4066 282.823 61.2445 281.763C62.0824 280.696 63.2068 280.162 64.6176 280.162C65.9926 280.162 67.0775 280.624 67.8725 281.548L67.9584 280.377H69.7846V296.469H67.7973V290.926C66.9952 291.785 65.9281 292.215 64.5961 292.215C63.1924 292.215 62.0717 291.671 61.2338 290.582C60.4031 289.486 59.9877 288.036 59.9877 286.231V286.092ZM61.975 286.317C61.975 287.649 62.2543 288.695 62.8129 289.454C63.3786 290.213 64.1378 290.593 65.0902 290.593C66.2719 290.593 67.1742 290.07 67.7973 289.024V283.331C67.1671 282.307 66.2719 281.795 65.1117 281.795C64.1521 281.795 63.3894 282.178 62.8236 282.944C62.2579 283.703 61.975 284.828 61.975 286.317ZM80.5508 290.851C79.7773 291.76 78.6423 292.215 77.1455 292.215C75.9066 292.215 74.9613 291.857 74.3096 291.141C73.665 290.417 73.3392 289.35 73.332 287.939V280.377H75.3193V287.886C75.3193 289.647 76.0355 290.528 77.4678 290.528C78.986 290.528 79.9958 289.963 80.4971 288.831V280.377H82.4844V292H80.5938L80.5508 290.851ZM88.0729 292H86.0855V280.377H88.0729V292ZM85.9244 277.294C85.9244 276.972 86.0211 276.7 86.2145 276.478C86.415 276.256 86.7086 276.145 87.0953 276.145C87.482 276.145 87.7757 276.256 87.9762 276.478C88.1767 276.7 88.277 276.972 88.277 277.294C88.277 277.616 88.1767 277.885 87.9762 278.1C87.7757 278.314 87.482 278.422 87.0953 278.422C86.7086 278.422 86.415 278.314 86.2145 278.1C86.0211 277.885 85.9244 277.616 85.9244 277.294ZM96.3254 290.593C97.0344 290.593 97.6538 290.378 98.1838 289.948C98.7137 289.519 99.0074 288.981 99.0647 288.337H100.945C100.909 289.003 100.68 289.637 100.257 290.238C99.8345 290.84 99.2688 291.32 98.5598 291.678C97.8579 292.036 97.1132 292.215 96.3254 292.215C94.7427 292.215 93.4823 291.688 92.5441 290.636C91.6132 289.576 91.1477 288.129 91.1477 286.296V285.963C91.1477 284.831 91.3553 283.825 91.7707 282.944C92.1861 282.063 92.7805 281.38 93.5539 280.893C94.3345 280.406 95.2548 280.162 96.3147 280.162C97.618 280.162 98.6994 280.552 99.5588 281.333C100.425 282.114 100.887 283.127 100.945 284.373H99.0647C99.0074 283.621 98.7209 283.005 98.2053 282.525C97.6968 282.038 97.0666 281.795 96.3147 281.795C95.3049 281.795 94.5207 282.16 93.9621 282.891C93.4107 283.614 93.135 284.663 93.135 286.038V286.414C93.135 287.753 93.4107 288.785 93.9621 289.508C94.5135 290.231 95.3013 290.593 96.3254 290.593ZM106.823 286.618L105.577 287.918V292H103.59V275.5H105.577V285.479L106.64 284.201L110.261 280.377H112.678L108.155 285.232L113.204 292H110.873L106.823 286.618ZM130.826 286.317C130.826 288.093 130.418 289.522 129.602 290.604C128.785 291.678 127.689 292.215 126.314 292.215C124.846 292.215 123.711 291.696 122.909 290.657L122.812 292H120.986V275.5H122.974V281.655C123.776 280.66 124.882 280.162 126.293 280.162C127.704 280.162 128.81 280.696 129.612 281.763C130.422 282.83 130.826 284.291 130.826 286.146V286.317ZM128.839 286.092C128.839 284.738 128.577 283.693 128.055 282.955C127.532 282.217 126.78 281.849 125.799 281.849C124.488 281.849 123.547 282.457 122.974 283.675V288.702C123.582 289.92 124.531 290.528 125.82 290.528C126.773 290.528 127.514 290.16 128.044 289.422C128.574 288.684 128.839 287.574 128.839 286.092ZM139.358 282.16C139.057 282.11 138.731 282.085 138.38 282.085C137.077 282.085 136.193 282.64 135.727 283.75V292H133.74V280.377H135.673L135.706 281.72C136.357 280.681 137.281 280.162 138.477 280.162C138.864 280.162 139.157 280.212 139.358 280.312V282.16ZM140.854 286.081C140.854 284.942 141.076 283.918 141.52 283.009C141.971 282.099 142.594 281.397 143.389 280.903C144.191 280.409 145.104 280.162 146.128 280.162C147.711 280.162 148.989 280.71 149.963 281.806C150.944 282.901 151.435 284.359 151.435 286.178V286.317C151.435 287.449 151.216 288.466 150.779 289.368C150.35 290.263 149.73 290.962 148.921 291.463C148.119 291.964 147.195 292.215 146.15 292.215C144.574 292.215 143.296 291.667 142.315 290.571C141.341 289.476 140.854 288.025 140.854 286.221V286.081ZM142.852 286.317C142.852 287.606 143.149 288.641 143.743 289.422C144.345 290.202 145.147 290.593 146.15 290.593C147.159 290.593 147.961 290.199 148.556 289.411C149.15 288.616 149.447 287.506 149.447 286.081C149.447 284.806 149.143 283.775 148.534 282.987C147.933 282.192 147.131 281.795 146.128 281.795C145.147 281.795 144.356 282.185 143.754 282.966C143.153 283.746 142.852 284.864 142.852 286.317ZM164.618 289.261L166.852 280.377H168.84L165.456 292H163.845L161.019 283.191L158.269 292H156.658L153.285 280.377H155.262L157.55 289.078L160.257 280.377H161.857L164.618 289.261ZM173.15 280.377L173.214 281.838C174.102 280.721 175.262 280.162 176.695 280.162C179.151 280.162 180.39 281.548 180.412 284.319V292H178.424V284.309C178.417 283.471 178.224 282.851 177.844 282.45C177.472 282.049 176.888 281.849 176.093 281.849C175.449 281.849 174.883 282.021 174.396 282.364C173.909 282.708 173.529 283.159 173.257 283.718V292H171.27V280.377H173.15ZM190.643 292V281.913H188.806V280.377H190.643V279.185C190.643 277.938 190.976 276.975 191.642 276.295C192.308 275.615 193.25 275.274 194.467 275.274C194.926 275.274 195.38 275.335 195.832 275.457L195.724 277.068C195.388 277.004 195.03 276.972 194.65 276.972C194.005 276.972 193.508 277.161 193.157 277.541C192.806 277.913 192.63 278.451 192.63 279.152V280.377H195.112V281.913H192.63V292H190.643ZM197.188 286.081C197.188 284.942 197.41 283.918 197.854 283.009C198.305 282.099 198.928 281.397 199.723 280.903C200.525 280.409 201.438 280.162 202.462 280.162C204.045 280.162 205.323 280.71 206.297 281.806C207.278 282.901 207.769 284.359 207.769 286.178V286.317C207.769 287.449 207.55 288.466 207.113 289.368C206.684 290.263 206.064 290.962 205.255 291.463C204.453 291.964 203.529 292.215 202.484 292.215C200.908 292.215 199.63 291.667 198.649 290.571C197.675 289.476 197.188 288.025 197.188 286.221V286.081ZM199.186 286.317C199.186 287.606 199.483 288.641 200.077 289.422C200.679 290.202 201.481 290.593 202.484 290.593C203.493 290.593 204.295 290.199 204.89 289.411C205.484 288.616 205.781 287.506 205.781 286.081C205.781 284.806 205.477 283.775 204.868 282.987C204.267 282.192 203.465 281.795 202.462 281.795C201.481 281.795 200.69 282.185 200.088 282.966C199.487 283.746 199.186 284.864 199.186 286.317ZM214.324 284.62L216.902 280.377H219.222L215.42 286.124L219.341 292H217.042L214.356 287.649L211.671 292H209.361L213.282 286.124L209.479 280.377H211.778L214.324 284.62ZM229.647 280.377V293.343C229.647 295.577 228.634 296.694 226.607 296.694C226.171 296.694 225.766 296.63 225.394 296.501V294.911C225.623 294.968 225.924 294.997 226.296 294.997C226.74 294.997 227.076 294.875 227.306 294.632C227.542 294.396 227.66 293.98 227.66 293.386V280.377H229.647ZM227.456 277.294C227.456 276.979 227.553 276.71 227.746 276.488C227.947 276.259 228.237 276.145 228.616 276.145C229.003 276.145 229.297 276.256 229.497 276.478C229.698 276.7 229.798 276.972 229.798 277.294C229.798 277.616 229.698 277.885 229.497 278.1C229.297 278.314 229.003 278.422 228.616 278.422C228.229 278.422 227.939 278.314 227.746 278.1C227.553 277.885 227.456 277.616 227.456 277.294ZM240.435 290.851C239.662 291.76 238.527 292.215 237.03 292.215C235.791 292.215 234.846 291.857 234.194 291.141C233.549 290.417 233.224 289.35 233.216 287.939V280.377H235.204V287.886C235.204 289.647 235.92 290.528 237.352 290.528C238.87 290.528 239.88 289.963 240.381 288.831V280.377H242.369V292H240.478L240.435 290.851ZM247.667 280.377L247.721 281.666C248.573 280.663 249.723 280.162 251.169 280.162C252.795 280.162 253.901 280.785 254.488 282.031C254.875 281.473 255.377 281.021 255.992 280.678C256.615 280.334 257.349 280.162 258.195 280.162C260.744 280.162 262.04 281.512 262.083 284.212V292H260.096V284.33C260.096 283.499 259.906 282.88 259.527 282.472C259.147 282.056 258.51 281.849 257.614 281.849C256.877 281.849 256.265 282.071 255.778 282.515C255.291 282.951 255.008 283.542 254.929 284.287V292H252.931V284.384C252.931 282.694 252.104 281.849 250.449 281.849C249.146 281.849 248.254 282.404 247.775 283.514V292H245.787V280.377H247.667ZM275.309 286.317C275.309 288.086 274.905 289.511 274.096 290.593C273.286 291.674 272.191 292.215 270.808 292.215C269.398 292.215 268.288 291.767 267.478 290.872V296.469H265.491V280.377H267.306L267.403 281.666C268.212 280.663 269.337 280.162 270.776 280.162C272.173 280.162 273.276 280.688 274.085 281.741C274.901 282.794 275.309 284.258 275.309 286.135V286.317ZM273.322 286.092C273.322 284.781 273.043 283.746 272.484 282.987C271.926 282.228 271.159 281.849 270.185 281.849C268.982 281.849 268.08 282.382 267.478 283.449V289.003C268.073 290.063 268.982 290.593 270.207 290.593C271.159 290.593 271.915 290.217 272.473 289.465C273.039 288.706 273.322 287.581 273.322 286.092ZM283.068 292.215C281.492 292.215 280.21 291.699 279.222 290.668C278.234 289.63 277.74 288.244 277.74 286.511V286.146C277.74 284.993 277.958 283.965 278.395 283.062C278.839 282.153 279.455 281.444 280.243 280.936C281.038 280.42 281.897 280.162 282.821 280.162C284.332 280.162 285.506 280.66 286.344 281.655C287.182 282.651 287.601 284.076 287.601 285.931V286.758H279.727C279.756 287.904 280.089 288.831 280.726 289.54C281.371 290.242 282.187 290.593 283.175 290.593C283.877 290.593 284.471 290.45 284.958 290.163C285.445 289.877 285.871 289.497 286.237 289.024L287.451 289.97C286.477 291.466 285.016 292.215 283.068 292.215ZM282.821 281.795C282.019 281.795 281.345 282.089 280.801 282.676C280.257 283.256 279.92 284.072 279.791 285.125H285.614V284.975C285.556 283.965 285.284 283.184 284.797 282.633C284.31 282.074 283.651 281.795 282.821 281.795ZM289.827 286.092C289.827 284.309 290.25 282.876 291.095 281.795C291.94 280.706 293.046 280.162 294.414 280.162C295.775 280.162 296.853 280.628 297.647 281.559V275.5H299.635V292H297.809L297.712 290.754C296.917 291.728 295.811 292.215 294.393 292.215C293.046 292.215 291.947 291.663 291.095 290.561C290.25 289.458 289.827 288.018 289.827 286.242V286.092ZM291.814 286.317C291.814 287.635 292.087 288.666 292.631 289.411C293.175 290.156 293.927 290.528 294.887 290.528C296.147 290.528 297.067 289.963 297.647 288.831V283.492C297.053 282.396 296.14 281.849 294.908 281.849C293.934 281.849 293.175 282.225 292.631 282.977C292.087 283.729 291.814 284.842 291.814 286.317ZM308.459 286.081C308.459 284.942 308.681 283.918 309.125 283.009C309.576 282.099 310.199 281.397 310.994 280.903C311.796 280.409 312.709 280.162 313.734 280.162C315.316 280.162 316.595 280.71 317.569 281.806C318.55 282.901 319.04 284.359 319.04 286.178V286.317C319.04 287.449 318.822 288.466 318.385 289.368C317.955 290.263 317.336 290.962 316.527 291.463C315.724 291.964 314.801 292.215 313.755 292.215C312.18 292.215 310.901 291.667 309.92 290.571C308.946 289.476 308.459 288.025 308.459 286.221V286.081ZM310.457 286.317C310.457 287.606 310.754 288.641 311.349 289.422C311.95 290.202 312.752 290.593 313.755 290.593C314.765 290.593 315.567 290.199 316.161 289.411C316.756 288.616 317.053 287.506 317.053 286.081C317.053 284.806 316.749 283.775 316.14 282.987C315.538 282.192 314.736 281.795 313.734 281.795C312.752 281.795 311.961 282.185 311.36 282.966C310.758 283.746 310.457 284.864 310.457 286.317ZM325.596 289.304L328.474 280.377H330.505L326.337 292H324.822L320.611 280.377H322.641L325.596 289.304ZM337.49 292.215C335.914 292.215 334.632 291.699 333.644 290.668C332.656 289.63 332.162 288.244 332.162 286.511V286.146C332.162 284.993 332.38 283.965 332.817 283.062C333.261 282.153 333.877 281.444 334.664 280.936C335.459 280.42 336.319 280.162 337.243 280.162C338.754 280.162 339.928 280.66 340.766 281.655C341.604 282.651 342.023 284.076 342.023 285.931V286.758H334.149C334.177 287.904 334.51 288.831 335.148 289.54C335.792 290.242 336.609 290.593 337.597 290.593C338.299 290.593 338.893 290.45 339.38 290.163C339.867 289.877 340.293 289.497 340.659 289.024L341.872 289.97C340.899 291.466 339.438 292.215 337.49 292.215ZM337.243 281.795C336.441 281.795 335.767 282.089 335.223 282.676C334.679 283.256 334.342 284.072 334.213 285.125H340.036V284.975C339.978 283.965 339.706 283.184 339.219 282.633C338.732 282.074 338.073 281.795 337.243 281.795ZM350.351 282.16C350.05 282.11 349.724 282.085 349.373 282.085C348.07 282.085 347.185 282.64 346.72 283.75V292H344.732V280.377H346.666L346.698 281.72C347.35 280.681 348.274 280.162 349.47 280.162C349.856 280.162 350.15 280.212 350.351 280.312V282.16ZM361.141 277.562V280.377H363.311V281.913H361.141V289.121C361.141 289.587 361.237 289.938 361.431 290.174C361.624 290.403 361.954 290.518 362.419 290.518C362.648 290.518 362.963 290.475 363.364 290.389V292C362.842 292.143 362.333 292.215 361.839 292.215C360.951 292.215 360.281 291.946 359.83 291.409C359.379 290.872 359.154 290.109 359.154 289.121V281.913H357.037V280.377H359.154V277.562H361.141ZM368.029 281.784C368.91 280.703 370.056 280.162 371.467 280.162C373.923 280.162 375.162 281.548 375.183 284.319V292H373.196V284.309C373.189 283.471 372.996 282.851 372.616 282.45C372.244 282.049 371.66 281.849 370.865 281.849C370.221 281.849 369.655 282.021 369.168 282.364C368.681 282.708 368.301 283.159 368.029 283.718V292H366.042V275.5H368.029V281.784ZM383.382 292.215C381.807 292.215 380.525 291.699 379.537 290.668C378.548 289.63 378.054 288.244 378.054 286.511V286.146C378.054 284.993 378.273 283.965 378.709 283.062C379.153 282.153 379.769 281.444 380.557 280.936C381.352 280.42 382.211 280.162 383.135 280.162C384.646 280.162 385.821 280.66 386.659 281.655C387.496 282.651 387.915 284.076 387.915 285.931V286.758H380.041C380.07 287.904 380.403 288.831 381.04 289.54C381.685 290.242 382.501 290.593 383.49 290.593C384.191 290.593 384.786 290.45 385.273 290.163C385.76 289.877 386.186 289.497 386.551 289.024L387.765 289.97C386.791 291.466 385.33 292.215 383.382 292.215ZM383.135 281.795C382.333 281.795 381.66 282.089 381.116 282.676C380.571 283.256 380.235 284.072 380.106 285.125H385.928V284.975C385.871 283.965 385.599 283.184 385.112 282.633C384.625 282.074 383.966 281.795 383.135 281.795ZM398.641 292H396.654V275.5H398.641V292ZM409.407 292C409.293 291.771 409.2 291.363 409.128 290.775C408.204 291.735 407.101 292.215 405.82 292.215C404.674 292.215 403.732 291.893 402.994 291.248C402.264 290.596 401.899 289.773 401.899 288.777C401.899 287.567 402.357 286.629 403.274 285.963C404.197 285.29 405.494 284.953 407.162 284.953H409.096V284.04C409.096 283.345 408.888 282.794 408.473 282.386C408.057 281.97 407.445 281.763 406.636 281.763C405.927 281.763 405.333 281.942 404.853 282.3C404.373 282.658 404.133 283.091 404.133 283.6H402.135C402.135 283.02 402.339 282.461 402.747 281.924C403.163 281.38 403.721 280.95 404.423 280.635C405.132 280.32 405.909 280.162 406.754 280.162C408.093 280.162 409.142 280.499 409.902 281.172C410.661 281.838 411.055 282.758 411.083 283.933V289.282C411.083 290.349 411.219 291.198 411.491 291.828V292H409.407ZM406.11 290.485C406.733 290.485 407.323 290.324 407.882 290.002C408.441 289.68 408.845 289.261 409.096 288.745V286.36H407.538C405.103 286.36 403.886 287.073 403.886 288.498C403.886 289.121 404.094 289.608 404.509 289.959C404.924 290.31 405.458 290.485 406.11 290.485ZM416.468 290.378H423.267V292H414.04V290.539L420.453 282.021H414.137V280.377H422.945V281.784L416.468 290.378ZM429.715 289.089L432.422 280.377H434.549L429.876 293.794C429.153 295.728 428.004 296.694 426.428 296.694L426.052 296.662L425.311 296.522V294.911L425.848 294.954C426.521 294.954 427.044 294.818 427.416 294.546C427.796 294.274 428.107 293.776 428.351 293.053L428.791 291.871L424.645 280.377H426.815L429.715 289.089ZM442.106 286.092C442.106 284.309 442.529 282.876 443.374 281.795C444.219 280.706 445.325 280.162 446.693 280.162C448.054 280.162 449.131 280.628 449.926 281.559V275.5H451.914V292H450.087L449.991 290.754C449.196 291.728 448.089 292.215 446.671 292.215C445.325 292.215 444.226 291.663 443.374 290.561C442.529 289.458 442.106 288.018 442.106 286.242V286.092ZM444.093 286.317C444.093 287.635 444.365 288.666 444.91 289.411C445.454 290.156 446.206 290.528 447.166 290.528C448.426 290.528 449.346 289.963 449.926 288.831V283.492C449.332 282.396 448.419 281.849 447.187 281.849C446.213 281.849 445.454 282.225 444.91 282.977C444.365 283.729 444.093 284.842 444.093 286.317ZM454.881 286.081C454.881 284.942 455.103 283.918 455.547 283.009C455.998 282.099 456.621 281.397 457.416 280.903C458.218 280.409 459.131 280.162 460.155 280.162C461.738 280.162 463.016 280.71 463.99 281.806C464.972 282.901 465.462 284.359 465.462 286.178V286.317C465.462 287.449 465.244 288.466 464.807 289.368C464.377 290.263 463.758 290.962 462.948 291.463C462.146 291.964 461.223 292.215 460.177 292.215C458.601 292.215 457.323 291.667 456.342 290.571C455.368 289.476 454.881 288.025 454.881 286.221V286.081ZM456.879 286.317C456.879 287.606 457.176 288.641 457.771 289.422C458.372 290.202 459.174 290.593 460.177 290.593C461.187 290.593 461.989 290.199 462.583 289.411C463.178 288.616 463.475 287.506 463.475 286.081C463.475 284.806 463.17 283.775 462.562 282.987C461.96 282.192 461.158 281.795 460.155 281.795C459.174 281.795 458.383 282.185 457.781 282.966C457.18 283.746 456.879 284.864 456.879 286.317ZM467.882 286.092C467.882 284.28 468.301 282.84 469.138 281.773C469.976 280.699 471.086 280.162 472.469 280.162C473.887 280.162 474.993 280.663 475.788 281.666L475.885 280.377H477.7V291.721C477.7 293.225 477.252 294.41 476.357 295.276C475.469 296.143 474.273 296.576 472.769 296.576C471.931 296.576 471.111 296.397 470.309 296.039C469.507 295.681 468.895 295.19 468.472 294.567L469.504 293.375C470.356 294.428 471.398 294.954 472.63 294.954C473.596 294.954 474.348 294.682 474.886 294.138C475.43 293.593 475.702 292.827 475.702 291.839V290.84C474.907 291.757 473.822 292.215 472.447 292.215C471.086 292.215 469.984 291.667 469.138 290.571C468.301 289.476 467.882 287.982 467.882 286.092ZM469.88 286.317C469.88 287.628 470.148 288.659 470.685 289.411C471.222 290.156 471.974 290.528 472.941 290.528C474.194 290.528 475.115 289.959 475.702 288.82V283.514C475.093 282.404 474.18 281.849 472.963 281.849C471.996 281.849 471.24 282.225 470.696 282.977C470.152 283.729 469.88 284.842 469.88 286.317Z" fill="#686868"/>
</g>
<defs>
<filter id="filter0_d" x="3.22266" y="0.970703" width="374.31" height="75.6152" filterUnits="userSpaceOnUse" color-interpolation-filters="sRGB">
<feFlood flood-opacity="0" result="BackgroundImageFix"/>
<feColorMatrix in="SourceAlpha" type="matrix" values="0 0 0 0 0 0 0 0 0 0 0 0 0 0 0 0 0 0 127 0"/>
<feOffset/>
<feGaussianBlur stdDeviation="7.5"/>
<feColorMatrix type="matrix" values="0 0 0 0 0 0 0 0 0 0 0 0 0 0 0 0 0 0 0.15 0"/>
<feBlend mode="normal" in2="BackgroundImageFix" result="effect1_dropShadow"/>
<feBlend mode="normal" in="SourceGraphic" in2="effect1_dropShadow" result="shape"/>
</filter>
<filter id="filter1_d" x="0.703125" y="72.5898" width="496.191" height="108.945" filterUnits="userSpaceOnUse" color-interpolation-filters="sRGB">
<feFlood flood-opacity="0" result="BackgroundImageFix"/>
<feColorMatrix in="SourceAlpha" type="matrix" values="0 0 0 0 0 0 0 0 0 0 0 0 0 0 0 0 0 0 127 0"/>
<feOffset/>
<feGaussianBlur stdDeviation="7.5"/>
<feColorMatrix type="matrix" values="0 0 0 0 0 0 0 0 0 0 0 0 0 0 0 0 0 0 0.15 0"/>
<feBlend mode="normal" in2="BackgroundImageFix" result="effect1_dropShadow"/>
<feBlend mode="normal" in="SourceGraphic" in2="effect1_dropShadow" result="shape"/>
</filter>
<filter id="filter2_d" x="7.13281" y="222.5" width="200.51" height="44.9082" filterUnits="userSpaceOnUse" color-interpolation-filters="sRGB">
<feFlood flood-opacity="0" result="BackgroundImageFix"/>
<feColorMatrix in="SourceAlpha" type="matrix" values="0 0 0 0 0 0 0 0 0 0 0 0 0 0 0 0 0 0 127 0"/>
<feOffset dy="5"/>
<feGaussianBlur stdDeviation="5"/>
<feColorMatrix type="matrix" values="0 0 0 0 0 0 0 0 0 0 0 0 0 0 0 0 0 0 0.08 0"/>
<feBlend mode="normal" in2="BackgroundImageFix" result="effect1_dropShadow"/>
<feBlend mode="normal" in="SourceGraphic" in2="effect1_dropShadow" result="shape"/>
</filter>
<filter id="filter3_d" x="5.52637" y="270.274" width="482.174" height="41.4199" filterUnits="userSpaceOnUse" color-interpolation-filters="sRGB">
<feFlood flood-opacity="0" result="BackgroundImageFix"/>
<feColorMatrix in="SourceAlpha" type="matrix" values="0 0 0 0 0 0 0 0 0 0 0 0 0 0 0 0 0 0 127 0"/>
<feOffset dy="5"/>
<feGaussianBlur stdDeviation="5"/>
<feColorMatrix type="matrix" values="0 0 0 0 0 0 0 0 0 0 0 0 0 0 0 0 0 0 0.08 0"/>
<feBlend mode="normal" in2="BackgroundImageFix" result="effect1_dropShadow"/>
<feBlend mode="normal" in="SourceGraphic" in2="effect1_dropShadow" result="shape"/>
</filter>
</defs>
</svg>
