<svg width="175" height="155" viewBox="0 0 175 155" fill="none" xmlns="http://www.w3.org/2000/svg">
<path d="M87.1071 154.069C10.4631 154.069 0 82.3334 0 61.8376H174.214C174.214 72.0855 164.182 154.069 87.1071 154.069Z" fill="#CCD6DD"/>
<path d="M174.214 62.1236C174.214 88.8501 135.216 110.514 87.1071 110.514C38.9984 110.514 0 88.845 0 62.1236C0 35.397 38.9984 18.8569 87.1071 18.8569C135.216 18.8518 174.214 35.397 174.214 62.1236Z" fill="#66757F"/>
<path d="M8.75058 71.4446C4.61042 65.4957 -3.2036 53.5108 5.12282 35.5769C8.75058 26.1847 16.293 20.0667 17.2922 22.9823C19.639 29.8125 24.3376 35.7921 31.3831 35.1516C31.2908 37.5753 27.9551 13.0725 39.7095 6.53951C45.4739 3.33705 51.6637 8.461 58.7091 19.7747C69.992 37.8981 98.7323 29.4282 106.797 24.6834C114.965 19.8772 122.118 16.731 119.981 3.86993C119.51 1.04664 123.788 -1.40261 128.154 0.933912C135.486 4.85886 146.078 14.62 147.948 25.329C153.179 26.7176 157.099 24.4938 160.117 18.3912C161.613 15.3681 166.737 14.6559 168.93 18.6013C172.794 25.5494 179.137 46.9214 170.155 65.2549C159.907 86.1759 144.32 97.2795 109.308 101.763C74.2961 106.246 29.2464 100.907 8.75058 71.4446Z" fill="#77B255"/>
<path d="M94.3678 26.718C94.3678 37.5091 85.0935 46.2505 73.6568 46.2505C62.2201 46.2505 52.9458 37.504 52.9458 26.718C52.9458 15.9321 62.2201 7.18555 73.6568 7.18555C85.0935 7.18043 94.3678 15.9321 94.3678 26.718Z" fill="#5C913B"/>
<path d="M89.2439 26.7175C89.2439 34.8389 82.2651 41.4181 73.6569 41.4181C65.0486 41.4181 58.0698 34.8338 58.0698 26.7175C58.0698 18.596 65.0486 12.0117 73.6569 12.0117C82.2651 12.0168 89.2439 18.6011 89.2439 26.7175Z" fill="#C6E5B3"/>
<path d="M36.7236 59.2756C43.2097 59.2756 48.4677 54.6874 48.4677 49.0277C48.4677 43.3679 43.2097 38.7798 36.7236 38.7798C30.2375 38.7798 24.9795 43.3679 24.9795 49.0277C24.9795 54.6874 30.2375 59.2756 36.7236 59.2756Z" fill="#292F33"/>
<path d="M84.6688 52.5217C91.1609 64.7577 73.8881 57.3946 61.0269 64.2248C48.1607 71.0551 44.5842 89.4808 38.087 77.2448C31.5898 65.0088 36.7548 49.555 49.6159 42.7248C62.4821 35.8997 78.1768 40.2858 84.6688 52.5217Z" fill="#DD2E44"/>
<path d="M118.706 49.0278C125.193 49.0278 130.451 44.4396 130.451 38.7799C130.451 33.1201 125.193 28.532 118.706 28.532C112.22 28.532 106.962 33.1201 106.962 38.7799C106.962 44.4396 112.22 49.0278 118.706 49.0278Z" fill="#292F33"/>
<path d="M144.071 77.8701C136.057 85.4535 138.035 70.6351 130.062 62.2113C122.079 53.7875 107.178 54.9609 115.187 47.3723C123.196 39.7838 136.164 40.4601 144.137 48.8788C152.115 57.2974 152.084 70.2815 144.071 77.8701Z" fill="#9266CC"/>
<path d="M138.947 82.9941C130.933 90.5775 132.911 75.7591 124.938 67.3302C116.955 58.9115 102.054 60.0798 110.063 52.4912C118.072 44.9027 131.04 45.579 139.013 53.9977C146.991 62.4215 146.96 75.4055 138.947 82.9941Z" fill="#E1E8ED"/>
<path d="M117.918 76.8399C121.92 87.4055 108.705 79.6837 97.5965 83.8956C86.498 88.1023 81.7123 102.639 77.7105 92.0785C73.7087 81.5232 79.468 69.5434 90.5664 65.3366C101.67 61.1299 113.911 66.2846 117.918 76.8399Z" fill="#DD2E44"/>
<path d="M40.7757 72.5149C39.92 64.6138 55.2919 29.3815 82.623 60.1304C76.2181 61.1961 60.631 61.1961 53.5856 71.0187C46.5402 80.8414 40.1352 72.0845 40.7757 72.5149Z" fill="#EA596E"/>
<path d="M20.0695 75.7174C16.3393 70.7421 29.0365 59.2747 38.6439 69.0921C42.702 64.1834 62.7674 54.3659 70.2433 75.7174C73.6609 71.8744 101.627 71.0187 102.053 94.717C102.263 97.9195 69.7975 97.3097 53.16 93.436C43.9779 91.2993 27.115 85.1096 20.0695 75.7174ZM128.098 89.8031C122.118 91.4172 132.161 63.5429 150.945 68.2416C151.586 63.1176 155.639 46.2496 167.383 49.242C167.808 54.1507 167.593 79.1248 128.098 89.8031Z" fill="#A6D388"/>
</svg>
