<svg width="13" height="18" viewBox="0 0 13 18" fill="none" xmlns="http://www.w3.org/2000/svg">
<path d="M10.5 0H2.5C1.83696 0 1.20107 0.214626 0.732233 0.596662C0.263392 0.978698 0 1.49685 0 2.03713V15.8896C0 16.4299 0.263392 16.9481 0.732233 17.3301C1.20107 17.7121 1.83696 17.9268 2.5 17.9268H10.5C11.163 17.9268 11.7989 17.7121 12.2678 17.3301C12.7366 16.9481 13 16.4299 13 15.8896V2.03713C13 1.49685 12.7366 0.978698 12.2678 0.596662C11.7989 0.214626 11.163 0 10.5 0ZM6.5 17.1119C5.67 17.1119 5 16.566 5 15.8896C5 15.2133 5.67 14.6673 6.5 14.6673C7.33 14.6673 8 15.2133 8 15.8896C8 16.566 7.33 17.1119 6.5 17.1119ZM11 13.8525H2V2.44456H11V13.8525Z" fill="black"/>
</svg>
