<svg width="410" height="290" viewBox="0 0 410 290" fill="none" xmlns="http://www.w3.org/2000/svg">
<path d="M57.9173 111.368C57.9173 143.115 17.8542 143.42 17.8542 111.368V44.2123C17.8542 32.3979 8.88375 26.5477 0 26.6618V0H404.5H410V26.3992C401.116 26.2851 391.126 32.1352 391.126 43.9497V176.039C391.126 208.599 351.062 209.108 351.062 176.039V50.3174C351.062 12.1606 307.091 13.6869 307.091 50.3174V265.388C307.091 298.458 262.142 297.949 262.142 265.388V32.0022C262.142 -1.0671 218.17 -1.0671 218.17 32.0022V92.5268C218.17 123.052 176.153 121.526 176.153 92.5268V50.3174C176.153 20.199 136.089 20.8095 136.089 50.3174V194.162C136.089 224.688 94.0719 223.67 94.0719 194.162V44.2123C94.0719 16.2307 57.9173 15.7219 57.9173 44.2123V111.368Z" fill="#0B0D0D"/>
</svg>
