<svg width="422" height="344" viewBox="0 0 422 344" fill="none" xmlns="http://www.w3.org/2000/svg">
<g filter="url(#filter0_d)">
<path d="M0 120.745V25.8141V4H392V34.9429V45.8V188.537C392 222.67 349.927 223.203 349.927 188.537V56.7466C349.927 16.7477 303.749 18.3476 303.749 56.7466V282.2C303.749 316.866 256.544 316.333 256.544 282.2V37.5471C256.544 2.88139 210.366 2.88139 210.366 37.5471V100.994C210.366 132.993 166.241 131.393 166.241 100.994V56.7466C166.241 25.1741 124.168 25.8141 124.168 56.7466V207.536C124.168 239.535 80.0419 238.468 80.0419 207.536V50.3467C80.0419 21.0142 42.0733 20.4809 42.0733 50.3467V120.745C42.0733 154.024 0 154.344 0 120.745Z" fill="#0B0D0D"/>
</g>
<defs>
<filter id="filter0_d" x="-10" y="0" width="432" height="344" filterUnits="userSpaceOnUse" color-interpolation-filters="sRGB">
<feFlood flood-opacity="0" result="BackgroundImageFix"/>
<feColorMatrix in="SourceAlpha" type="matrix" values="0 0 0 0 0 0 0 0 0 0 0 0 0 0 0 0 0 0 127 0"/>
<feOffset dx="10" dy="16"/>
<feGaussianBlur stdDeviation="10"/>
<feColorMatrix type="matrix" values="0 0 0 0 0 0 0 0 0 0 0 0 0 0 0 0 0 0 0.15 0"/>
<feBlend mode="normal" in2="BackgroundImageFix" result="effect1_dropShadow"/>
<feBlend mode="normal" in="SourceGraphic" in2="effect1_dropShadow" result="shape"/>
</filter>
</defs>
</svg>
