<svg width="30" height="30" viewBox="0 0 30 30" fill="none" xmlns="http://www.w3.org/2000/svg">
<path d="M24.2805 5.72698C23.0639 4.49837 21.6165 3.52223 20.0216 2.85467C18.4266 2.1871 16.7154 1.84126 14.9864 1.837C13.2574 1.83275 11.5445 2.17016 9.94631 2.82987C8.34807 3.48958 6.89594 4.45857 5.67332 5.68119C4.45071 6.9038 3.48172 8.35593 2.82201 9.95417C2.1623 11.5524 1.82489 13.2652 1.82914 14.9943C1.8334 16.7233 2.17924 18.4344 2.84681 20.0294C3.51438 21.6244 4.49051 23.0717 5.71912 24.2883C6.9357 25.5169 8.38305 26.4931 9.97802 27.1606C11.573 27.8282 13.2841 28.174 15.0132 28.1783C16.7422 28.1825 18.455 27.8451 20.0533 27.1854C21.6515 26.5257 23.1036 25.5567 24.3262 24.3341C25.5489 23.1115 26.5179 21.6594 27.1776 20.0611C27.8373 18.4629 28.1747 16.7501 28.1704 15.021C28.1662 13.292 27.8203 11.5808 27.1528 9.98588C26.4852 8.39091 25.5091 6.94356 24.2805 5.72698V5.72698ZM3.74979 15.0076C3.74937 14.012 3.88138 13.0207 4.14236 12.0598C4.57244 12.9856 5.19705 13.7854 5.62186 14.7352C6.17088 15.9563 7.6451 15.6176 8.29607 16.6875C8.87381 17.6373 8.25682 18.8385 8.68924 19.8323C9.0033 20.5535 9.74393 20.7112 10.2549 21.2385C10.7769 21.7705 10.7658 22.4994 10.8455 23.1932C10.9354 24.0083 11.0813 24.8163 11.282 25.6114C11.282 25.6172 11.282 25.6237 11.2867 25.6295C6.90213 24.0897 3.74979 19.9102 3.74979 15.0076ZM14.9998 26.2576C14.3715 26.2574 13.7443 26.2049 13.1248 26.1006C13.1312 25.9418 13.1342 25.7936 13.15 25.6905C13.2924 24.7588 13.7588 23.8477 14.3881 23.1504C15.0097 22.4625 15.8617 21.9973 16.3867 21.2168C16.9012 20.4551 17.0553 19.4297 16.8431 18.5397C16.5308 17.2248 14.7443 16.786 13.781 16.0729C13.2273 15.6627 12.7346 15.0287 12.0074 14.9772C11.6722 14.9537 11.3916 15.0258 11.0594 14.9403C10.7547 14.8612 10.5156 14.6971 10.191 14.7399C9.58455 14.8196 9.20193 15.4676 8.55037 15.3797C7.93221 15.2971 7.29529 14.5735 7.15467 13.9846C6.9742 13.2276 7.57303 12.9821 8.21463 12.9147C8.4824 12.8866 8.78299 12.8561 9.04022 12.9545C9.37889 13.0799 9.53885 13.4116 9.84295 13.5791C10.4131 13.892 10.5285 13.3922 10.4412 12.886C10.3105 12.1278 10.1582 11.819 10.8344 11.2969C11.3031 10.9371 11.7039 10.677 11.6289 10.0307C11.5844 9.65101 11.3763 9.47933 11.5703 9.1014C11.7174 8.8137 12.1211 8.55413 12.3842 8.38245C13.0633 7.93948 15.2933 7.97229 14.3822 6.73245C14.1144 6.36858 13.6205 5.71819 13.1517 5.62913C12.5658 5.51839 12.3056 6.17229 11.8972 6.46058C11.4754 6.75882 10.6539 7.09749 10.2314 6.63636C9.66307 6.01585 10.6082 5.81253 10.8174 5.37894C10.914 5.17679 10.8174 4.89612 10.6545 4.63186C10.8658 4.5428 11.0806 4.46019 11.299 4.38401C11.4359 4.48509 11.5982 4.54596 11.7678 4.55979C12.1597 4.58558 12.5295 4.37347 12.8717 4.64065C13.2513 4.93362 13.525 5.30394 14.0289 5.39534C14.5164 5.48382 15.0326 5.19964 15.1533 4.70042C15.2265 4.3969 15.1533 4.0764 15.083 3.76292C17.2744 3.77553 19.4138 4.43182 21.2353 5.65022C21.1181 5.60569 20.9781 5.61097 20.8053 5.69124C20.4496 5.85647 19.9457 6.27718 19.9041 6.69436C19.8566 7.1678 20.5551 7.2346 20.8867 7.2346C21.3847 7.2346 21.8892 7.01194 21.7287 6.43655C21.659 6.18694 21.564 5.92737 21.4111 5.77034C21.7787 6.02543 22.1309 6.30209 22.4658 6.59886C22.4605 6.60413 22.4553 6.60882 22.45 6.61468C22.1125 6.96624 21.7205 7.24456 21.4896 7.67229C21.3267 7.97347 21.1433 8.11644 20.8135 8.19437C20.6318 8.23714 20.4244 8.25296 20.2721 8.37483C19.8478 8.70882 20.0892 9.51155 20.4912 9.75237C20.9992 10.0565 21.7527 9.91351 22.1359 9.47933C22.4353 9.13948 22.6117 8.54944 23.1502 8.55003C23.3872 8.54954 23.615 8.64236 23.7842 8.80843C24.0068 9.03929 23.9629 9.25491 24.0103 9.54319C24.0941 10.0553 24.5459 9.77757 24.8207 9.51917C25.021 9.87567 25.2017 10.2428 25.3621 10.619C25.0597 11.0543 24.8195 11.5289 24.0924 11.0215C23.657 10.7174 23.3892 10.2762 22.8426 10.1391C22.365 10.0219 21.8758 10.1438 21.4041 10.2252C20.868 10.3184 20.2322 10.3594 19.8256 10.7655C19.4324 11.1569 19.2244 11.6807 18.806 12.0739C17.9969 12.8356 17.6553 13.667 18.1791 14.744C18.683 15.7793 19.7371 16.3412 20.8744 16.2674C21.9918 16.193 23.1525 15.545 23.1203 17.1686C23.1086 17.7434 23.2287 18.1412 23.4051 18.675C23.5685 19.1672 23.5574 19.6442 23.5949 20.1522C23.6306 20.7471 23.7236 21.3371 23.8726 21.9141C22.8224 23.2663 21.477 24.3606 19.9392 25.1134C18.4014 25.8662 16.7119 26.2576 14.9998 26.2576V26.2576Z" fill="black"/>
</svg>
