<svg width="52" height="53" viewBox="0 0 52 53" fill="none" xmlns="http://www.w3.org/2000/svg">
<g clip-path="url(#clip0)">
<path d="M18.2518 52C22.8049 52 26.5001 48.2667 26.5001 43.6667V35.3334H18.2518C13.6987 35.3334 10.0034 39.0667 10.0034 43.6667C10.0034 48.2667 13.6987 52 18.2518 52Z" fill="#0ACF83"/>
<path d="M10.0034 27C10.0034 22.4 13.6987 18.6666 18.2518 18.6666H26.5001V35.3333H18.2518C13.6987 35.3333 10.0034 31.5999 10.0034 27Z" fill="#A259FF"/>
<path d="M10.0034 10.3333C10.0034 5.73333 13.6987 2 18.2518 2H26.5001V18.6667H18.2518C13.6987 18.6667 10.0034 14.9333 10.0034 10.3333Z" fill="#F24E1E"/>
<path d="M26.5 2H34.7484C39.3014 2 42.9967 5.73333 42.9967 10.3333C42.9967 14.9333 39.3014 18.6667 34.7484 18.6667H26.5V2Z" fill="#FF7262"/>
<path d="M42.9967 27C42.9967 31.5999 39.3014 35.3333 34.7484 35.3333C30.1953 35.3333 26.5 31.5999 26.5 27C26.5 22.4 30.1953 18.6666 34.7484 18.6666C39.3014 18.6666 42.9967 22.4 42.9967 27Z" fill="#1ABCFE"/>
</g>
<defs>
<clipPath id="clip0">
<rect x="10" y="2" width="33" height="50" fill="white"/>
</clipPath>
</defs>
</svg>
