<svg width="26" height="26" viewBox="0 0 26 26" fill="none" xmlns="http://www.w3.org/2000/svg">
<path d="M12.9958 0.42857C5.8976 0.42857 0.138672 6.1875 0.138672 13.2857C0.138672 18.9609 3.82171 23.7824 8.92773 25.49C9.58064 25.6071 9.81501 25.2054 9.81501 24.8705C9.81501 24.5525 9.79827 23.548 9.79827 22.4766C9.79827 22.4766 6.21568 23.2467 5.46233 20.9531C5.46233 20.9531 4.8764 19.4632 4.03934 19.0781C4.03934 19.0781 2.86747 18.2746 4.12305 18.2913C4.12305 18.2913 5.39537 18.3917 6.09849 19.6138C7.22015 21.5893 9.09515 21.0201 9.83175 20.6853C9.94894 19.865 10.2838 19.2958 10.6521 18.9609C7.78934 18.6429 4.79269 17.5379 4.79269 12.6161C4.79269 11.2098 5.29492 10.0714 6.11523 9.16741C5.98131 8.83259 5.54604 7.52678 6.24916 5.75223C7.32059 5.41741 9.78153 7.07478 9.78153 7.07478C10.8027 6.79018 11.9076 6.63951 12.9958 6.63951C14.084 6.63951 15.1889 6.79018 16.2101 7.07478C16.2101 7.07478 18.671 5.41741 19.7425 5.75223C20.4456 7.52678 20.0103 8.83259 19.8764 9.16741C20.6967 10.0714 21.1989 11.2098 21.1989 12.6161C21.1989 17.5547 18.1855 18.6429 15.3228 18.9609C15.7916 19.3627 16.1934 20.1328 16.1934 21.3382C16.1934 23.0625 16.1766 24.452 16.1766 24.8705C16.1766 25.2054 16.411 25.6071 17.0639 25.49C22.1699 23.7824 25.853 18.9609 25.853 13.2857C25.853 6.1875 20.094 0.42857 12.9958 0.42857ZM5.01032 18.894C4.97684 18.9609 4.8764 18.9777 4.79269 18.9275C4.69224 18.8772 4.64202 18.7935 4.6755 18.7266C4.70898 18.6763 4.79269 18.6596 4.89314 18.6931C4.99358 18.7433 5.04381 18.827 5.01032 18.894ZM5.5293 19.4632C5.46233 19.5301 5.34515 19.4967 5.26144 19.4129C5.17773 19.3125 5.16099 19.1953 5.22796 19.1451C5.29492 19.0781 5.41211 19.1116 5.49581 19.1953C5.57952 19.2958 5.59626 19.4129 5.5293 19.4632ZM6.03153 20.2165C5.96456 20.2667 5.83064 20.2165 5.74693 20.0993C5.66323 19.9821 5.66323 19.8482 5.74693 19.798C5.83064 19.731 5.96456 19.7812 6.03153 19.8984C6.11523 20.0156 6.11523 20.1496 6.03153 20.2165ZM6.73465 20.9196C6.66769 21.0033 6.51702 20.9866 6.39983 20.8694C6.28265 20.769 6.24916 20.6183 6.33287 20.5513C6.39983 20.4676 6.5505 20.4844 6.66769 20.6016C6.76814 20.702 6.80162 20.8527 6.73465 20.9196ZM7.6889 21.3382C7.65541 21.4386 7.50474 21.4888 7.37081 21.4386C7.22015 21.4051 7.1197 21.2879 7.15318 21.1875C7.18666 21.0871 7.33733 21.0368 7.47126 21.0703C7.62193 21.1205 7.72238 21.2377 7.6889 21.3382ZM8.74358 21.4219C8.74358 21.5223 8.6264 21.606 8.47573 21.606C8.30831 21.6228 8.19113 21.5391 8.19113 21.4219C8.19113 21.3214 8.30831 21.2377 8.45898 21.2377C8.60965 21.221 8.74358 21.3047 8.74358 21.4219ZM9.71456 21.2545C9.73131 21.3549 9.63086 21.4554 9.48019 21.4888C9.32952 21.5223 9.19559 21.4554 9.17885 21.3549C9.16211 21.2377 9.26256 21.1373 9.41323 21.1038C9.5639 21.0871 9.69782 21.154 9.71456 21.2545Z" fill="white"/>
</svg>
