<svg width="51" height="51" viewBox="0 0 51 51" fill="none" xmlns="http://www.w3.org/2000/svg">
<path d="M10.7223 46.9038L7.43408 10.0227H43.5658L40.2741 46.898L25.4778 51L10.7223 46.9038Z" fill="#E44D26"/>
<path d="M25.5 47.8645L37.4561 44.5498L40.2691 13.0382H25.5V47.8645Z" fill="#F16529"/>
<path d="M25.5 26.7169H19.5145L19.1011 22.085H25.5V17.5616H25.4844H14.1577L14.266 18.7752L15.3777 31.2402H25.5V26.7169Z" fill="#EBEBEB"/>
<path d="M25.5 38.4645L25.4802 38.4698L20.4426 37.1095L20.1205 33.502H17.6726H15.5798L16.2135 40.6042L25.4792 43.1764L25.5 43.1706V38.4645Z" fill="#EBEBEB"/>
<path d="M10.7959 0H13.0946V2.27109H15.1973V0H17.4961V6.87743H15.1974V4.57446H13.0947V6.87743H10.796V0H10.7959Z" fill="black"/>
<path d="M20.5189 2.28066H18.4952V0H24.8424V2.28066H22.8178V6.87743H20.519V2.28066H20.5189Z" fill="black"/>
<path d="M25.8497 0H28.2466L29.7211 2.41652L31.194 0H33.5918V6.87743H31.3025V3.4686L29.7211 5.91391H29.6815L28.0989 3.4686V6.87743H25.8497V0Z" fill="black"/>
<path d="M34.7358 0H37.0352V4.60414H40.2678V6.87743H34.7358V0Z" fill="black"/>
<path d="M25.4844 26.7169V31.2402H31.0543L30.5293 37.1066L25.4844 38.4682V43.1742L34.7574 40.6042L34.8254 39.84L35.8884 27.9316L35.9987 26.7169H34.7798H25.4844Z" fill="white"/>
<path d="M25.4844 17.5616V20.371V22.0739V22.085H36.3958H36.4103L36.5011 21.0683L36.7072 18.7752L36.8153 17.5616H25.4844Z" fill="white"/>
</svg>
