<svg width="138" height="100" viewBox="0 0 138 100" fill="none" xmlns="http://www.w3.org/2000/svg">
<g style="mix-blend-mode:difference">
<path fill-rule="evenodd" clip-rule="evenodd" d="M50 100C77.6142 100 100 77.6142 100 50C100 22.3858 77.6142 0 50 0C22.3858 0 0 22.3858 0 50C0 77.6142 22.3858 100 50 100ZM50 82C67.6731 82 82 67.6731 82 50C82 32.3269 67.6731 18 50 18C32.3269 18 18 32.3269 18 50C18 67.6731 32.3269 82 50 82Z" fill="#DD2F09"/>
</g>
<g style="mix-blend-mode:difference">
<path fill-rule="evenodd" clip-rule="evenodd" d="M88 100C115.614 100 138 77.6142 138 50C138 22.3858 115.614 0 88 0C60.3858 0 38 22.3858 38 50C38 77.6142 60.3858 100 88 100ZM88 82C105.673 82 120 67.6731 120 50C120 32.3269 105.673 18 88 18C70.3269 18 56 32.3269 56 50C56 67.6731 70.3269 82 88 82Z" fill="#00C2FF"/>
</g>
</svg>
