<svg width="51" height="51" viewBox="0 0 51 51" fill="none" xmlns="http://www.w3.org/2000/svg">
<path d="M25.3162 0C12.3692 9.28572e-07 13.1777 5.64398 13.1777 5.64398L13.1921 11.4911H25.5471V13.2467H8.28476C8.28476 13.2467 0 12.3022 0 25.4342C-9.23736e-07 38.5662 7.23113 38.1005 7.23113 38.1005H11.5467V32.0067C11.5467 32.0067 11.3141 24.7377 18.6624 24.7377C26.0106 24.7377 30.9163 24.7377 30.9163 24.7377C30.9163 24.7377 37.801 24.8496 37.801 18.0491C37.801 11.2486 37.801 6.80469 37.801 6.80469C37.801 6.80469 38.8463 0 25.3162 0ZM18.5036 3.93192C19.7328 3.93192 20.7263 4.93063 20.7263 6.1663C20.7263 7.40196 19.7328 8.40067 18.5036 8.40067C17.2744 8.40067 16.2809 7.40196 16.2809 6.1663C16.2809 4.93063 17.2744 3.93192 18.5036 3.93192Z" fill="url(#paint0_linear)"/>
<path d="M25.6838 51C38.6307 51 37.8223 45.356 37.8223 45.356L37.8078 39.5089H25.4528V37.7533H42.7152C42.7152 37.7533 50.9999 38.6978 50.9999 25.5658C50.9999 12.4338 43.7688 12.8995 43.7688 12.8995H39.4532V18.9933C39.4532 18.9933 39.6858 26.2622 32.3376 26.2622C24.9893 26.2622 20.0836 26.2622 20.0836 26.2622C20.0836 26.2622 13.1989 26.1504 13.1989 32.9509C13.1989 39.7513 13.1989 44.1953 13.1989 44.1953C13.1989 44.1953 12.1536 51 25.6838 51ZM32.4963 47.0681C31.2671 47.0681 30.2736 46.0693 30.2736 44.8337C30.2736 43.598 31.2671 42.5993 32.4963 42.5993C33.7256 42.5993 34.7191 43.598 34.7191 44.8337C34.7191 46.0693 33.7256 47.0681 32.4963 47.0681Z" fill="url(#paint1_linear)"/>
<defs>
<linearGradient id="paint0_linear" x1="4.9012" y1="4.45785" x2="30.2513" y2="29.7603" gradientUnits="userSpaceOnUse">
<stop stop-color="#387EB8"/>
<stop offset="1" stop-color="#366994"/>
</linearGradient>
<linearGradient id="paint1_linear" x1="20.4142" y1="20.6383" x2="47.6337" y2="46.5802" gradientUnits="userSpaceOnUse">
<stop stop-color="#FFE052"/>
<stop offset="1" stop-color="#FFC331"/>
</linearGradient>
</defs>
</svg>
