<svg width="57" height="51" viewBox="0 0 57 51" fill="none" xmlns="http://www.w3.org/2000/svg">
<path d="M0.167969 25.4446C0.167969 29.7053 4.34549 33.6826 10.9314 35.9246C9.61621 42.5185 10.6958 47.8333 14.3014 49.9042C18.0073 52.0329 23.5285 50.5594 28.769 45.9971C33.8772 50.3751 39.0397 52.098 42.6421 50.0212C46.3447 47.8866 47.4706 42.2114 46.1192 35.4115C52.9789 33.1529 56.816 29.7614 56.816 25.4446C56.816 21.2827 52.6309 17.6824 46.1337 15.4548C47.5887 8.37396 46.3559 3.18815 42.6009 1.03173C38.9809 -1.04729 33.7583 0.764759 28.575 5.2572C23.1825 0.488916 18.0116 -0.966802 14.2606 1.1956C10.644 3.28061 9.61198 8.69216 10.9314 15.408C4.56769 17.6176 0.167969 21.2996 0.167969 25.4446Z" fill="white"/>
<path d="M44.7576 17.6668C44.2221 17.4839 43.6821 17.3144 43.1381 17.1586C43.2283 16.7935 43.3117 16.4267 43.3883 16.0585C44.6142 10.1319 43.8127 5.3574 41.0755 3.78571C38.4511 2.27833 34.1589 3.85001 29.824 7.60694C29.3968 7.97799 28.9792 8.35972 28.5714 8.75178C28.2983 8.49109 28.0204 8.23545 27.7378 7.98501C23.1947 3.96754 18.6409 2.27478 15.9066 3.85112C13.2847 5.36272 12.5081 9.85139 13.6117 15.468C13.7215 16.0243 13.8455 16.5776 13.9836 17.1275C13.3392 17.3098 12.7169 17.5041 12.1216 17.7107C6.7954 19.56 3.3938 22.4586 3.3938 25.4649C3.3938 28.5702 7.04521 31.6847 12.5931 33.573C13.043 33.7255 13.4966 33.8667 13.9535 33.9966C13.8051 34.589 13.6733 35.1855 13.5583 35.7853C12.5061 41.3044 13.3279 45.6867 15.9429 47.1889C18.6438 48.74 23.1769 47.1457 27.5911 43.303C27.94 42.9992 28.2902 42.677 28.6409 42.3393C29.0825 42.7637 29.536 43.1758 30.0008 43.575C34.2765 47.2393 38.4992 48.7189 41.112 47.2127C43.8105 45.6569 44.6872 40.9492 43.5486 35.2215C43.4618 34.784 43.3605 34.3372 43.2469 33.8822C43.5653 33.7886 43.8777 33.6919 44.1825 33.5912C49.95 31.6883 53.7022 28.6116 53.7022 25.4649C53.7022 22.4477 50.1911 19.5296 44.7576 17.6668Z" fill="#53C1DE"/>
<path d="M43.5065 31.5596C43.2315 31.6503 42.9492 31.7379 42.6615 31.8228C42.0247 29.8154 41.1653 27.6808 40.114 25.4756C41.1175 23.3225 41.9435 21.2153 42.5624 19.2207C43.077 19.3693 43.5766 19.5256 44.058 19.6908C48.7135 21.2867 51.5531 23.6467 51.5531 25.4649C51.5531 27.4018 48.4862 29.9163 43.5067 31.5596H43.5065ZM41.4403 35.6372C41.9437 38.1699 42.0156 40.4598 41.6821 42.2499C41.3824 43.8584 40.7799 44.9307 40.035 45.3602C38.4495 46.2742 35.0588 45.0862 31.4025 41.9525C30.9832 41.5933 30.5609 41.2097 30.1374 40.8039C31.555 39.2598 32.9717 37.4646 34.3543 35.4711C36.7865 35.2563 39.0843 34.9048 41.168 34.4252C41.2704 34.8376 41.3617 35.2418 41.4403 35.6372ZM20.5449 45.2024C18.9959 45.7472 17.7623 45.7627 17.0166 45.3345C15.4296 44.4232 14.7701 40.9042 15.6698 36.1845C15.7768 35.6267 15.8993 35.072 16.0372 34.521C18.0978 34.9749 20.3788 35.3015 22.8168 35.4984C24.2085 37.449 25.6662 39.242 27.1352 40.8121C26.823 41.1129 26.5034 41.406 26.1767 41.6911C24.2248 43.3905 22.2688 44.5959 20.5451 45.2024H20.5449ZM13.2882 31.5477C10.835 30.7126 8.80918 29.6274 7.42053 28.4433C6.17281 27.379 5.54272 26.3224 5.54272 25.4649C5.54272 23.6407 8.27393 21.3135 12.8291 19.7319C13.4008 19.5342 13.9782 19.3533 14.5606 19.1893C15.1902 21.2286 16.016 23.3608 17.0126 25.517C16.0031 27.7054 15.1655 29.8715 14.5301 31.9348C14.113 31.8159 13.6989 31.6868 13.2882 31.5477ZM15.7208 15.0569C14.7752 10.2445 15.4031 6.61444 16.9832 5.70353C18.6664 4.7332 22.388 6.11685 26.3106 9.58552C26.5613 9.80726 26.8131 10.0394 27.0653 10.2796C25.6039 11.8426 24.1596 13.6221 22.7798 15.5614C20.4138 15.7798 18.1488 16.1306 16.0666 16.6005C15.9383 16.0888 15.823 15.5741 15.7208 15.0567V15.0569ZM37.4215 20.3935C36.9297 19.5475 36.4197 18.7121 35.8917 17.8879C37.497 18.0897 39.0348 18.358 40.4789 18.6864C40.0454 20.0702 39.5051 21.5173 38.8687 23.0007C38.4038 22.1222 37.9213 21.2529 37.4215 20.3935ZM28.572 11.8091C29.5632 12.8786 30.556 14.0729 31.5325 15.3685C29.5516 15.2753 27.5674 15.2748 25.5865 15.3671C26.5639 14.0835 27.5652 12.891 28.572 11.8091ZM19.6657 20.4082C19.1721 21.2607 18.6987 22.1246 18.2456 22.9992C17.6198 21.5208 17.0843 20.0673 16.647 18.6637C18.0824 18.3438 19.6131 18.0823 21.2079 17.8839C20.6741 18.7132 20.1598 19.5548 19.6657 20.4082ZM21.2538 33.1987C19.6062 33.0156 18.0524 32.7675 16.6174 32.4564C17.0616 31.0279 17.6088 29.5431 18.2481 28.0331C18.703 28.9083 19.1786 29.7727 19.6743 30.6257C20.1802 31.4957 20.7069 32.3537 21.2538 33.1987ZM28.6314 39.2719C27.6128 38.1772 26.5969 36.9665 25.6045 35.6643C26.5677 35.7019 27.5498 35.721 28.5479 35.721C29.5734 35.721 30.5872 35.6982 31.5848 35.6538C30.6052 36.9798 29.616 38.1923 28.6314 39.2719ZM38.8892 27.9562C39.5616 29.4826 40.1285 30.9594 40.5787 32.3637C39.1199 32.6952 37.5451 32.9621 35.8857 33.1604C36.4175 32.3208 36.9324 31.4708 37.4302 30.6108C37.9363 29.7368 38.4227 28.8517 38.8892 27.9562ZM35.5684 29.5416C34.8064 30.86 34.0014 32.1535 33.1549 33.4198C31.6623 33.526 30.1198 33.5808 28.5479 33.5808C26.9825 33.5808 25.4596 33.5322 23.993 33.4375C23.1246 32.1742 22.3044 30.8785 21.5343 29.5533C20.7678 28.2352 20.0519 26.8886 19.388 25.5164C20.0502 24.1437 20.764 22.7964 21.5279 21.4772V21.4776C22.2915 20.1581 23.1052 18.868 23.9672 17.61C25.4634 17.4974 26.9974 17.4384 28.5482 17.4384C30.1058 17.4384 31.6418 17.4978 33.1376 17.6114C33.9908 18.8674 34.7993 20.153 35.5615 21.4659C36.328 22.7821 37.0514 24.1229 37.7303 25.486C37.0583 26.863 36.3373 28.2157 35.5687 29.5416H35.5684ZM40.002 5.63989C41.6865 6.60756 42.3418 10.5095 41.2833 15.6266C41.214 15.9599 41.1385 16.292 41.0571 16.6226C38.97 16.143 36.7035 15.786 34.3305 15.5643C32.9481 13.6039 31.5158 11.8213 30.078 10.2785C30.4547 9.9167 30.8405 9.56432 31.2348 9.22165C34.949 6.00244 38.4203 4.73143 40.002 5.63989Z" fill="white"/>
<path d="M28.548 20.991C31.0292 20.991 33.0404 22.9942 33.0404 25.465C33.0404 27.9361 31.0292 29.9393 28.548 29.9393C26.0671 29.9393 24.0557 27.9361 24.0557 25.465C24.0557 22.9942 26.0671 20.991 28.548 20.991Z" fill="#53C1DE"/>
</svg>
